<?xml version="1.0" encoding="utf-8" ?>
<svg baseProfile="full" height="300mm" version="1.1" viewBox="0,0,200,300" width="200mm" xmlns="http://www.w3.org/2000/svg" xmlns:ev="http://www.w3.org/2001/xml-events" xmlns:xlink="http://www.w3.org/1999/xlink"><defs /><rect fill="#222222" height="300" width="200" x="0" y="0" /><text fill="#FFFFFF" style="font-size:12px; font-family:Arial; font-weight:bold;" x="10" y="20">Over 10km Runs</text><text fill="#FFFFFF" style="font-size:4px; font-family:Arial" x="10" y="280">Runner</text><text fill="#FFFFFF" style="font-size:9px; font-family:Arial" x="10" y="290">magisk</text><text fill="#FFFFFF" style="font-size:4px; font-family:Arial" x="65" y="280">SPECIAL TRACKS</text><rect fill="yellow" height="2.6" width="2.6" x="65" y="283" /><text fill="#FFFFFF" style="font-size:3px; font-family:Arial" x="70" y="285.5">Over 20.0 km</text><rect fill="red" height="2.6" width="2.6" x="65" y="287" /><text fill="#FFFFFF" style="font-size:3px; font-family:Arial" x="70" y="289.5">Over 40.0 km</text><text fill="#FFFFFF" style="font-size:4px; font-family:Arial" x="120" y="280">STATISTICS</text><text fill="#FFFFFF" style="font-size:3px; font-family:Arial" x="120" y="285">Number: 5</text><text fill="#FFFFFF" style="font-size:3px; font-family:Arial" x="120" y="290">Weekly: 1.0</text><text fill="#FFFFFF" style="font-size:3px; font-family:Arial" x="141" y="285">Total: 55.3 km</text><text fill="#FFFFFF" style="font-size:3px; font-family:Arial" x="141" y="290">Avg: 11.1 km</text><text fill="#FFFFFF" style="font-size:3px; font-family:Arial" x="167" y="285">Min: 10.1 km</text><text fill="#FFFFFF" style="font-size:3px; font-family:Arial" x="167" y="290">Max: 13.3 km</text><polyline fill="none" points="23.472495293826796,55.622977012826595 23.24660112935817,55.779262004289194 22.599037858075462,55.88345192026463 21.785818866279442,55.74453201830329 21.213553649839014,55.622977012826595 20.716586488182656,55.50142192206113 20.309976992255542,56.0223717107292 19.90336749632843,56.45649533845426 19.45157916744938,56.92534763486765 19.060029282525647,57.290009655145695 18.63836017571157,57.74149490293348 18.382346789352596,58.29716743937752 18.09621418104507,58.81810882422724 17.554068186553195,59.39114253903972 17.328174022084568,59.92944521190657 16.861326082318556,60.45038169049076 16.560133863124065,60.953952131501865 16.274001254932955,61.492249950402766 16.09328592341626,62.03054609749233 15.867391758947633,62.60356919115293 15.686676427489147,63.19395463952969 15.581259150756523,63.83643063665659 15.310186153510585,64.39208363258513 15.084291989100166,64.86091446230421 14.903576657525264,65.41656417393824 14.707801715121605,65.93748416085145 14.51202677260153,66.47576650272822 14.361430662975181,66.99668330638087 14.21083455340704,67.46550709127041 14.120476887619589,68.0211484535248 14.225894164352212,68.54206061305013 14.722861326066777,68.76778872936848 15.249947709671687,68.92406186845619 15.79209370422177,69.08033486666682 16.334239698771853,69.21924408015911 16.84626647143159,69.34078955060977 17.41853168787202,69.49706217314815 18.005856515315827,69.6706982551259 18.578121731814463,69.77487982086313 19.1503869483131,69.93115205204231 19.647354109969456,70.08742414235894 20.18950010451954,70.27842317252362 20.686467266234104,70.55623956795898 21.303911315568257,70.9555998564174 21.785818866279442,71.23341516655637 22.343024471832905,71.52859344576427 22.83999163354747,71.77168106303725 23.291779962251894,71.96267823743983 23.668270236288663,72.10158514120849 24.089939343219157,72.27521861436253 24.64714494877262,72.43148859150824 25.21941016515484,72.51830518461065 25.82179460360203,72.58775842783507 26.424179042049218,72.62248503895535 27.05668270238675,72.67457494263363 27.628947918768972,72.70930153643712 28.261451579106506,72.7266648306977 28.803597573714796,72.76139141402382 29.165028236748185,72.76139141402382 29.49633967789123,72.76139141402382 29.827651118976064,72.77875470307481 30.113783727225382,72.77875470307481 30.414975946361665,72.79611799040867 31.032419995812234,72.86557112225273 31.67998326709494,72.91766095292405 32.312486927374266,72.93502422633173 32.97510980966035,73.02184056727856 33.68291152472375,73.17810987133998 34.27023635216756,73.33437903458253 34.88768040161813,73.49064805700618 35.249111064651515,73.57746411967673 35.58042250573635,73.64691693847999 36.09244927833788,73.78582249270403 36.649654883891344,73.94209110811062 37.28215854417067,74.11572273779893 37.88454298255965,74.27199105589534 38.532106253900565,74.4108961091988 39.134490692289546,74.54980105126742 39.72181551979156,74.67134278424783 40.35431918007089,74.77552134473808 40.97176322946325,74.91442599458969 41.55908805690706,75.00124134426005 42.20665132813156,75.08805665042019 42.80903576652054,75.20959800608398 43.411420205025934,75.27905017101148 44.0138046432985,75.40059139272489 44.63124869269086,75.52213252920774 45.23363313113805,75.67839957955584 45.805898347636685,75.7652145466418 46.07697134488262,75.9041184035159 46.33298473112518,76.0951110250171 46.54381928470684,76.44236979780544 46.995607613469474,76.87644228560384 47.613051662861835,77.15424810742843 48.14013804640854,77.27578801452182 48.78770131774945,77.41469066115678 49.35996653418988,77.4667791248794 50.03764902736293,77.58831881287915 50.71533152059419,77.67513282354048 51.39301401382545,77.84876071444887 51.965279230324086,77.93557459468138 52.537544446764514,78.02238843149098 53.124869274150115,78.10920222479035 53.69713449070696,78.19601597462315 54.344697761989664,78.3522806148103 54.87178414553637,78.42173152074974 55.48922819492873,78.50854511409125 56.04643380042398,78.61272136867046 56.63375862786779,78.80371100627235 57.10060656769201,78.94261242871289 57.61263334035175,79.13360170286614 58.169838945847005,79.2030522958521 58.68186571850674,79.27250286102935 59.19389249110827,79.32459076662781 59.751098096661735,79.35931602834899 60.278184480266646,79.49821700567554 60.85044969676528,79.58503005997045 61.377536080311984,79.70656826294726 62.02509935159469,79.81074379773054 62.56724534614477,79.94964441334014 63.109391340753064,80.05381980206585 63.66659694630653,80.07118236077076 64.23886216268875,80.00173211550282 64.58523321477696,80.36634559258528 64.58523321477696,81.04348287278845 64.55511399288662,81.77270467854396 64.43463710520882,82.34566251718206 64.31416021758923,82.88389391357487 64.79606776824221,83.16169010958401 64.9767830997589,83.52629694146162 65.29303492995678,83.90826518098766 66.03095586702693,83.97771386142995 66.57310186151881,83.94298952468671 67.175486299966,83.90826518098766 67.80798996030353,83.89090300655516 68.33507634385023,83.90826518098766 68.87722233845852,83.94298952468671 69.4193683329504,83.97771386142995 69.84103743988089,83.97771386142995 70.127170048072,83.97771386142995 70.45848148921505,83.97771386142995 70.85003137413878,84.01243819121737 71.48253503459273,84.11661113884475 72.06985986197833,84.22078402382613 72.64212507847697,84.30759471355123 73.18427107302705,84.3944053597952 73.84689395525493,84.4812159625726 74.5095168374828,84.46385384553287 75.11190127587179,84.44649172670324 75.71428571431898,84.44649172670324 76.25643170886906,84.46385384553287 76.93411420210032,84.42912960611284 77.4762601966504,84.44649172670324 78.063585024036,84.44649172670324 78.60573101864429,84.41176748383441 79.20811545703327,84.42912960611284 79.75026145158336,84.41176748383441 80.36770550103392,84.42912960611284 80.92491110652918,84.4812159625726 81.51223593391478,84.4812159625726 82.05438192846486,84.42912960611284 82.6266471449635,84.41176748383441 83.19891236152034,84.37704323403887 83.78623718890594,84.37704323403887 84.02719096426154,84.13397329067811 84.07236979709705,83.76936773670604 84.3434427944012,83.61310797883198 84.64463501359569,83.42212363916042 84.94582723284839,83.3005880407145 85.2921982849366,83.196414602804 85.62350972602144,83.16169010958401 85.92470194521593,83.0922411023057 85.96988077810965,82.744995648638 85.92470194521593,82.51928573081386 85.2319598410395,82.43247414572397 84.64463501359569,82.32830018622917 84.07236979709705,82.27621318303864 83.50010458071483,82.13731443132565 82.85254130943213,81.96369083513855 82.28027609287528,81.70325511493138 81.75318970938679,81.46018142307003 81.15080527088139,81.39073173423822 80.51830161054386,81.47754384095606 79.97615561605198,81.65116792391927 79.41895001049852,81.92896609503077 78.80150596110616,82.18940147623653 78.3045387993916,82.2414885055623 77.70215436106082,82.20676382104284 77.19012758840108,82.22412616417569 76.57268353900872,82.20676382104284 76.03053754451685,82.18940147623653 75.45827232796,82.18940147623653 74.90106672246475,82.11995207949076 74.67517255805433,81.89424134802539 74.41915917169536,81.75534229027107 73.8619535662001,81.72061750844296 73.12403262918815,81.70325511493138 72.58188663457986,81.63380552345188 71.97950219619088,81.52963108409313 71.437356201699,81.42545658213203 70.80485254130326,81.26919471182919 70.26270654675318,81.16502005339134 69.7205605522613,80.90458313350973 69.2988914452726,80.47052073088707 68.90734156034887,80.05381980206585 68.47061284253141,79.758656038146 67.80798996030353,79.56766745258938 67.26584396569524,79.46349177177763 66.6935787491966,79.32459076662781 66.1664923656499,79.39404128311435 65.53398870525416,79.6371178716654 64.99184271076228,79.86283154162811 64.41957749420544,80.01909467943187 63.877431499713566,80.0885449177149 63.21480861748569,80.0885449177149 62.62748378998367,80.00173211550282 61.94980129681062,79.8281063807517 61.452834135096055,79.70656826294726 60.88056891859742,79.58503005997045 60.20288642542437,79.46349177177763 59.61556159798056,79.41140390785586 59.01317715959158,79.28986549795081 58.44091194309294,79.27250286102935 57.868646726652514,79.27250286102935 57.43191800877685,79.22041493975848 57.040368123794906,79.06415108204237 56.70905668271007,79.02942576125497 56.37774524156703,78.9947004334681 56.061493411427364,78.9599750986672 55.474168583983555,78.87316173143336 54.90190336748492,78.80371100627235 54.329638150986284,78.7168975607783 53.68207487970358,78.63008407177404 53.124869274150115,78.50854511409125 52.46224639198044,78.42173152074974 51.88998117548181,78.33491788395622 51.212298682308756,78.21337871938886 50.60991424386157,78.05711395404069 50.03764902736293,77.97030013460608 49.39008575613843,77.84876071444887 48.71240326290717,77.70985841564834 48.15519765735371,77.58831881287915 47.55281321896473,77.51886757304601 46.995607613469474,77.29315085143025 46.52875967370346,76.84171652661462 46.28780589840608,76.52918438229244 46.06191173393745,76.28610343612672 45.62518301606178,76.11247398021806 45.05291779956315,75.97357029022533 44.46559297217755,75.9041184035159 43.87826814467553,75.78257753481739 43.245764484396204,75.67839957955584 42.61326082405867,75.57422156166285 42.04099560761824,75.47004348119663 41.34825350350002,75.33113927647355 40.80610750889173,75.24432409204019 40.233842292334884,75.15750886405294 39.75193474168191,75.05333053314826 39.39050407864852,74.96651520959858 39.70675590878818,74.8970629194664 39.85735201841453,74.61925348057412 39.76699435262708,74.39353298365313 40.02300773898605,73.90736476129678 40.188663459557574,73.33437903458253 40.38443840196123,72.69193824040121 40.58021334448131,72.08422178428737 40.775988286943175,71.5112300314795 40.95670361851808,70.90350943616068 41.10729972802801,70.39996790030273 41.28801505960291,69.80960699553543 41.46873039111961,69.2366077239858 41.72474377742037,69.28869864511944 41.84522066509817,69.58388023587759 41.80004183220444,69.89642490174447 41.7096841664752,70.20896900407388 41.61932650068775,70.52151254286582 41.49884961300995,70.88614595925901 41.43861116922926,71.19868827717437 41.34825350350002,71.4938666154776 41.25789583771257,71.77168106303725 41.10729972802801,72.15367520140717 40.97176322946325,72.44885191359208 40.926584396569524,72.77875470307481 40.67057101021055,73.3864687243913 40.474796067748684,73.78582249270403 40.03806734987302,74.16781219284167 39.510980966326315,74.46298547550396 38.893536916933954,74.34144359645143 38.32127170043532,74.20253848747234 37.76406609494006,74.0636332671711 37.19180087844143,73.90736476129678 36.60447605099762,73.75109611455991 36.01715122361202,73.59482732697506 35.459945618058555,73.47328483923047 34.91779962350847,73.33437903458253 34.30035557411611,73.16074662229221 33.75820957956603,73.00447730254382 33.21606358495774,72.86557112225273 32.70403681235621,72.7266648306977 32.11671198485419,72.7266648306977 31.57456599030411,72.70930153643712 30.911943108134437,72.65721164316346 30.294499058742076,72.63984834190342 29.72223384224344,72.58775842783507 29.149968625803012,72.55303180968622 28.622882242139895,72.5356684980361 28.035557414754294,72.51830518461065 27.704245973553043,72.48357855262293 27.40305375441676,72.43148859150824 26.785609705082607,72.43148859150824 26.183225266635418,72.41412526770728 25.610960050136782,72.39676194208732 24.93327755696373,72.27521861436253 24.361012340465095,72.13631184975384 23.758627902076114,71.85849798655545 23.156243463687133,71.68486409597972 22.614097469078843,71.45913977823511 22.071951474586967,71.19868827717437 21.54486509092385,70.86878248066932 21.002719096431974,70.52151254286582 20.535871156665962,70.22633254877292 19.948546329163946,69.98324276447238 19.63229449908249,69.86169774447626 19.255804225045722,69.74015263924957 18.92449278390268,69.65333465473668 18.623300564708188,69.58388023587759 18.081154570158105,69.46233493587351 17.49382974265609,69.32342591717315 16.90650491521228,69.201880434528 16.334239698771853,69.04560754590784 15.746914871328045,68.90669819331379 15.144530432880856,68.75042503856821 14.602384438388981,68.61151544938912 14.0,68.40315085691691 14.240953775297385,67.81278315138479 14.466847939707804,67.23977727907186 14.5873248273856,66.70149730984122 14.768040158902295,66.16321566901752 14.948755490477197,65.59020434350532 15.09935159998713,65.06928331289964 15.340305375459138,64.53099660323642 15.521020706859417,63.97534405264014 15.731855260382872,63.45441816869425 15.942689813731704,62.81194075553503 16.09328592341626,62.256282693866524 16.22882242203923,61.90899550073664 16.37941853160737,61.61380083941913 16.560133863124065,61.3186056753766 16.89144530426711,60.79767180635827 17.237816356355324,60.24200728695723 17.4335912988754,59.84262231324101 17.629366241279058,59.51269490162667 17.855260405747686,59.217496158904396 18.005856515315827,58.90493223613885 18.2016314578359,58.627097164979205 18.623300564708188,58.071425686299335 19.060029282525647,57.53311724239029 19.52687722229166,57.08163145180151 20.174440493574366,57.37683383264812 20.73164609912783,57.56784686993342 21.25873248273274,57.72413010748278 21.785818866279442,57.880413204053184 22.373143693781458,58.08879044701462 22.794812800653744,58.21034372301074 23.33695879514562,58.34926164832723 24.01464128831867,58.557638327547465 24.617025726824068,58.870202876627445 25.129052499483805,58.54027361389308 25.475423551455606,58.0366961597756 25.671198494033888,57.55048205703497 25.279648609051947,57.342104166862555" stroke="#4DD2FF" stroke-linecap="round" stroke-linejoin="round" stroke-width="0.5"><title>2026-01-02 13.3km</title><desc>9223370269494935807</desc></polyline><polyline fill="none" points="125.64262859959854,53.204925668032956 125.05783903528936,53.26622668490745 124.36672409548191,53.429695973114576 123.71105094760424,53.40926231928461 123.05537779966835,53.204925668032956 122.71868077776162,53.1640583131375 122.09844942163909,53.04145619957126 121.69086881616386,53.22535934236657 121.31873000244377,53.75663415649615 120.85798670939403,54.144872568547726 120.39724341616966,54.57397732186655 120.00738370674662,55.04394815863634 119.61752399703255,55.49348446728254 119.26310607930645,56.04518676445878 118.90868816146394,56.51515421070508 118.50110755604692,57.12815360004606 118.12896874232683,57.659418247058056 117.79227172047831,58.21111468486197 117.47329559444916,58.7219433891878 117.15431946842,59.253203884436516 116.83534334233264,59.76402997855621 116.53408811223926,60.29528775923245 116.2859955697786,60.82654415606521 116.12650750682224,61.41909773540101 115.91385675611673,62.0933807487454 115.75436869310215,62.645065192496986 115.54171794245485,63.25804615748348 115.32906719174935,63.871025280313916 115.13413733697962,64.56573272580863 114.9392074822099,65.2195728658553 114.7088358355686,65.91427571805252 114.49618508503772,66.48638217270491 114.28353433427401,67.18108071017195 114.12404627125943,67.77361582840967 114.24809254251886,68.38658138064784 114.72655673150439,68.73392770929786 115.31134629587177,68.8565203899052 115.87841496436158,69.01997718283383 116.44548363279318,69.16300176916411 117.0834358848515,69.30602625524625 117.66822544916067,69.44905064099294 118.25301501352806,69.59207492647693 118.82008368201787,69.73509911172732 119.54664041358046,69.91898720244353 120.11370908195386,70.04157917086559 120.8048240217613,70.22546698532824 121.33645089837955,70.45021853341314 121.90351956686936,70.77712943406368 122.39970465173246,71.08360792759049 122.91361063258955,71.4309496635251 123.56928378046723,71.79872262167919 124.08318976132432,72.04390422542929 124.7388629092602,72.26865376990463 125.25276889005909,72.49340306679369 125.81983755849069,72.71815211612557 126.35146443516714,72.9224692187272 127.0248584789806,73.06549106880266 127.5919271474122,73.12678611672891 128.26532119128387,73.16764947173942 128.85011075565126,73.20851281860087 129.5235047994065,73.22894448897569 130.21461973915575,73.26980782355531 130.72852571995463,73.29023948776012 131.38419886789052,73.33110281004338 131.93354664038634,73.37196612417756 132.6246615801938,73.37196612417756 133.17400935274782,73.43326107991743 133.81196160474792,73.47412437363528 134.36130937730195,73.4945560174092 134.9638198375469,73.53541929878702 135.42456313065486,73.53541929878702 135.81442284025252,73.55585093630361 136.13339896628167,73.61714583692083 136.52325867587933,73.67844071904256 137.10804824024672,73.84189364807389 137.71055870049167,74.00534644607978 138.2599064730457,74.14836753698182 138.8269751415355,74.29138852753385 139.53581097716233,74.47527251094289 140.08515874971636,74.61829327230225 140.72311100177467,74.78174544818467 141.25473787845112,74.90433449421835 141.80408565100515,75.04735495477507 142.44203790300526,75.21080678686849 143.09771105099935,75.37425848811108 143.66477971943095,75.49684717801574 144.2850110756117,75.6194357942295 144.97612601524452,75.72159291822754 145.61407826730283,75.84418139944319 146.16342603991507,75.94633841082396 146.46468127006665,76.00763259307132 146.76593650016002,76.06892675698327 147.12035441794433,76.10978952267033 147.51021412748378,76.150652280121 147.98867831658572,76.2732405035058 148.59118877683068,76.3753973000712 149.19369923707563,76.49798538834148 149.88481417670846,76.62057340300817 150.52276642870856,76.72273002561997 151.01895151368808,76.76359266032523 151.40881122328574,76.86574921129795 151.76322914107004,77.04963087411306 151.99360078759491,77.23351237121096 152.27713512186892,77.64213732689677 152.73787841497688,78.11205501410586 153.3049470834667,78.43895363630145 153.90745754365344,78.62283388109063 154.52768889983417,78.72498950100271 155.11247846420156,78.8067139601917 155.76815161219565,78.92930058744969 156.35294117650483,79.0110249647405 156.95545163674979,79.1131803902681 157.5047994093038,79.19490469391167 157.85921732708812,79.25619790008932 158.1604725571815,79.2970600273693 158.46172778733307,79.337922146442 158.76298301742645,79.39921530967695 159.11740093526896,79.48093949870963 159.41865616536234,79.52180158095143 159.7376322914497,79.58309468894731 160.07432931329822,79.62395675077278 160.41102633520495,79.70568084971455 160.69456066947896,79.74654288696183 161.0312576913857,79.78740491600183 161.33251292147906,79.8282669368491 161.68693083920516,79.90999095400912 162.00590696529252,79.9508529502782 162.28944129956653,80.01214592940232 162.62613832147326,80.05300790525507 163.28181146940915,80.15516280902375 163.91976372135105,80.35947246312571 164.6108786611003,80.5637819126423 165.14250553777674,80.70679840554658 165.7450159980217,80.84981479820271 166.29436377057573,80.93153840613377 166.89687423082069,80.99283109059616 167.51710558700142,81.09498552377045 168.1018951513688,81.15627815912012 168.6866847157362,81.25843251048354 169.2537533841678,81.3810176646075 169.8208220525994,81.4831719033973 170.38789072114741,81.60575692245038 170.9726802855148,81.72834186781256 171.52202805806883,81.83049593269243 172.05365493474528,81.91221914779453 172.67388629092602,81.91221914779453 173.24095495935762,81.81006512383465 173.41816391824977,82.25954244668537 173.38272212655284,82.85203376843128 173.4713266059407,83.46495401464927 173.40044302248862,84.13916415872518 173.24095495935762,84.6703584606148 173.22323406348005,85.2219818487356 173.79030273202807,85.58972994564101 173.98523258673958,86.14135084806185 174.39281319221482,86.48866694739263 175.06620723597007,86.54995796241565 175.6332759045181,86.52952762608766 176.23578636476304,86.48866694739263 176.80285503319465,86.48866694739263 177.42308638937538,86.48866694739263 178.0610386414337,86.48866694739263 178.66354910167865,86.5090972877806 179.24833866604604,86.52952762608766 179.8508491262328,86.54995796241565 180.45335958653595,86.57038829661906 180.82549840019783,86.57038829661906 181.16219542210456,86.63167928703479 181.46345065225614,86.67253993709164 181.80014767410466,86.75426121268538 182.10140290419804,86.7951218382077 182.36721634259447,86.8359824555373 182.703913364443,86.87684306464507 183.0583312822273,86.91770366558922 183.3418656165013,86.95856425842794 183.67856263840804,86.99942484297208 183.96209697262384,87.01985513221007 184.24563130695606,87.06071570451604 184.58232832880458,87.08114598771499 184.88358355889795,87.06071570451604 185.20255968498532,87.08114598771499 185.37976864381926,86.91770366558922 185.41521043569082,86.30479379197641 185.45065222738776,85.71231249730045 185.87595372874057,85.2832732442912 186.0,84.60906688099203 185.55697760276962,84.32303926591703 184.86586266302038,84.30260870659549 184.31651489040814,84.09830300133035 184.15702682745177,83.83270527853165 183.66084174247226,83.73055221619143 183.11149396991823,83.66926035423239 182.52670440560905,83.60796847380698 181.88875215360895,83.46495401464927 181.32168348511914,83.34237011270307 180.87866108777234,83.24021680481383 180.59512675361475,83.17892479554575 180.31159241945716,83.11763276788406 179.9926162933698,82.99504865724884 179.70908195909578,82.83160306181526 179.44326852081576,82.62729588344519 179.1951759782969,82.38212699926225 178.96480433177203,82.15738859667908 178.73443268518895,81.93264994648052 178.38001476740465,81.58532609103713 177.79522520303726,81.36058681065333 177.17499384691473,81.19713990583841 176.4838789072237,81.05412375662127 175.84592665516539,80.97240019784658 175.10164902784163,81.11541640429641 174.49913856759667,81.34015595473466 173.93206989910686,81.56489525757206 173.31183854292613,81.76920349993452 172.67388629092602,81.81006512383465 172.0359340388677,81.81006512383465 171.34481909917668,81.70791104866657 170.7600295348675,81.60575692245038 170.13979817868676,81.46274105968769 169.50184592668666,81.34015595473466 168.88161457050592,81.19713990583841 168.26138321432518,81.09498552377045 167.676593650016,80.99283109059616 166.98547871032497,80.91110750721418 166.40068914595759,80.84981479820271 165.76273689395748,80.80895298195537 165.16022643371252,80.72722932489705 164.57543686928693,80.62507470756827 164.00836820085533,80.54335097687726 163.44129953242373,80.46162721342989 162.76790548855206,80.37990341731347 162.18311592418468,80.27774862601655 161.75781442283187,80.21645572670968 161.40339650504757,80.1755937836715 161.0844203790184,80.13473183233873 160.7300024611759,80.0734388900164 160.42874723114073,80.0325769183255 160.10977110516978,79.99171493838367 159.80851587496,79.9712839453714 159.48953974898905,79.90999095400912 159.17056362290168,79.84869794419501 158.90475018456345,79.78740491600183 158.53261137095978,79.70568084971455 158.19591434893664,79.66481880433275 157.93010091071483,79.60352572088595 157.5934038887499,79.54223261898733 157.27442776272073,79.50137054087827 156.97317253268557,79.44007740828965 156.67191730253398,79.39921530967695 156.3706620724406,79.3174910878879 155.92763967515202,79.2357668334298 155.2896874230937,79.13361146923853 154.6517351710354,79.0110249647405 153.99606202321593,78.88843838652247 153.3758306670352,78.76585173465719 152.7910411026678,78.52067820999946 152.2948560176883,78.07119264945504 151.92271720408462,77.60127486815327 151.39109032734996,77.19264983062749 150.80630076298257,77.04963087411306 150.16834851092426,76.92704311729176 149.54811715485994,76.82488659702358 148.96332759043435,76.72273002561997 148.39625892200274,76.62057340300817 147.75830666994443,76.51841672926093 147.12035441794433,76.39582865321427 146.53556485351874,76.31410322821466 145.9153334973962,76.19151502943714 145.47231110022403,76.10978952267033 144.90524243167602,76.04849537105474 144.58626630570507,76.00763259307132 144.3381737632444,75.94633841082396 144.0546394290286,75.9054756123951 143.89515136607224,75.84418139944319 144.21412749198498,75.76245575347275 144.47994093038142,75.63986722314439 143.94831405364675,75.19037531504 143.31036180164665,75.0677864409081 142.65468865371076,74.924765994685 141.92813192226458,74.74088241653226 141.32562146201963,74.57743020784983 140.7053901058971,74.41397786824382 140.06743785378058,74.25052539761236 139.64213635248598,74.16879911317665 139.23455574701075,74.04620962518675 138.93330051691737,73.98491485351406 138.59660349495243,73.8623252549587 138.2599064730457,73.8010304281488 137.92320945119718,73.69887234229827 137.51562884572195,73.59671420544328 136.87767659366364,73.43326107991743 136.29288702929625,73.29023948776012 135.67265567317372,73.22894448897569 134.9815407334827,73.18808114621788 134.2549840019783,73.14721779526735 133.63475264591398,73.1063544361241 132.8904750184738,73.06549106880266 132.19936007878277,73.04505938205693 131.50824513909174,73.00419600249734 130.888013782911,72.96333261471591 130.23234063503332,72.9224692187272 129.59438838303322,72.90203751764784 128.97415702685248,72.86117410943552 128.47797194198938,72.84074240224436 128.1058331283275,72.82031069297227 127.73369431466563,72.79987898169202 127.41471818857826,72.77944726838905 126.90081220777938,72.71815211612557 126.28058085165685,72.55469828665082 125.67807039135369,72.32994905728265 125.09328082704451,72.0643360124086 124.4553285750444,71.83958624278603 123.8882599065546,71.59440439348691 123.37435392575571,71.32879039082036 122.84272704896284,71.0631760423712 122.45286733942339,70.81799325979955 121.92124046280514,70.47065048002696 121.37189269019291,70.16417106555309 120.98203298053704,70.04157917086559 120.62761506275274,69.91898720244353 120.32635983271757,69.83725918261916 120.06054639432114,69.73509911172732 119.74157026835019,69.67380304459948 119.4403150381986,69.53077881636273 119.13905980810523,69.46948268795677 118.82008368201787,69.38775448795059 118.53654934780207,69.30602625524625 118.18213143007597,69.2242979897419 117.84543440805282,69.16300176916411 117.5087373862043,69.06084136059508 117.20748215611093,68.9791129968362 116.88850603002356,68.89738460042281 116.55180900817504,68.81565617119486 116.25055377808167,68.75435982782801 115.91385675611673,68.65219921458629 115.61260152602335,68.59090282201942 115.08097464928869,68.44787783453648 114.4430223973468,68.3048527467763 114.01772089593578,67.97793788379931 114.28353433427401,67.38540335919242 114.46074329310795,66.79286711318127 114.69111493974924,66.17989677155856 114.92148658633232,65.50562726802309 115.08097464928869,64.93351806244755 115.27590450405842,64.32054213286028 115.45311346306698,63.78929483704269 115.66576421359787,63.17631546861958 115.8606940684258,62.60419972924865 116.05562392331194,61.991216799098765 116.19739109039074,61.43953058672196 116.41004184109624,60.846977066772524 116.74673886294477,60.213555883121444 116.94166871771449,59.74359695936437 117.13659857248422,59.41666837372759 117.33152842731215,59.08973926404724 117.5087373862043,58.82410897650698 117.6505045532831,58.497178916906705 117.84543440805282,58.23154785759107 118.00492247112561,57.96591645227454 118.21757322183112,57.659418247058056 118.50110755604692,57.25075325681246 118.97957174509065,56.637754235984175 119.40487324632704,56.065620154186036 119.77701206010533,55.55478479615704 120.11370908195386,55.084815136753605 120.57445237506181,54.900913670819136 121.21240462723654,55.146115588460816 121.60226433671778,55.268716436767136 121.95668225456029,55.39131721138256 122.24021658871789,55.47305102019163 122.5946345065604,55.57521823506977 122.91361063258955,55.69781882537063 123.19714496674715,55.759119092923356 123.48067930107936,55.84085275430698 123.99458528187824,56.02475337263604 124.4553285750444,56.16778707221965 124.56165395025164,55.98388658287877 124.61481663800078,55.57521823506977 124.75658380507957,55.22784949556808 125.09328082704451,55.28914990436169 125.34137336938875,54.941780677530915 125.64262859959854,54.49224315278116 125.99704651738284,54.390075395276654 126.20969726803014,54.512676698112045" stroke="#4DD2FF" stroke-linecap="round" stroke-linejoin="round" stroke-width="0.5"><title>2025-12-28 11.0km</title><desc>9223370269926779807</desc></polyline><polyline fill="none" points="26.9161046667723,133.98801158054266 26.25573239813093,133.78644675989926 25.614782843156718,133.54008951004653 25.01267871586606,133.36092043049575 24.449420016026124,133.20414736807288 24.080388454254717,133.15935504437948 23.614243323449045,133.4281088521966 23.225789047661237,133.8088428600313 22.856757485773414,134.27916044498852 22.448880496318452,134.68228901582188 22.021580792963505,135.10781282949029 21.633126517292112,135.55573175822792 21.264094955520704,136.00364978933067 20.836795252165757,136.54115024181374 20.467763690277934,137.01146207739657 20.07930941460654,137.50416865333682 19.71027785271872,137.99687414318032 19.380091718398035,138.55676542692527 19.011060156393796,139.02707302146882 18.73914216342382,139.49737962651125 18.389533315319568,140.01247620135837 18.098192608566023,140.5275715891912 17.748583760345355,141.06506116324454 17.45724305359181,141.58015412553505 17.24359320208896,142.05045535889803 16.89398435386829,142.63273170540924 16.641489074681886,143.23740169068333 16.505530078196898,143.70769943734922 16.33072565414477,144.17799619449943 16.253034798894078,144.71547699114308 16.175343943876214,144.96182192434208 15.981116806040518,145.40972110744042 15.84515780955553,145.9695938243094 15.650930671603419,146.4846754854516 15.456703533767723,147.0445455100853 15.301321823499165,147.5820194146072 15.06824925809633,148.2762546287122 14.874022120260634,148.79133097504382 14.699217696208507,149.37358976360701 14.52441327215638,149.93345255321765 14.388454275671393,150.51570836709288 14.582681413507089,151.1203570302605 14.912867547827773,151.47866657747363 15.514971675234847,151.61303250966012 16.078230374958366,151.74739836108347 16.563798219547607,151.8817641317437 17.049366064136848,152.01612982158258 17.593202050076798,152.15049543071655 18.137038036016747,152.30725520598935 18.680874022073112,152.44162064016564 19.2635554355802,152.57598599350604 19.80739142152015,152.71035126618517 20.370650121360086,152.86711064889096 20.914486107300036,152.97908156922495 21.43889937957283,153.0910524335195 22.00215807929635,153.29259984781675 22.46830321010202,153.5165412062488 23.01213919604197,153.87484691310965 23.517129754414782,154.21075799177925 24.002697599004023,154.50188051833538 24.527110871276818,154.8153966615355 24.97383328829892,155.03933649459213 25.55651470180601,155.28567005194782 26.080927974078804,155.50960941397352 26.721877528936602,155.77833635231946 27.207445373525843,155.97988134413026 27.770704073365778,156.15903229541436 28.333962773089297,156.29339541470108 28.877798759029247,156.38297078269534 29.57701645535417,156.42775845322467 30.082007013610564,156.47254611479002 30.703533854801208,156.49493994223303 31.266792554524727,156.5397275902942 31.830051254364662,156.56212141101423 32.39330995408818,156.5845152294496 32.89830051257741,156.60690904565854 33.46155921218451,156.65169667135342 34.024817912024446,156.6740904807957 34.588076611747965,156.71887809301552 35.20960345282219,156.74127189574938 35.73401672509499,156.7636656962859 36.31669813860208,156.78605949452322 36.8799568383256,156.8308470842312 37.579174534534104,156.85324087586196 38.16185594815761,156.89802845219674 38.70569193409756,156.98760357788706 39.26895063382108,157.0995724345994 39.7739411923103,157.23393498871883 40.39546803338453,157.3906911996164 40.88103587809019,157.52505357871996 41.44429457769729,157.65941587707493 42.00755327753723,157.81617178976012 42.551389263477176,157.95053391311376 43.19233881845139,158.10728962172288 43.697329376707785,158.21925791770627 44.20231993519701,158.37601343785354 44.76557863492053,158.53276884810475 45.328837334760465,158.5999497045559 45.833827893133275,158.73431135693681 46.338818451506086,158.8686729285837 46.940922578796744,159.00303441946744 47.44591313728597,159.1150022669026 48.0674399783602,159.22697005813825 48.708389533217996,159.3389377934509 49.252225519157946,159.45090547262225 49.87375236034859,159.54047957558942 50.3787429187214,159.63005364270066 51.0196924735792,159.71962767391233 51.62179660098627,159.83159516238084 52.14620987314265,159.92116911293124 52.74831400043331,160.03313650051132 53.29214998637326,160.12271037018218 53.933099541347474,160.23467765691748 54.51578095485456,160.3466448875115 55.04019422712736,160.41382519896433 55.62287564051803,160.63775942471693 56.01132991630584,160.99605371938378 56.36093876441009,161.46631410984264 56.749393040081486,161.8693936572963 57.19611545722,162.13811295195774 57.77879687061068,162.33965221098333 58.26436471543275,162.42922515670944 58.82762341503985,162.51879806647776 59.33261397341266,162.60837094041926 59.87644995935261,162.69794377847575 60.497976800543256,162.80990977556212 61.00296735891607,162.89948253288458 61.64391691389028,163.01144842915528 62.18775289983023,163.1010211056564 62.80927974090446,163.21298690089316 63.41138386819512,163.30255949677667 64.01348799560219,163.41452519111044 64.53790126787499,163.50409770621627 65.06231454003137,163.5712770689861 65.72268680867273,163.68324262877286 66.22767736704554,163.77281503628183 66.79093606676906,163.86238740781846 67.41246290784329,163.95195974352828 67.93687618011609,164.04153204336762 68.50013487995602,164.19828348168812 69.00512543821242,164.3326417699136 69.56838413793594,164.46699997746327 70.05395198264159,164.60135810426436 70.5589425410144,164.8476811269793 71.08335581317078,164.87007411560626 71.58834637166001,164.93725306801207 72.1710277851671,165.00443200016161 72.44294577813707,165.04921794381517 72.7537091987906,165.04921794381517 73.06447261932772,165.09400387844653 73.5111950362334,165.18357572071545 74.05503102228977,165.2731475271721 74.63771243591327,165.38511223475507 75.25923927687109,165.5194698098785 75.74480712157674,165.60904148172995 76.26922039373312,165.74339892233547 76.81305637978949,165.83297050451802 77.35689236561302,165.94493493184564 77.86188292410225,166.01211356128624 78.34745076869149,166.03450643326505 78.910709468415,165.98972068706644 79.33800917176995,165.90014916760265 79.6293498785235,165.83297050451802 79.92069058516063,165.69861311781278 80.19260857824702,165.60904148172995 80.48394928500056,165.5194698098785 80.75586727797054,165.42989810211293 81.22201240889262,165.25075457895582 81.72700296726543,165.09400387844653 82.29026166710537,165.09400387844653 82.83409765304532,165.20596867574204 83.39735635276884,165.31793341693992 83.9994604800595,165.4746839604777 84.54329646599945,165.653827304297 85.02886431058869,165.92254205084464 85.4173185863765,166.34800640580943 85.74750472069718,166.70629155056668 86.0,166.77346995126572 85.74750472069718,166.52714904994355 85.53385486907791,166.3256135652191 85.30078230355866,166.12407789885765 85.10655516572297,165.90014916760265 84.87348260043655,165.60904148172995 84.36849204194732,165.42989810211293 83.82465605600737,165.29554047317652 83.280820069951,165.16118276353518 82.63987051520962,165.04921794381517 82.11545724293683,164.95964604764595 81.55219854321331,165.02682497311616 80.98893984337337,165.25075457895582 80.48394928500056,165.42989810211293 79.99838144041132,165.653827304297 79.47396816825494,165.7881847179524 78.94955489609856,165.83297050451802 78.26975991355721,165.87775628217787 77.74534664140083,165.87775628217787 77.16266522777732,165.7881847179524 76.67709738318808,165.69861311781278 76.15268411091529,165.58664856715768 75.55057998362463,165.4746839604777 75.00674399768468,165.34032635849144 74.44348529796116,165.22836162844033 73.86080388445407,165.1387898040266 73.18100890191272,165.02682497311616 72.63717291597277,164.95964604764595 72.05449150234926,164.87007411560626 71.51065551640932,164.8252881361259 70.92797410301864,164.75810915013426 70.32586997561157,164.71332314821484 69.72376584832091,164.62375111751317 69.17992986226454,164.53417905091192 68.53898030740675,164.4446069484984 67.9951443214668,164.37742784811417 67.37361748039257,164.28785568285093 66.81035878055263,164.19828348168812 66.20825465326197,164.10871124459663 65.62557323963847,164.01913897173654 65.12058268138207,163.95195974352828 64.5767466952093,163.86238740781846 64.01348799560219,163.77281503628183 63.37253844062798,163.66084952131496 62.82870245468803,163.5712770689861 62.30428918253165,163.45931145314535 61.68276234145742,163.34734578123607 61.158349069184624,163.25777320333873 60.517399514326826,163.14580743051192 59.99298624205403,163.05623477185145 59.39088211476337,162.9666620773205 58.86646884260699,162.8770893469773 58.32263285666704,162.76512338344764 57.7011060154764,162.63076415326213 57.15727002953645,162.4740116160392 56.594011329929344,162.13811295195774 56.205557054141536,161.73503388892277 55.81710277835373,161.2423807139421 55.409225788898766,160.9064801995264 54.884812516742386,160.74972645349044 54.32155381701887,160.66015283494198 53.75829511729535,160.525792339904 53.23388184513897,160.4586120620661 52.6900458590826,160.36903832694225 52.16563258692622,160.2794645558606 51.505260318284854,160.14510383205197 51.000269759912044,160.0555299713451 50.32047477737069,159.94356259489723 49.79606150521431,159.87638214215985 49.271648232941516,159.78680817375425 48.708389533217996,159.67484066271572 48.183976261061616,159.5852666136343 47.5430267060874,159.45090547262225 46.979768006363884,159.36133133375552 46.397086592856795,159.27175715903286 45.93094146205112,159.18218294839608 45.63960075529758,159.1150022669026 45.367682762327604,159.0702151345904 45.07634205557406,159.00303441946744 44.7850013487041,158.91346010116104 44.454815214383416,158.84627933890442 43.87213380087633,158.66713054086722 43.27002967346925,158.5103752248251 42.70677097362932,158.37601343785354 42.00755327753723,158.17447060593986 41.38602643634658,158.0177149444935 40.803345022839494,157.8609591731365 40.10412732663099,157.68180958558514 39.57971405447461,157.54744730070524 38.95818721328396,157.3906911996164 38.414351227344014,157.27872248871427 37.812247100053355,157.25632873977884 37.210142972762696,157.23393498871883 36.58861613157205,157.1891474796139 36.0447801456321,157.1667537217436 35.48152144579217,157.14435996157408 34.8211491771508,157.12196619916358 34.19962233607657,157.0995724345994 33.63636363623664,157.07717866775056 33.014836795278825,157.03239112731535 32.49042352300603,157.00999735374353 31.830051254364662,157.00999735374353 31.266792554524727,156.98760357788706 30.6452657134505,156.96520979977504 30.101429727394134,156.94281601956754 29.402212031302042,156.92042223697354 28.819530617678538,156.89802845219674 28.19800377660431,156.80845329054864 27.63474507688079,156.5845152294496 27.052063663257286,156.36057694407646 26.430536822299473,156.09185070550302 25.906123550026678,155.86791192668898 25.323442136403173,155.64397292349895 24.701915295328945,155.39763976096583 24.17750202305615,155.17370028677396 23.653088751016185,154.97215456822596 23.186943620094098,154.70342666088254 22.701375775504857,154.30033419416577 22.293498786049895,153.94202916925133 21.769085513893515,153.65090591364424 21.18640410027001,153.53893532972143 20.584299972979352,153.4045705551107 20.021041273255832,153.29259984781675 19.496628000983037,153.18062908449792 18.85567844612524,153.0462640945334 18.331265173852444,152.934293207858 17.806851901696064,152.79992806978407 17.146479633054696,152.68795705967932 16.602643647114746,152.68795705967932 16.000539519824088,152.68795705967932 15.456703533767723,152.6207744267158 14.951712975394912,152.5311975513614 14.369031561887823,152.19528394917143 14.01942271378357,151.8369755504973 14.097113568801433,151.25472317778622 14.388454275671393,150.69486369706283 14.640949554857798,150.0006359937397 14.835176692693494,149.44077337239287 15.009981116745621,148.8809093489108 15.204208254697733,148.25385997800913 15.398435392533429,147.71638768885168 15.612085244152695,147.0445455100853 15.767466954304837,146.52946513901406 15.942271378473379,145.94719894263835 16.13649851619266,145.40972110744042 16.33072565414477,144.80505699824425 16.563798219547607,144.17799619449943 16.777448071166873,143.61811899046006 16.97167520900257,143.08063555526314 17.185325060621835,142.49836037548084 17.554356622626074,141.87129310093587 17.806851901696064,141.3785961511894 18.078769894782454,140.90829350429703 18.467224170453846,140.3484081107017 18.75856487720739,139.83331230995827 19.147019152878784,139.27342422370566 19.477205287199467,138.8255127449811 19.826814135420136,138.31041343486868 20.21526841109153,137.8177086361393 20.545454545412213,137.4145857202966 20.89506339363288,136.92187894690142 21.244672241737135,136.4963585867954 21.788508227677085,136.5635460659396 22.351766927400604,136.72031677211635 22.895602913340554,136.92187894690142 23.458861613064073,137.10104517199215 24.002697599004023,137.2578155011288 24.546533585060388,137.4369814569509 25.109792284783907,137.61614726908738 25.634205557056703,137.79531293769833 26.178041542996652,137.97447846262367 26.702454815153033,138.10885251211585 27.013218235690147,138.1760395065794 27.304558942560107,138.31041343486868 27.65416779066436,138.44478728232207 27.945508497417904,138.5791610490851 28.275694631738588,138.71353473504132 28.586458052275702,138.7807215477951 28.897221472812817,138.91509511254844 29.20798489334993,138.95988628285704 29.402212031302042,138.60155666906212 29.518748313887045,138.22083082501194 29.61586188292131,137.840104332412 29.69355273793917,137.57135582956835 29.790666306973435,137.235419746532 29.46048017265275,137.03385785446153 29.130294038332067,136.83229578055034 28.80010790389497,136.6083377074683" stroke="#4DD2FF" stroke-linecap="round" stroke-linejoin="round" stroke-width="0.5"><title>2025-10-29 10.1km</title><desc>9223370275112361807</desc></polyline><polyline fill="none" points="127.53273203386925,131.74005547727575 126.42246144905221,130.5564393275563 125.79400640109088,130.3390398111951 125.2702938610455,130.16995116292674 124.5999418097781,130.09748456306988 124.03433226665948,130.50812834085082 123.59441373299342,130.9912377721339 123.19639220251702,131.4743462352344 122.77742217062041,131.98160907946294 122.31655513541773,132.51302615246095 121.89758510340471,132.94782106806815 121.43671806820203,133.28599434926582 121.1434390458744,133.72078787079954 120.64067500736564,134.2280459881149 120.36834448657464,134.83192330757447 120.03316846094094,135.33917908693547 119.61419842892792,135.82227883697487 119.2580739017576,136.42615216303966 118.88100087293424,136.8367851608491 118.60867035214324,137.4648107457615 118.21064882178325,137.92375148473366 117.89642129768617,138.55177423817804 117.60314227535855,139.03486755056656 117.33081175456755,139.51795989506354 117.05848123366013,140.02520581496356 116.78615071298555,140.5324506676261 116.57666569692083,141.08800332942337 116.43002618581522,141.61940032971324 116.30433517612983,142.2232591357315 116.0948501600651,142.8512706895708 115.86441664246377,143.3585095965973 115.71777713135816,143.93820989786764 115.57113762013614,144.51790880538465 115.46639511210378,145.02514420612715 115.29880709934514,145.62899448240933 115.04742508009076,146.13622754566313 114.85888856567908,146.69176729538594 114.69130055292044,147.36807482833683 114.50276403850876,147.8753042331955 114.16758801299147,148.5274547572044 114.10474250803236,149.1071426311537 114.29327902256045,149.51775403197098 114.71224905457348,149.95251828244363 115.2778585976921,150.14574658665515 115.8853651441168,150.26651419809787 116.45097468723543,150.45974225064856 116.97468722739723,150.53220273039187 117.56124527216889,150.7254305700626 118.08495781209785,150.82204443175578 118.67151585686952,151.0635789168009 119.29997090506367,151.1601926430012 119.8655804481823,151.25680633060983 120.473086994607,151.42588019066898 121.0805935410317,151.54664716096886 121.70904858899303,151.69156744545035 122.31655513541773,151.86064100073418 122.9031131801894,152.12632777648105 123.59441373299342,152.46447415875446 124.03433226665948,152.85092658632493 124.5999418097781,153.23737839455134 125.06080884498078,153.45475726450968 125.56357288337313,153.7445954529685 126.0872854234185,153.98612701054662 126.65289496653713,154.20350520552893 127.30229851626791,154.3725769994926 127.80506255466025,154.58995484610205 128.3078265930526,154.83148555691878 128.8524876346346,155.04886298984638 129.3971486762166,155.19378116959706 130.0046552226413,155.29039324106998 130.6750072739087,155.33869926226907 131.32441082340665,155.36285226923064 131.8900203667581,155.29039324106998 132.53942391625606,155.36285226923064 133.1678789643338,155.36285226923064 133.79633401229512,155.41115827593603 134.38289205706678,155.45946427294984 134.94850160030182,155.50777026028663 135.57695664837956,155.53192325030977 136.18446319480427,155.60438220595825 136.72912423638627,155.65268816427852 137.33663078269456,155.65268816427852 138.06982833868824,155.6285351862316 138.55164387554396,155.65268816427852 139.18009892350528,155.67684113977884 139.70381146355066,155.79760598108987 140.22752400359605,155.79760598108987 140.98167006112635,155.990829601491 141.50538260128815,156.11159428556857 142.13383764913306,156.28066474168736 142.7622926972108,156.47388797502208 143.26505673560314,156.61880529831978 143.80971777718514,156.73956966791593 144.37532732042018,156.90863968375197 144.96188536519185,157.02940390826552 145.50654640689027,157.19847372091317 146.05120744847227,157.29508498920768 146.78440500434954,157.41584902012255 147.24527203966863,157.5849185618281 147.85277858609334,157.7056824475876 148.35554262448568,157.85059903073125 148.94210066925734,157.9713627834717 149.48676171083935,158.16458466206677 150.073319755611,158.26119554330944 150.76462030853145,158.3578063858149 151.30928135011345,158.45441718965594 151.83299389015883,158.55102795477433 152.39860343327746,158.62348600318364 152.98516147816554,158.72009670060652 153.65551352931652,158.79255469828786 154.09543206298258,158.91331797928433 154.6610416061012,159.03408119975938 155.1428571428405,159.13069173273107 155.7503636892652,159.22730222693644 156.35787023568992,159.2756074595236 156.672097759787,159.32391268237552 156.96537678223103,159.4205230991647 157.23770730302203,159.46882829305832 157.5519348270027,159.5412860657234 157.90805935417302,159.56543865181447 158.18038987508044,159.66204897178977 158.47366889740806,159.7828118174366 158.7041024150094,159.97603224456543 158.93453593261074,160.16925251696375 159.16496945021208,160.43493013863917 159.35350596462376,160.67645499538048 159.7096304917941,161.03874182682193 160.3799825430615,161.401028113949 160.9455920861801,161.59424724460405 161.5321501310682,161.71500912262127 162.03491416946054,161.8599232964625 162.6214722142322,161.88407565026137 163.1661332558142,161.95653269730974 163.75269130070228,162.07729439389368 164.36019784701057,162.17390370766225 164.9258073902456,162.22220835005282 165.49141693348065,162.34296991360316 166.05702647659928,162.41542682272848 166.64358452148736,162.53618828952312 167.20919406460598,162.6327974195301 167.79575210961048,162.72940651069803 168.38231015426572,162.85016782027378 168.9060226943111,162.946776824494 169.49258073908277,163.01923355212784 169.9953447774751,163.1158424886089 170.56095432071015,163.23660360468784 171.16846086713485,163.33321245398838 171.7969159152126,163.42982126462448 172.36252545833122,163.50227784727758 172.94908350310288,163.55058222349908 173.45184754161164,163.71964746432786 173.99650858319364,163.86456043360522 174.54116962477565,164.03362545429263 175.00203665997833,164.1785382349044 175.54669770156033,164.34760303550866 176.11230724479537,164.44421143975342 176.71981379110366,164.51666771761666 177.24352633114904,164.61327605418046 177.8300843759207,164.63742813223507 178.45853942399845,164.75818848643394 179.00320046558045,164.8789487801696 179.63165551354177,164.9755569716217 180.13441955205053,165.09631715642172 180.63718359044287,165.2412292984809 181.32848414313048,165.36198935037828 181.81029968010262,165.45859734831902 182.37590922322124,165.53105332134874 182.96246726810932,165.57935729125165 183.5071283095749,165.555205307508 184.1146348559996,165.4827493417397 184.3031713704113,165.86918090778636 184.38696537690703,166.40052330016624 184.3031713704113,166.93186452190275 184.3031713704113,167.48735636568745 184.3031713704113,168.0911503969255 184.13558335765265,168.6707912448328 183.9051498400513,169.20212746495963 183.54902531288099,169.41949194490735 183.21384928724729,169.73346251448675 183.00436427129898,169.75761407987738 183.31859179527964,169.61270465148846 183.71661332563963,169.32288553353283 184.1774803608423,169.61270465148846 184.784986907267,169.9508265155746 185.28775094565935,169.87837187031982 185.7276694793254,169.46779513607908 185.87430899054743,168.8640045512584 185.83241198724136,168.38097099507286 185.89525749208406,167.75302592568914 185.89525749208406,167.22168651304673 185.91620599362068,166.6903459298337 185.95810299681034,166.15900417606463 185.97905149846338,165.62766125159396 185.83241198724136,165.555205307508 185.53913296491373,165.65181322806166 185.16205993609037,165.555205307508 185.1201629327843,165.2412292984809 185.057317428058,165.12046918617852 184.784986907267,165.2412292984809 184.47075938328635,165.28953332653327 183.86325283674523,165.31368533686327 183.27669479197357,165.41029335412895 182.6901367472019,165.43444535242452 182.0826302007772,165.36198935037828 181.49607215600554,165.2412292984809 180.88856560958084,165.09631715642172 180.3229560664622,164.9755569716217 179.73639802157413,164.8789487801696 179.14983997680247,164.70988435205072 178.64707593841013,164.66158020796138 178.03956939198542,164.56497189073707 177.47395984875038,164.46836353481922 176.92929880716838,164.39590724249138 176.3217922608601,164.34760303550866 175.81902822235133,164.2992988188489 175.19057317439,164.27514670687378 174.645912132808,164.2509945924976 174.08030258957297,164.08192972418328 173.53564154799096,163.9853211747395 172.92813500156626,163.86456043360522 172.32062845514156,163.84040827811987 171.71312190871686,163.74379963193496 171.16846086713485,163.67134312195412 170.62379982543644,163.5747344080446 170.10008728550747,163.47812565536879 169.5135292407358,163.42982126462448 168.88507419277448,163.38151686414494 168.3613616527291,163.23660360468784 167.77480360784102,163.16414694226114 167.27203956944868,163.06753802516323 166.68548152467702,162.97092906944454 166.11987198144197,162.85016782027378 165.63805644470267,162.77771104179556 165.07244690146763,162.6327974195301 164.506837358349,162.56034057568468 163.9831248181872,162.46373141676304 163.33372126857284,162.34296991360316 162.78906022699084,162.2463606675592 162.07681117253378,162.12559905562375 161.55309863260482,162.0289897225157 161.0084375910228,161.95653269730974 160.4637765494408,161.78746622047038 159.89816700608935,161.57009486178868 159.395402967697,161.23196124765673 159.06022694217972,160.82136979320785 158.76694791973568,160.3624726345297 158.2432353796903,160.00018478713173 157.6985743381083,159.85526949574705 157.13296479498968,159.71035411729827 156.546406750218,159.61374381666246 156.04364271170925,159.51713347728946 155.47803316859063,159.44467569734843 154.95432062854525,159.32391268237552 154.34681408212055,159.22730222693644 153.86499854538124,159.15484435988765 153.27844050060958,159.08238647111284 152.75472796044778,158.98577591884532 152.23101542051882,158.9616232747794 151.6025603725575,158.91331797928433 151.0578993309755,158.79255469828786 150.49228978762403,158.57518063999305 149.9266802445054,158.52687526708178 149.36107070127036,158.38195909041679 148.83735816122498,158.26119554330944 148.29269711964298,158.21289010746113 147.74803607806098,158.09212647577806 147.20337503636256,157.94721003776067 146.6796624964336,157.82644627294212 146.09310445166193,157.60907134384615 145.56939191173296,157.51246020135295 145.08757637487724,157.36754341500637 144.48006982845254,157.2467793599062 143.95635728840716,157.0777095810481 143.32790224032942,156.90863968375197 142.74134419555776,156.7637225346407 142.2804771604715,156.47388797502208 141.86150712845847,156.20820598932914 141.5472796043614,155.74930005188799 140.98167006112635,155.48361726780422 140.41606051800773,155.36285226923064 139.78760546992999,155.29039324106998 139.22199592681136,155.266240226847 138.6354378820397,155.24208721016475 138.02793133549858,155.2179341910669 137.48327029391658,155.19378116959706 136.91766075068153,155.12132209063566 136.2263601978775,155.12132209063566 135.68169915641192,155.07301602588268 135.05324410833418,155.02470995142357 134.44573756190948,155.00055691055604 133.8382310156012,154.97640386731655 133.25167297071312,154.95225082166144 132.68606342747808,154.92809777354705 132.12045388435945,154.90394472298794 131.5548443411244,154.8556386147393 130.96828629623633,154.80733249674086 130.4026767530013,154.7348733015824 129.795170206693,154.75902636907995 129.20861216192134,154.6624140847416 128.62205411703326,154.49334249399544 128.05644457379822,154.27596456029278 127.51178353221621,154.01028015298652 126.96712249063421,153.84120810499007 126.35961594432592,153.64798276220972 125.85685190581717,153.40645086587756 125.31219086423516,153.1890719523799 124.74658132100012,152.85092658632493 124.24381728260778,152.6093938916165 123.80389874894172,152.1987877555075 123.32208321220241,151.9572544075636 122.79837067215703,151.73987418762408 122.48414314817637,151.49834038002882 121.96043060813099,151.37757338560186 121.39482106501237,151.23265291232383 120.93395402980968,151.0635789168009 120.38929298811127,150.9669651518052 119.8027349433396,150.7978909699741 119.23712540022098,150.60466318838007 118.67151585686952,150.45974225064856 118.10590631375089,150.31482122575107 117.56124527216889,150.19405363842088 116.93279022420757,150.049132453918 116.38812918250915,149.9283647335833 115.82251963939052,149.7592898235016 115.23596159450244,149.638521957997 114.62845504807774,149.49360043952765 114.02094850165304,149.37283244090213 114.18853651441168,148.72068420334836 114.39802153059281,148.09268793709634 114.62845504807774,147.5371514152066 114.81699156260584,146.8608443564881 114.98457957536448,146.28115108207567 115.19406459131278,145.74976435606368 115.36165260407142,145.1942224358936 115.50829211529344,144.63867923567886 115.73872563289478,144.05898061853077 115.9482106489595,143.52758899512992 116.07390165852848,143.04450468474533 116.28338667447679,142.41649363419856 116.40907768416218,141.90925274537585 116.59761419857386,141.37785638388596 116.8280477161752,140.87061330983124 117.14227524015587,140.33921465912135 117.41460576094687,139.78366027188895 117.64503927854821,139.32472307347052 117.91736979933921,138.74501167934795 118.21064882178325,138.28607250365894 118.48297934257425,137.77882292473805 118.7762583650183,137.31988190981792 119.06953738734592,136.86094002124446 119.36281640978996,136.40199725907587 119.6770439336542,135.89474371590768 119.99127145775128,135.45995411516924 120.30549898173194,135.00100868595473 120.64067500736564,134.5903725613316 120.97585103299934,134.1072703427053 121.33197556016967,133.72078787079954 121.85568810021505,133.72078787079954 122.44224614498671,133.9140291841759 122.98690718656871,134.1314254766039 123.61536223464645,134.32466646083049 124.09717777138576,134.49375219499052 124.64183881296776,134.614527646816 125.22839685785584,134.7594581091398 125.71021239471156,134.95269858994288 126.2129764331039,135.1217838836019 126.79953447787557,135.26671404094668 127.32324701792095,135.45995411516924 127.7003200466279,135.532419103125 128.28687809139956,135.749813936156 128.9153331394773,135.96720857317268 129.33430317149032,136.18460301414598 129.77422170503996,136.30537761884625 130.15129473386332,136.40199725907587 130.59121326741297,136.5227717548696 131.156822810648,136.78847543268057 131.74338085541967,136.90924973487563 132.24614489392843,137.07833365630358 132.30899039877113,136.98171428720525 131.91096886817832,136.8367851608491 131.53389583947137,136.6918559473561 131.19871981383767,136.59523642327986 130.88449228997342,136.4986168605683 130.52836776268668,136.37784235260915 130.27698574354872,136.08798328676494 130.339831248275,135.749813936156 130.42362525465433,135.45995411516924 130.52836776268668,135.14593891592813 130.612161769066,134.8077682438161 130.4864707593806,134.3729766827746 130.17224323551636,134.20389086390787 129.81611870822962,134.01064978273644" stroke="#4DD2FF" stroke-linecap="round" stroke-linejoin="round" stroke-width="0.5"><title>2025-10-22 10.2km</title><desc>9223370275716227807</desc></polyline><polyline fill="none" points="14.489981096354313,230.49750986557046 14.299432892235927,229.61306771212548 14.0,229.42354373150738 14.095274102000985,228.85497038759058 14.46275992441224,228.57068292707845 14.85746691870736,228.7602079591452 16.558790170121938,228.72862047005037 16.74933837429853,228.20742596233322 17.26654064276954,228.09686932445038 17.86540642718319,228.31798252071894 21.009451795835048,228.33377630831092 22.00302457466023,228.58647668866615 25.718714555783663,228.82338291792257 32.3062381852651,230.76600022679486 35.64083175803535,231.33456650256994 38.199621928157285,231.01869660896773 39.084310018923134,230.71861960891692 39.76483931951225,230.86076141879312 47.31871455576038,230.71861960891692 53.22570888471091,230.1974318481516 54.46427221171325,230.2606062163104 54.682041587890126,230.54489055165322 61.17429111531237,231.17663163690304 64.93081285443623,231.77678326322348 67.6257088847342,231.90313067554962 69.40869565214962,231.77678326322348 71.80415879021166,231.23980560261407 77.04423440457322,229.202432125443 79.48052930057747,228.64965171882068 83.15538752358407,228.7444142154127 85.89111531194067,229.34457533725072 86.0,229.17084472715214 85.78223062388133,228.98132020131743 83.57731568999588,228.33377630831092 81.34517958411016,228.19163216176094 79.14026465028292,228.34957009424397 76.8809073723969,228.8391766535933 71.4638941399171,231.05028362752637 66.80907372402726,231.65043574714218 56.90056710771751,230.22901903548336 53.44347826082958,230.21322544265422 46.107372400700115,230.7028260663501 40.56786389410263,230.62385832928703 35.27334593574051,231.33456650256994 33.64007561432663,231.14504464429046 32.63289224950131,230.67123897641432 25.854820415843278,228.9181453074416 22.098298676719423,228.47592032338434 21.51304347824771,228.85497038759058 17.634026465006173,228.80758918069478 17.252930056711193,229.0918762031215 16.980718336475547,231.14504464429046 14.095274102000985,231.17663163690304 14.027221172000282,231.00290309725096 14.285822306235787,231.00290309725096 14.408317580295261,230.56068411044544 14.585255198529921,230.56068411044544" stroke="#4DD2FF" stroke-linecap="round" stroke-linejoin="round" stroke-width="0.5"><title>2024-11-02 10.7km</title><desc>1730492811000</desc></polyline></svg>