<?xml version="1.0" encoding="utf-8" ?>
<svg baseProfile="full" height="300mm" version="1.1" viewBox="0,0,200,300" width="200mm" xmlns="http://www.w3.org/2000/svg" xmlns:ev="http://www.w3.org/2001/xml-events" xmlns:xlink="http://www.w3.org/1999/xlink"><defs /><rect fill="#222222" height="300" width="200" x="0" y="0" /><text fill="#FFFFFF" style="font-size:12px; font-family:Arial; font-weight:bold;" x="10" y="20">Over 10km Runs</text><text fill="#FFFFFF" style="font-size:4px; font-family:Arial" x="10" y="280">Runner</text><text fill="#FFFFFF" style="font-size:9px; font-family:Arial" x="10" y="290">magisk</text><text fill="#FFFFFF" style="font-size:4px; font-family:Arial" x="65" y="280">SPECIAL TRACKS</text><rect fill="yellow" height="2.6" width="2.6" x="65" y="283" /><text fill="#FFFFFF" style="font-size:3px; font-family:Arial" x="70" y="285.5">Over 20.0 km</text><rect fill="red" height="2.6" width="2.6" x="65" y="287" /><text fill="#FFFFFF" style="font-size:3px; font-family:Arial" x="70" y="289.5">Over 40.0 km</text><text fill="#FFFFFF" style="font-size:4px; font-family:Arial" x="120" y="280">STATISTICS</text><text fill="#FFFFFF" style="font-size:3px; font-family:Arial" x="120" y="285">Number: 4</text><text fill="#FFFFFF" style="font-size:3px; font-family:Arial" x="120" y="290">Weekly: 1.0</text><text fill="#FFFFFF" style="font-size:3px; font-family:Arial" x="141" y="285">Total: 42.1 km</text><text fill="#FFFFFF" style="font-size:3px; font-family:Arial" x="141" y="290">Avg: 10.5 km</text><text fill="#FFFFFF" style="font-size:3px; font-family:Arial" x="167" y="285">Min: 10.1 km</text><text fill="#FFFFFF" style="font-size:3px; font-family:Arial" x="167" y="290">Max: 11.0 km</text><polyline fill="none" points="27.597957174642943,56.10554137654253 26.940068914787844,56.17450502052088 26.162564607453533,56.358407969761174 25.42493231606204,56.33542010920064 24.68730002467055,56.10554137654253 24.3085158750182,56.05956560229242 23.6107555993367,55.921638224535855 23.152227418264374,56.12852926016785 22.733571252785623,56.72621342606726 22.215235048090108,57.16298163961619 21.696898843278177,57.6457244871126 21.258306670119055,58.17444167846406 20.8197144967271,58.68017002570559 20.420994339277968,59.300835110014305 20.02227418171242,59.82954848704685 19.563746000640094,60.51917280005 19.145089835161343,61.11684552794031 18.76630568562541,61.73750402047881 18.407457543886267,62.31218631284719 18.048609402030706,62.90985437000927 17.689761260175146,63.484533725873916 17.350849126349203,64.08219872914196 17.071745016030036,64.67986217557336 16.89232094527688,65.34648495232977 16.6530888506677,66.1050533423404 16.473664779798128,66.72569834157184 16.234432685305364,67.41530192717619 15.995200590812601,68.10490344036953 15.775904504116625,68.88644931653107 15.556608417537063,69.62201947408903 15.297440315131098,70.40356018282182 15.058208220638335,71.04717994428938 14.818976126145571,71.82871579895436 14.639552055275999,72.49531780696998 14.779104110319167,73.18490405322518 15.3173763230443,73.57566867295827 15.975264582899399,73.71358543864335 16.61321683495771,73.89747433068987 17.251169087016024,74.0583769903169 17.968865370494314,74.21927953715203 18.626753630349413,74.38018197112251 19.284641890320927,74.54108429228654 19.92259414237924,74.70198650070233 20.739970465307124,74.90886060276534 21.37792271724902,75.04677656723652 22.155427024466917,75.25365035849973 22.753507260698825,75.50649585010251 23.391459512757137,75.87427061331982 23.949667733279057,76.2190589185484 24.52781196171418,76.60981837147847 25.26544425310567,77.02356294939818 25.84358848154079,77.29939225361159 26.581220772932284,77.5522354911518 27.159365001367405,77.80507845013926 27.797317253309302,78.05792113063217 28.395397489657626,78.2877778710681 29.15296578896232,78.44867745241208 29.790918040904216,78.51763438133639 30.54848634020891,78.56360565569776 31.206374600180425,78.60957692093507 31.963942899368703,78.63256255010492 32.7414472065866,78.67853380151791 33.31959143502172,78.70151942373195 34.05722372641321,78.74749066130607 34.67523997044191,78.79346188971249 35.45274427777622,78.79346188971249 36.07076052192133,78.86241871491075 36.78845680539962,78.90838992033969 37.40647304954473,78.9313755195908 38.08429731731303,78.97734671113722 38.60263352212496,78.97734671113722 39.0412256954005,79.0003323033452 39.400073837139644,79.06928906653775 39.83866601041518,79.13824580893561 40.496554270386696,79.32213035407767 41.174378538155,79.50601475185249 41.79239478218369,79.66691347911546 42.43034703435842,79.82781209348468 43.2277873493731,80.03468157480529 43.84580359351821,80.19557993134367 44.5634998769965,80.37946362921502 45.161580113344826,80.5173763060011 45.779596357489936,80.67827432412014 46.497292640968226,80.86215763523069 47.23492493235972,81.04604079911951 47.87287718441803,81.1839530752768 48.57063746009953,81.32186526851729 49.348141767201014,81.43679203301144 50.06583805079572,81.57470407437359 50.68385429494083,81.68963071217877 51.02276642888319,81.7585866672016 51.36167856270913,81.82754260161892 51.76039872027468,81.87351321300957 52.19899089355022,81.91948381514521 52.73726310627535,82.05739556644403 53.41508737404365,82.17232196258556 54.09291164181195,82.31023356188962 54.87041594891343,82.44814507839328 55.58811223239172,82.5630712788261 56.14632045291364,82.60904174286406 56.58491262618918,82.72396786270838 56.98363278375473,82.93083473338629 57.24280088604428,83.13770141761051 57.56177701218985,83.5974044927716 58.080113216885366,84.12606189087091 58.71806546894368,84.49382284084277 59.39588973671198,84.70068811623787 60.09365001239348,84.81561318863533 60.75153827224858,84.90755320522294 61.48917056375649,85.04546316088818 62.14705882361159,85.13740308534761 62.82488309137989,85.25232793905889 63.442899335525,85.34426778064517 63.84161949297413,85.41322263760958 64.18053162691649,85.45919253080501 64.51944376074243,85.50516241475998 64.85835589468479,85.57411722338293 65.25707605225034,85.66605693605379 65.59598818607628,85.71202677857946 65.95483632793184,85.78098152506573 66.33362047746778,85.82695134462847 66.71240462712012,85.91889095594524 67.03138075314928,85.9648607478448 67.41016490291804,86.01083053050388 67.74907703674398,86.0568003039516 68.14779719419312,86.14873982325662 68.50664533604868,86.19470956907026 68.82562146207783,86.26366417059035 69.20440561173018,86.30963389341196 69.94203790312167,86.42455816015718 70.65973418659996,86.65440652101825 71.43723849381786,86.88425465174078 72.03531873004977,87.045148206249 72.71314299781807,87.20604164797987 73.33115924196318,87.29798070690595 74.00898350973148,87.36693497691886 74.70674378541298,87.4818587142363 75.3646320453845,87.55081292901014 76.0225203052396,87.66573657430126 76.66047255729791,87.80364487269253 77.2984248092398,87.91856839132379 77.93637706129812,88.05647653776396 78.59426532126963,88.19438460128731 79.21228156541474,88.30930792429717 79.81036180164665,88.40124654128158 80.50812207732815,88.40124654128158 81.14607432938647,88.28632326431398 81.34543440805282,88.79198525252286 81.30556239234284,89.4585379894852 81.40524243179243,90.1480732664786 81.32549840037245,90.90655967858038 81.14607432938647,91.50415326819348 81.12613832147326,92.12472957983846 81.76409057353158,92.53844618886069 81.98338666022755,93.15901970407867 82.44191484129988,93.5497503158258 83.19948314048816,93.61870270772488 83.83743539266288,93.59571857935225 84.51525966043118,93.5497503158258 85.15321191237308,93.5497503158258 85.85097218805458,93.5497503158258 86.56866847164929,93.5497503158258 87.24649273941759,93.57273444875318 87.9043809993891,93.59571857935225 88.58220526704099,93.61870270772488 89.2600295349257,93.64168683371099 89.67868570028804,93.64168683371099 90.05746984994039,93.71063919793232 90.39638198388275,93.75660742922628 90.77516613341868,93.84854386426741 91.11407826724462,93.89451206798549 91.41311838547699,93.94048026247765 91.79190253501292,93.98644844772934 92.19062269257847,94.03241662378423 92.50959881860763,94.07838479072961 92.88838296825998,94.12435294834722 93.20735909428913,94.14733702373633 93.52633522031829,94.19330516758782 93.90511936997063,94.21628923618118 94.24403150379658,94.19330516758782 94.60287964565214,94.21628923618118 94.8022397243185,94.03241662378423 94.8421117401449,93.34289301598619 94.88198375585489,92.67635155947937 95.36044794495683,92.19368239982578 95.5,91.43520024111785 95.00159980321769,91.11341917417303 94.22409549599979,91.09043479492539 93.60607925173827,90.8605908765021 93.42665518098511,90.56179343836266 92.86844696034677,90.44687124321354 92.25043071620166,90.37791789851326 91.59254245634656,90.30896453303285 90.87484617286827,90.1480732664786 90.23689392080996,90.01016637680004 89.73849372379482,89.89524390542647 89.41951759788208,89.82629039499443 89.10054147196934,89.75733686386957 88.74169333011378,89.6194297394104 88.42271720408462,89.43555344454944 88.12367708596867,89.20570786888129 87.8445729756495,88.92989287416276 87.58540487335995,88.67706217127852 87.32623677095398,88.42423118979787 86.92751661338843,88.03349185241677 86.26962835353334,87.78066016199591 85.57186807785183,87.59678239405912 84.79436377063394,87.43588922619529 84.07666748715565,87.34395022258104 83.23935515631456,87.5048434548371 82.56153088854626,87.7576754490874 81.92357863648795,88.01050716477039 81.22581836080644,88.24035393742088 80.50812207732815,88.28632326431398 79.79042579384986,88.28632326431398 79.01292148663197,88.17139992976445 78.35503322677687,88.05647653776396 77.65727295109536,87.89558369215229 76.93957666761708,87.7576754490874 76.24181639193557,87.59678239405912 75.54405611613765,87.4818587142363 74.88616785639897,87.36693497691886 74.10866354918107,87.27499594562687 73.45077528920956,87.20604164797987 72.73307900573127,87.1600721046998 72.05525473796297,87.06813299050555 71.39736647799145,86.95320904602704 70.75941422604956,86.86126984898874 70.12146197399125,86.76933061511954 69.36389367468655,86.67739134447766 68.70600541471504,86.56246720427589 68.22754122572951,86.49351269255567 67.82882106828038,86.44754300663772 67.46997292642482,86.40157331137743 67.07125276885927,86.3326187512721 66.73234063514974,86.28664903312165 66.3734924934106,86.24067930568708 66.03458035935182,86.21769443854282 65.67573221761268,86.14873982325662 65.31688407587353,86.07978518721939 65.01784395764116,86.01083053050388 64.59918779239524,85.91889095594524 64.22040364262648,85.87292115487799 63.92136352462694,85.8039664359967 63.54257937497459,85.73501169636438 63.18373123311903,85.68904185849533 62.84481909929309,85.62008708433132 62.50590696546715,85.57411722338293 62.16699483152479,85.48217747388117 61.66859463462606,85.39023768760671 60.950898351031356,85.27531290290062 60.23320206743665,85.13740308534761 59.495569776161574,84.99949318484869 58.79780950048007,84.86158320149116 58.139921240508556,84.58576298624394 57.58171301998664,84.08009173064784 57.1630568546243,83.55143422666879 56.56497661827598,83.09173105946684 55.90708835842088,82.93083473338629 55.18939207482617,82.7929235069605 54.491631799261086,82.67799742164789 53.83374353928957,82.5630712788261 53.195791287347674,82.44814507839328 52.47809500375297,82.33321882043674 51.76039872027468,82.19530723486969 51.102510460303165,82.10336613173422 50.40475018462166,81.96545440811315 49.90634998783935,81.87351321300957 49.268397735781036,81.80455729244568 48.90954959404189,81.7585866672016 48.630445483722724,81.68963071217877 48.31146935769357,81.64366006394266 48.132045286823995,81.57470407437359 48.49089342856314,81.4827627226623 48.789933546679094,81.34485062603198 48.191853310447186,80.83917222941818 47.47415702685248,80.70125974602706 46.73652473546099,80.54036174403154 45.919148412533104,80.33349271859333 45.2413241447648,80.14960898383288 44.543563869199716,79.96572510177793 43.82586758560501,79.78184107231209 43.347403396619484,79.68989900231827 42.888875215430744,79.55198582833691 42.5499630816048,79.48302921021241 42.171178931952454,79.34511591184128 41.79239478218369,79.27615923168196 41.41361063264776,79.16123138509283 40.95508245145902,79.04630348114006 40.23738616798073,78.86241871491075 39.579497908009216,78.70151942373195 38.88173763244413,78.63256255010492 38.10423332522623,78.58659128949512 37.28685700229835,78.5406200196885 36.58909672673326,78.49464874064142 35.75178439589217,78.44867745241208 34.97428008867428,78.42569180480496 34.196775781572796,78.3797205028095 33.49901550589129,78.33374919155904 32.7613832144998,78.2877778710681 32.04368693102151,78.26479220736655 31.345926655223593,78.21882087312406 30.78771843481809,78.1958352025249 30.369062269455753,78.17284952959744 29.950406103977002,78.14986385439988 29.591557962237857,78.12687817694678 29.013413733802736,78.05792113063217 28.315653458121233,77.87403557248763 27.63782919035293,77.62119268944662 26.979940930497833,77.32237801396695 26.262244647019543,77.06953452315065 25.62429239496123,76.79370494268369 25.04614816652611,76.49488918967836 24.448067930177785,76.19607304767123 24.009475756902248,75.92024241726904 23.41139552067034,75.52948179004306 22.79337927652523,75.18469244876178 22.354787103133276,75.04677656723652 21.956066945684142,74.90886060276534 21.6171548118582,74.81691658044292 21.31811469362583,74.70198650070233 20.9592665520031,74.63302842517442 20.620354418060742,74.47212616841716 20.281442284118384,74.40316802395682 19.92259414237924,74.31122379895533 19.603618016350083,74.21927953715203 19.20489785890095,74.12733523845964 18.826113709132187,74.0583769903169 18.447329559596255,73.94344653066946 18.108417425653897,73.85150212145527 17.749569283798337,73.75955767546839 17.370785134262405,73.66761319260695 17.031873000320047,73.59865480630833 16.6530888506677,73.48372411640594 16.314176716841757,73.41476567478094 15.716096480493434,73.25386256386992 14.998400197015144,73.09295934012334 14.519936007913202,72.7251801192906 14.818976126145571,72.05857877909148 15.01833620481193,71.39197550233803 15.277504307334311,70.70238386800338 15.536672409740277,69.94383067653689 15.716096480493434,69.30020782025531 15.93539256718941,68.61060989947873 16.134752645972185,68.01295669168758 16.373984740348533,67.32335490221158 16.59328082704451,66.67972469540837 16.812576913740486,65.99011889898975 16.972064976696856,65.36947191007494 17.211297071306035,64.70284920012637 17.590081220841967,63.99025036851526 17.809377307421528,63.46154657928855 18.028673394117504,63.09375192045991 18.24796948081348,62.72595667206042 18.447329559596255,62.42712259857217 18.606817622552626,62.05932628153823 18.826113709132187,61.76049133979541 19.00553778000176,61.4616560088034 19.244769874610938,61.11684552794031 19.563746000640094,60.657097413917654 20.10201821324881,59.967473515484016 20.58048240223434,59.323822673468385 20.999138567596674,58.74913289568212 21.37792271724902,58.220417028845986 21.89625892206095,58.01352787968062 22.613955205655657,58.289380037022056 23.052547378931195,58.427305991368485 23.45126753638033,58.56523186281265 23.770243662409484,58.65718239771377 24.168963819975033,58.772120514462586 24.52781196171418,58.91004617854196 24.84678808762692,58.979008979542414 25.16576421377249,59.07095934859535 25.743908442207612,59.277847544217366 26.262244647019543,59.438760456236196 26.38186069414951,59.23187240574043 26.4416687177727,58.772120514462586 26.601156780845486,58.38133068251773 26.979940930497833,58.45029364241054 27.25904504058417,58.05950326223683 27.597957174642943,57.55377354688244 27.996677332092077,57.43883481969533 28.23590942658484,57.576761285366956" stroke="#4DD2FF" stroke-linecap="round" stroke-linejoin="round" stroke-width="0.5"><title>2025-12-28 11.0km</title><desc>9223370269926779807</desc></polyline><polyline fill="none" points="119.03061775013339,56.986513028110494 118.28769894805737,56.75975260489213 117.56663069862407,56.48260069881508 116.88926355540752,56.28103548430954 116.25559751817491,56.10466578908381 115.84043701109476,56.0542744249251 115.31602373893838,56.35662245872663 114.87901267874986,56.78494821753702 114.4638521715533,57.314055500610266 114.00499055848923,57.76757514280325 113.52427839220036,58.24628943318385 113.08726733212825,58.75019822800823 112.67210682493169,59.254106013002456 112.19139465875924,59.85879402203136 111.77623415156268,60.38789483708388 111.33922309149057,60.9421897350112 110.924062584294,61.496483411086956 110.55260318319779,62.12636110530002 110.13744267600123,62.65545714915788 109.83153493399732,63.184552079823334 109.43822497979272,63.76403572653362 109.11046668468043,64.3435180378583 108.71715673047584,64.94819380865374 108.38939843536355,65.52767339123238 108.14904235245194,66.05676227876393 107.75573239824735,66.71182316858904 107.47167520911898,67.39207690201874 107.31872133805882,67.92116186702333 107.12206636101473,68.45024571882095 107.03466414893046,69.05491161503596 106.9472619369626,69.3320496648812 106.72875640692655,69.83593624587229 106.57580253586639,70.46579305235355 106.35729700571392,71.04525992112758 106.13879147556145,71.67511369886051 105.96398705150932,72.27977184143674 105.70178041548934,73.06078645731031 105.48327488533687,73.64024734692066 105.28661990829278,74.29528848406335 105.08996493124869,74.92513412237167 104.93701106018852,75.58017191298131 105.15551659022458,76.26040165904851 105.52697599143721,76.66349989965966 106.20434313465375,76.81466157337127 106.83800917188637,76.96582315622072 107.38427299715113,77.11698464822257 107.93053682229947,77.2681460492895 108.54235230642371,77.41930735956703 109.15416779066436,77.5956621067453 109.76598327490501,77.74682322017907 110.42149986512959,77.89798424270703 111.03331534937024,78.04914517446014 111.66698138660286,78.22549948000233 112.27879687084351,78.35146676537988 112.8687618020922,78.47743398770399 113.5024278392084,78.70417482880293 114.02684111148119,78.95610885701899 114.63865659560543,79.35920277725381 115.20677097386215,79.73710274076439 115.75303479901049,80.06461558312003 116.34299973025918,80.4173212442256 116.8455624494236,80.66925355642161 117.50107903964818,80.94637880843948 118.09104397089686,81.19831059072749 118.81211222009733,81.50062839637394 119.35837604524568,81.72736651214655 119.99204208259471,81.92891133233206 120.62570811982732,82.08006984154053 121.23752360395156,82.18084213053226 122.02414351236075,82.23122825988685 122.59225789038464,82.28161437914241 123.29147558682598,82.3068074350158 123.92514162394218,82.35719353907916 124.5588076611748,82.3823865874001 125.19247369840741,82.40757963313081 125.76058807666413,82.43277267637313 126.39425411389675,82.48315875527624 127.02792015112936,82.50835179089336 127.66158618824556,82.55873785464792 128.3608038845705,82.5839308827126 128.95076881581917,82.609123908318 129.60628540604375,82.63431693134771 130.23995144327637,82.68470296976739 131.02657135145273,82.70989598534652 131.6820879416773,82.76028200871951 132.29390342603438,82.86105402512476 132.92756946315058,82.98701898891886 133.4956838414073,83.1381768623105 134.1949015376158,83.31452759957756 134.74116536288057,83.46568527606723 135.37483139999676,83.6168428617093 136.00849743722938,83.79319326348195 136.62031292158645,83.94435065225116 137.34138117078692,84.12070082443825 137.90949554892723,84.24666515742138 138.47760992718395,84.42301511758706 139.11127596441656,84.59936495413422 139.74494200164918,84.67494341763086 140.3130563797895,84.82610027656483 140.8811707580462,84.97725704466575 141.55853790126275,85.12841372190451 142.12665227951948,85.25437755027087 142.82586997572798,85.38034131540917 143.54693822492845,85.50630501762498 144.1587537091691,85.63226865670003 144.8579714053776,85.73303952254355 145.42608578363433,85.8338103480346 146.1471540328348,85.93458113315864 146.82452117616776,86.06054455768026 147.41448610730004,86.161315252044 148.091853250633,86.28727856307523 148.70366873475723,86.3880491664604 149.42473698407412,86.51401236403035 150.0802535744151,86.63997549845953 150.67021850554738,86.71555334884033 151.32573509577196,86.96747935281019 151.76274615584407,87.37056043431221 152.15605611004867,87.89960337357479 152.5930671702372,88.35306786446017 153.0956298894016,88.65537707094336 153.7511464796262,88.88210873736534 154.29741030489095,88.98287830129266 154.93107634200715,89.08364782479475 155.49919072026387,89.18441730797349 156.1110062043881,89.28518675078521 156.81022390071303,89.41114849750011 157.37833827885333,89.51191784950788 158.09940652817022,89.6378794827906 158.71122201241087,89.73864874386345 159.41043970861938,89.86461026351026 160.08780685183592,89.96537943388103 160.76517399516888,90.09134083999379 161.35513892641757,90.1921099195024 161.94510385754984,90.26768670261663 162.6880226598587,90.39364795737492 163.256137037999,90.49441691582615 163.8898030751152,90.5951858338085 164.58902077144012,90.69595471148205 165.1789857026888,90.79672354878858 165.81265174003784,90.97306891690823 166.38076611817814,91.12422199116554 167.01443215529434,91.275374974648 167.5606959805591,91.42652786729741 168.12881035881583,91.70364126784261 168.7187752899481,91.72883338006795 169.28688966820482,91.80440970152267 169.94240625831299,91.87998600018909 170.24831400054973,91.93037018679024 170.59792284865398,91.93037018679024 170.94753169675823,91.98075436326326 171.45009441592265,92.08152268581034 172.0619099001633,92.18229096806317 172.71742649038788,92.30825126411219 173.4166441865964,92.45940353612241 173.96290801186115,92.56017166694801 174.55287294299342,92.71132378761831 175.16468842735048,92.81209181758459 175.77650391147472,92.93805179833726 176.34461828973144,93.0136277564452 176.8908821148798,93.03881973742682 177.524548151996,92.98843577296066 178.00526031828485,92.88766781355662 178.33301861339714,92.81209181758459 178.66077690850943,92.66093975755211 178.96668465062976,92.56017166694801 179.29444294574205,92.45940353612241 179.60035068774596,92.35863536488614 180.12476396001875,92.15709890132712 180.69287833827548,91.98075436326326 181.3265443755081,91.98075436326326 181.93835985974874,92.10671476021525 182.57202589686494,92.2326750940556 183.2493930401979,92.40901945554651 183.86120852443855,92.61055571734323 184.4074723495869,92.9128598071984 184.844483409659,93.39150720654288 185.21594281087164,93.79457799439842 185.5,93.87015369518485 185.21594281087164,93.59304268118285 184.9755867277272,93.36631526086421 184.7133800915908,93.13958763620758 184.49487456155475,92.88766781355662 184.23266792553477,92.56017166694801 183.66455354727805,92.35863536488614 183.0527380631538,92.2074830323254 182.44092257879674,92.05633060897526 181.71985432959627,91.93037018679024 181.129889398464,91.82960180360533 180.4962233612314,91.90517809476296 179.86255732388236,92.15709890132712 179.29444294574205,92.35863536488614 178.7481791205937,92.61055571734323 178.15821418934502,92.7617078077019 177.56824925809633,92.81209181758459 176.80347990279552,92.86247581744101 176.21351497166324,92.86247581744101 175.55799838132225,92.7617078077019 175.0117345561739,92.66093975755211 174.42176962492522,92.53497963804693 173.74440248170868,92.40901945554651 173.13258699746802,92.25786715331196 172.4989209602354,92.13190683198627 171.84340437012725,92.03113852953538 171.07863501482643,91.90517809476296 170.46681953058578,91.82960180360533 169.8113029402448,91.72883338006795 169.19948745612055,91.67844915314345 168.54397086589597,91.60287279391196 167.86660372267943,91.55248854173988 167.1892365794629,91.45172000720049 166.57742109510582,91.35095143227954 165.85635284590535,91.25018281706434 165.2445373617811,91.17460632913571 164.5453196654562,91.07383764321276 163.91165362822358,90.97306891690823 163.23428648500703,90.87230015016394 162.57876989466604,90.7715313432127 162.01065551664215,90.69595471148205 161.39884003228508,90.5951858338085 160.76517399516888,90.49441691582615 160.044105745852,90.36845571149024 159.43229026161134,90.26768670261663 158.84232533047907,90.14172538479033 158.14310763427056,90.01576400389604 157.55314270290546,89.91499485376698 156.832074453705,89.7890333593241 156.2421095224563,89.68826411833288 155.56474237923976,89.58749483698921 154.97477744799107,89.48672551535128 154.36296196386684,89.36076380638406 153.66374426754192,89.20960967242718 153.05192878341768,89.03326306804956 152.41826274618506,88.65537707094336 151.98125168599654,88.20191312504176 151.54424062580802,87.64767830318306 151.08537901262753,87.26979022446903 150.49541408149526,87.09344226018584 149.86174804426264,86.99267193931155 149.22808200703003,86.84151638239564 148.63811707578134,86.76593856983527 148.0263015915407,86.66516811781912 147.43633666040841,86.56439762534865 146.69341785821598,86.41324181105301 146.12530347995926,86.31247121776687 145.36053412465844,86.18650791926484 144.77056919340976,86.11092990993347 144.18060426216107,86.01015919547353 143.54693822492845,85.88419574555883 142.95697329379618,85.78342494033859 142.2359050444793,85.63226865670003 141.6022390073631,85.53149775047495 140.9467224170221,85.43072680392652 140.42230914486572,85.32995581695286 140.09455084986985,85.25437755027087 139.7886431076331,85.20399202642147 139.46088481252082,85.12841372190451 139.13312651740853,85.02764261380071 138.7616671163123,84.95206425627111 138.10615052608773,84.75052185847017 137.42878338275477,84.57417212791916 136.79511734552216,84.42301511758706 136.00849743722938,84.19627943169326 135.30927974102087,84.01992931256245 134.6537631507963,83.84357906978403 133.86714324261993,83.64203578379238 133.27717831125483,83.49087821329886 132.57796061504632,83.31452759957756 131.96614513080567,83.18856279981264 131.28877798758913,83.16336983225483 130.61141084437259,83.1381768623105 129.91219314816408,83.08779091456381 129.30037766392343,83.06259793696518 128.6667116266908,83.0374049567763 127.92379282438196,83.01221197406994 127.22457512817346,82.98701898891886 126.59090909082443,82.9618260012212 125.89169139473233,82.91144001822977 125.30172646348365,82.88624702295056 124.5588076611748,82.88624702295056 123.92514162394218,82.86105402512476 123.22592392773367,82.83586102475238 122.61410844349302,82.81066802200803 121.82748853520025,82.78547501660069 121.17197194497567,82.76028200871951 120.47275424876716,82.65950995185995 119.83908821153454,82.40757963313081 119.18357162119355,82.15564906208601 118.48435392510146,81.85333204369817 117.89438899385277,81.60140091752692 117.23887240362819,81.34946953895269 116.53965470741969,81.07234473108838 115.94968977605458,80.82041282262071 115.35972484492231,80.59367388924875 114.83531157276593,80.29135499350377 114.28904774750117,79.83787596844195 113.8301861344371,79.43478281539865 113.24022120318841,79.1072691528534 112.58470461284742,78.98130224592751 111.90733746963087,78.8301418744959 111.27367143251467,78.70417482880293 110.68370650114957,78.57820772005653 109.96263825206552,78.42704710636463 109.37267332070041,78.3010798588366 108.78270838956814,78.14991907851072 108.03978958725929,78.02395169212832 107.42797410313506,78.02395169212832 106.75060695991851,78.02395169212832 106.13879147556145,77.94837123005709 105.57067709742114,77.84759724528703 104.91516050719656,77.46969444282877 104.52185055310838,77.06659749431128 104.60925276507623,76.41156357500586 104.93701106018852,75.78172165919386 105.22106824931689,75.00071549294807 105.43957377935294,74.37087004394562 105.63622875651345,73.7410230175301 105.8547342865495,73.03559247526573 106.07323981658556,72.43093614994723 106.31359589972999,71.67511369886051 106.48840032378212,71.09564828139264 106.6850553008262,70.44059881046996 106.90356083086226,69.83593624587229 107.12206636101473,69.15568912302842 107.38427299715113,68.45024571882095 107.62462908017915,67.82038386426575 107.8431346102152,67.21571499967831 108.08349069335964,66.56065542240685 108.49865120043978,65.85520473856013 108.78270838956814,65.30092067009537 109.08861613168847,64.77183019234508 109.52562719187699,64.14195912453579 109.85338548698928,63.56247634871397 110.29039654706139,62.932602251676144 110.66185594827402,62.42870183811465 111.0551659023622,61.84921511422726 111.49217696255073,61.294922215660335 111.86363636364695,60.841408935331856 112.25694631785154,60.28711381526955 112.65025627205614,59.80840341014846 113.26207175618038,59.88398932418204 113.89573779341299,60.06035636863089 114.50755327765364,60.28711381526955 115.14121931476984,60.488675818487536 115.75303479901049,60.66504243876261 116.36485028325114,60.86660413908248 116.99851632048376,61.068165677730576 117.58848125173245,61.26972705491062 118.2002967359731,61.47128827046254 118.79026166710537,61.62245907612669 119.13987051532604,61.69804444491456 119.46762881043833,61.84921511422726 119.86093876452651,62.0003856926196 120.18869705975521,62.15155618022254 120.56015646073502,62.30272657693422 120.90976530883927,62.37831174126768 121.25937415705994,62.52948200161336 121.60898300504778,62.57987206822145 121.82748853520025,62.17675125270034 121.95859185326844,61.748434678142075 122.06784461834468,61.32011737396533 122.15524683031254,61.01777530826803 122.26449959538877,60.63984721485758 121.89304019429255,60.413090086280135 121.52158079319634,60.18633275311731 121.1501213919837,59.93437992090185" stroke="#4DD2FF" stroke-linecap="round" stroke-linejoin="round" stroke-width="0.5"><title>2025-10-29 10.1km</title><desc>9223370275112361807</desc></polyline><polyline fill="none" points="29.724323538132012,204.45756241193158 28.475269130198285,203.12599424351356 27.768257201183587,202.88141978759086 27.179080593632534,202.69119505828712 26.424934536102228,202.60967013344634 25.78862379991915,203.07164438345353 25.293715449632145,203.61514249365428 24.84594122786075,204.15863951464416 24.374599941889755,204.72931021440309 23.856124527286738,205.32715442153858 23.384783241315745,205.81629870156758 22.866307826712728,206.19674364291131 22.53636892652139,206.6858863546513 21.97075938328635,207.25655173661653 21.664387547411025,207.93591372101218 21.287314518587664,208.50657647280605 20.81597323261667,209.05006369159673 20.415333139360882,209.7294211834087 19.991125982021913,210.19138330596616 19.684754146146588,210.89791208898532 19.236979924491607,211.41422042032355 18.883473959984258,212.12074601795757 18.55353505979292,212.66422599440557 18.247163223917596,213.20770488196285 17.940791387925856,213.77835654185037 17.63441955205053,214.34900700108847 17.398748909006827,214.9740037456213 17.233779459027573,215.57182537092012 17.0923770731315,216.25116652771248 16.856706430087797,216.95767952577444 16.597468722844496,217.5283232961956 16.432499272748828,218.18048613509745 16.26752982265316,218.83264740605955 16.149694501189515,219.40328723189305 15.961157986777835,220.08261879271595 15.678353215102106,220.65325598887284 15.466249636374414,221.27823820730555 15.277713122079149,222.03908418188803 15.065609543351457,222.60971726235584 14.688536514644511,223.3433866018604 14.61783532158006,223.9955354600388 14.829938900307752,224.4574732859619 15.30128018639516,224.94658306776546 15.937590922461823,225.16396490999614 16.62103578716051,225.29982847286738 17.25734652322717,225.517210031976 17.846523130778223,225.5987280716945 18.506400931160897,225.8161093913077 19.09557753871195,225.92479998571798 19.755455339094624,226.1965262813901 20.46246726810932,226.30521672338364 21.098778004175983,226.41390712195425 21.78222286887467,226.60411521448987 22.46566773368977,226.73997805608087 23.172679662588052,226.90301337614073 23.856124527286738,227.09322112583322 24.516002327785827,227.39211874853936 25.293715449632145,227.7725334285933 25.78862379991915,228.20729240961373 26.424934536102228,228.64205069385935 26.94340995058883,228.88660192256793 27.50901949382387,229.21266988458228 28.098196101374924,229.48439288686495 28.73450683732517,229.7289433562255 29.46508583088871,229.9191491244419 30.03069537389092,230.16369920186116 30.596304917242378,230.43542125154636 31.209048588993028,230.67997086359537 31.821792260743678,230.8430038157967 32.50523712555878,230.9516923961928 33.2593831832055,231.00603667006362 33.989962176419795,231.0332088028954 34.62627291260287,230.9516923961928 35.356851905817166,231.0332088028954 36.063863834831864,231.0332088028954 36.77087576384656,231.08755306043895 37.430753564229235,231.14189730706858 38.0670643002959,231.19624154281337 38.774076229310594,231.22341365661123 39.457521094125696,231.30492998170666 40.070264765876345,231.35927418482606 40.75370963057503,231.35927418482606 41.57855688105337,231.33210208450328 42.1205993599724,231.35927418482606 42.8276112889871,231.38644628226757 43.41678789653815,231.52230672872975 44.00596450397279,231.52230672872975 44.854378818767145,231.73968330168282 45.443555426434614,231.8755435712519 46.150567355332896,232.06574783442193 46.85757928446401,232.28312397189438 47.42318882746622,232.4461559606134 48.035932499333285,232.58201587642543 48.67224323551636,232.77221964421915 49.332121035899036,232.9080793968169 49.9448647077661,233.09828293602914 50.55760837951675,233.20697061286774 51.38245562987868,233.34283014765242 51.900931044714525,233.53303338206024 52.584375909296796,233.66889275354333 53.14998545253184,233.83192390957265 53.80986325291451,233.96778313140385 54.42260692466516,234.18515774482512 55.082484725047834,234.2938449862413 55.86019784712698,234.40253218403086 56.47294151887763,234.5112193383684 57.062118126428686,234.61990644910838 57.69842886237893,234.7014217535907 58.35830666287802,234.81010878819507 59.11245272052474,234.89162403557566 59.60736107081175,235.0274827266985 60.24367180687841,235.1633413497475 60.785714285681024,235.27202819930972 61.469159150496125,235.3807150053035 62.15260401519481,235.43505839197314 62.50610997970216,235.48940176767064 62.8360488798935,235.59808848655666 63.14242071588524,235.65243182971608 63.49592668027617,235.73394682395156 63.89656677341554,235.7611184832931 64.20293860940728,235.8698050932726 64.5328775094822,236.00566329460707 64.79211521684192,236.22303627512883 65.05135292420164,236.44040908158058 65.31059063144494,236.73929640598362 65.52269421017263,237.01101186982123 65.923334303312,237.41858455518377 66.67748036095873,237.82615662820172 67.31379109690897,238.043528150185 67.97366889752448,238.17938526294893 68.5392784406431,238.3424137085094 69.19915624090936,238.36958510655677 69.81189991277643,238.4510992844589 70.47177771327551,238.58695619314676 71.15522257785778,238.69564167113276 71.79153331404086,238.74998439382762 72.42784405010752,238.88584115280537 73.06415478617419,238.96735517555499 73.72403258667327,239.10321182571352 74.36034332273994,239.211897096975 75.02022112323903,239.32058232452255 75.68009892350528,239.4564387978171 76.26927553105634,239.56512392754667 76.92915333143901,239.646637746162 77.49476287467405,239.75532279969775 78.13107361074071,239.89117905529565 78.8145184754394,239.99986401075148 79.52153040457051,240.10854892269708 80.15784114063717,240.19006257818546 80.81771894101985,240.244405001431 81.38332848425489,240.43460339738522 81.99607215612195,240.59763048781315 82.6088158278726,240.78782863609376 83.12729124247562,240.95085551426746 83.74003491434269,241.1410534149618 84.37634565040935,241.24973786971532 85.05979051499162,241.33125118233147 85.64896712265909,241.43993556097848 86.30884492292535,241.467106648779 87.01585685194004,241.60296204724 87.62860052380711,241.73881737771444 88.33561245270539,241.84750159308896 88.90122199605685,241.98335680097807 89.46683153917547,242.14638296081102 90.24454466102179,242.28223801919376 90.78658714005724,242.39092201687163 91.42289787600748,242.47243498652824 92.08277567662299,242.52677695266902 92.69551934825722,242.49960597095196 93.3789642129559,242.41809300947352 93.5910677916836,242.85282852125238 93.68533604906406,243.45058871270157 93.5910677916836,244.04834758714424 93.5910677916836,244.67327591139474 93.5910677916836,245.3525441965612 93.40253127738833,246.0046401504369 93.14329357014503,246.6023933980905 92.74265347700566,246.84692843802623 92.3655804481823,247.20014532879577 92.1299098051386,247.2273158398748 92.48341576964594,247.06429273291724 92.93118999141734,246.73824622522807 93.44966540590394,247.06429273291724 94.13311027060263,247.4446798300196 94.69871981383767,247.36316835411708 95.19362816424109,246.9012695280835 95.35859761433676,246.22200512015843 95.31146348558832,245.67859236945515 95.38216467853636,244.97215416640393 95.38216467853636,244.37439732719213 95.40573174285237,243.7766391710611 95.45286587136798,243.17887969806907 95.4764329358004,242.5811189080414 95.31146348558832,242.49960597095196 94.9815245855134,242.60828988158028 94.55731742817443,242.49960597095196 94.51018329942599,242.14638296081102 94.43948210659437,242.01052783447085 94.13311027060263,242.14638296081102 93.7796043062117,242.2007249923481 93.0961594413966,242.22789600398391 92.43628164101392,242.33658002340235 91.77640384063125,242.36375102147576 91.09295897581615,242.28223801919376 90.43308117554989,242.14638296081102 89.74963631073479,241.98335680097807 89.11332557478454,241.84750159308896 88.45344777428545,241.73881737771444 87.79356997390278,241.54861989605706 87.22796043066774,241.4942777339602 86.54451556596905,241.38559337708284 85.90820482990239,241.27690897666616 85.29546115803532,241.19539564781007 84.61201629345305,241.1410534149618 84.0464067501016,241.08671117119957 83.33939482120331,241.05954004524392 82.72665114933625,241.0323689165525 82.09034041326959,240.84217093972256 81.47759674140252,240.73348632158013 80.79415187670384,240.59763048781315 80.11070701200515,240.57045931290486 79.42726214730646,240.4617745859141 78.8145184754394,240.38026101220748 78.20177480368875,240.271576209052 77.6125981961377,240.16289136229898 76.95272039587144,240.10854892269708 76.24570846685674,240.05420647215215 75.65653185930569,239.89117905529565 74.99665405892301,239.80966531005106 74.43104451557156,239.7009802783141 73.77116671518888,239.5922952031251 73.13485597912222,239.4564387978171 72.59281350031961,239.37492492201272 71.95650276413653,239.211897096975 71.32019202806987,239.13038314765436 70.7310154204024,239.02169784385478 70.0004364271881,238.88584115280537 69.38769275532104,238.7771557510132 68.58641256915871,238.64129893758218 67.99723596172407,238.5326134378265 67.38449228985701,238.4510992844589 66.77174861810636,238.2608994980401 66.13543788192328,238.01635671951226 65.56982833868824,237.63595640362473 65.1927553099813,237.1740410173661 64.86281640967354,236.6577817138459 64.27363980212249,236.25020788551774 63.66089613037184,236.08717818272999 63.02458539430518,235.92414838197874 62.3647075939225,235.81546179373981 61.79909805068746,235.70677516196156 61.1627873146208,235.6252601595188 60.57361070706975,235.48940176767064 59.89016584248748,235.3807150053035 59.34812336356845,235.29919990486815 58.688245563185774,235.21768478001468 58.099068955518305,235.1089979087119 57.50989234808367,235.08182618414867 56.80288041906897,235.0274827266985 56.19013674731832,234.89162403557566 55.55382601113524,234.6470782199758 54.91751527506858,234.5927346754761 54.281204538885504,234.42970397672616 53.692027931450866,234.2938449862413 53.0792842595838,234.23950137090287 52.466540587716736,234.1036422852485 51.853796915966086,233.94061129249167 51.26462030853145,233.80475205706898 50.604742508148775,233.5602052618342 50.01556590059772,233.45151772652753 49.47352342167869,233.28848634188762 48.790078556980006,233.15262677989085 48.20090194954537,232.96242327868822 47.493890020414256,232.77221964421915 46.83401222003158,232.60918785148533 46.31553680554498,232.28312397189438 45.84419551945757,231.9842317379953 45.49068955495022,231.46796255838126 44.854378818767145,231.16906942627975 44.21806808270048,231.0332088028954 43.511056153685786,230.9516923961928 42.874745417619124,230.92452025521197 42.21486761723645,230.89734811143717 41.531422752537765,230.8701759649557 40.9186790806707,230.8430038157967 40.28236834460404,230.7614873519633 39.504655222641304,230.7614873519633 38.891911550890654,230.70714302913984 38.18489962187596,230.65279869537335 37.50145475717727,230.62562652438646 36.818009892478585,230.59845435075113 36.15813209209591,230.57128217438003 35.521821355912834,230.54410999524407 34.88551061984617,230.51693781337235 34.24919988377951,230.46259344159625 33.58932208328042,230.408249058848 32.95301134721376,230.3267324642802 32.269566482515074,230.35390466521494 31.6096886821324,230.2452158453234 30.94981088163331,230.0550103057467 30.31350014556665,229.81046013033483 29.700756473699585,229.51156517211348 29.088012801948935,229.32135911812657 28.404567937366664,229.10398060749867 27.838958394131623,228.83225722413044 27.226214722264558,228.5877059464401 26.589903986197896,228.20729240961373 26.024294442962855,227.9355681280722 25.529386092559434,227.47363622495322 24.98734361375682,227.20191120851086 24.398167006205767,226.9573584610771 24.04466104169842,226.68563292751787 23.455484434147365,226.5497700588021 22.81917369819712,226.38673452637158 22.3006982835941,226.1965262813901 21.68795461161062,226.08783579579904 21.028076811227947,225.89762734121177 20.3917660752777,225.68024608693668 19.755455339094624,225.517210031976 19.119144603027962,225.3541738789645 18.506400931160897,225.21831034321804 17.7993890021462,225.05527401066502 17.18664533039555,224.91941032529576 16.550334594212472,224.72920105143567 15.890456793829799,224.5933372027357 15.207011929131113,224.43030049448134 14.523567064432427,224.29443649601308 14.712103578727692,223.56076972876326 14.947774221887812,222.85427392923157 15.207011929131113,222.2292953421129 15.419115507858805,221.46844990106183 15.607652022270486,220.8162949673424 15.843322665197775,220.21848490057164 16.031859179609455,219.59350024038577 16.196828629705124,218.96851414014236 16.456066336948425,218.31635319584166 16.691736980108544,217.71853761954117 16.833139365771785,217.17506777035305 17.06881000881549,216.46855533847702 17.210212394595146,215.89790933855693 17.42231597332284,215.3000884318899 17.681553680682555,214.72943997356924 18.035059645189904,214.13161649150425 18.34143148106523,213.50661780586233 18.600669188424945,212.99031345767435 18.90704102430027,212.33813813928282 19.236979924491607,211.82183156663086 19.54335176036693,211.25117579032667 19.87329066055827,210.7348671485379 20.203229560749605,210.21855752391275 20.533168460940942,209.70224691645126 20.88667442544829,209.1315866803925 21.24018038995564,208.64244837957085 21.59368635446299,208.12613477170817 21.97075938328635,207.66416913151625 22.347832412226126,207.12067913555074 22.748472505132668,206.6858863546513 23.33764911268372,206.6858863546513 23.997526913066395,206.9032828322088 24.61027058493346,207.14785366118304 25.317282513948157,207.3652497684525 25.85932499275077,207.55547121935524 26.472068664617836,207.69134360266617 27.131946465116926,207.8543903727841 27.673988944035955,208.07178591369302 28.23959848715458,208.26200686907396 28.899476287537254,208.42505329605774 29.488652895088308,208.64244837957085 29.912860052427277,208.72397149103926 30.57273785280995,208.96854067817912 31.279749781941064,209.21310964482836 31.751091067912057,209.45767839092878 32.24599941819906,209.59354982120567 32.67020657565445,209.70224691645126 33.16511492594145,209.83811822423013 33.801425662008114,210.13703486177837 34.46130346239079,210.27290595174418 35.02691300562583,210.46312536334153 35.097614198573865,210.3544285731041 34.64983997668605,210.19138330596616 34.2256328194635,210.02833794077742 33.84855979052372,209.91964097620803 33.49505382613279,209.81094396815752 33.09441373299342,209.67507264669985 32.8116089614341,209.34898119760328 32.88231015438214,208.96854067817912 32.97657841152977,208.64244837957085 33.09441373299342,208.2891812804155 33.18868199014105,207.90873927428038 33.04727960436139,207.41959876811597 32.69377363997046,207.22937722189818 32.293133546831086,207.01198100557667" stroke="#4DD2FF" stroke-linecap="round" stroke-linejoin="round" stroke-width="0.5"><title>2025-10-22 10.2km</title><desc>9223370275716227807</desc></polyline><polyline fill="none" points="105.05122873338405,225.5596985987795 104.83686200372176,224.56470117614663 104.5,224.35148669795308 104.60718336474383,223.71184168604668 105.02060491492739,223.3920182929578 105.46465028356761,223.60523395403288 107.37863894138718,223.5696980288194 107.59300567104947,222.9833542076376 108.1748582230648,222.85897799000668 108.84858223056654,223.1077303358179 112.38563327025622,223.12549834685342 113.50340264645638,223.40978627474396 117.68355387524934,223.67630578267563 125.09451795835048,225.86175025513512 128.84593572776066,226.50138731539482 131.72457466914784,226.14603368508688 132.71984877128853,225.80844706002972 133.48544423439307,225.9683565961459 141.9835538751795,225.80844706002972 148.6289224952925,225.22211082917056 150.02230623818468,225.29318199334375 150.26729678630363,225.61300187061715 157.57107750471914,226.32371059151774 161.7971644612262,226.99888117112278 164.82892249530414,227.14102200999332 166.83478260866832,226.99888117112278 169.52967863890808,226.3947813029372 175.42476370511577,224.1027361411252 178.16559546312783,223.48085818366962 182.29981096403208,223.5874659923429 185.37750472588232,224.26264725440706 185.5,224.06720031805162 185.25500945182284,223.8539852264803 182.77448015118716,223.12549834685342 180.26332703209482,222.96558618199197 177.78279773157556,223.1432663560263 175.24102079391014,223.69407373529975 169.14688090741402,226.18156908097444 163.91020793950884,226.85674021553132 152.76313799619675,225.25764641491696 148.87391304341145,225.23987862298964 140.62079395080218,225.79067932465114 134.38884688087273,225.70184062044427 128.4325141776353,226.50138731539482 126.59508506610291,226.28817522482132 125.46200378070353,225.7551438484661 117.83667296776548,223.7829134708736 113.61058601131663,223.28541036379465 112.95217391295591,223.71184168604668 108.58827977307374,223.65853782827617 108.15954631374916,223.97836072850623 107.85330812848406,226.28817522482132 104.60718336474383,226.32371059151774 104.53062381845666,226.1282659844146 104.82155009446433,226.1282659844146 104.95935727778124,225.63076962424384 105.1584120983025,225.63076962424384" stroke="#4DD2FF" stroke-linecap="round" stroke-linejoin="round" stroke-width="0.5"><title>2024-11-02 10.7km</title><desc>1730492811000</desc></polyline></svg>