<?xml version="1.0" encoding="utf-8" ?>
<svg baseProfile="full" height="300mm" version="1.1" viewBox="0,0,200,300" width="200mm" xmlns="http://www.w3.org/2000/svg" xmlns:ev="http://www.w3.org/2001/xml-events" xmlns:xlink="http://www.w3.org/1999/xlink"><defs /><rect fill="#222222" height="300" width="200" x="0" y="0" /><text fill="#FFFFFF" style="font-size:12px; font-family:Arial; font-weight:bold;" x="10" y="20">Over 10km Runs</text><text fill="#FFFFFF" style="font-size:4px; font-family:Arial" x="10" y="280">Runner</text><text fill="#FFFFFF" style="font-size:9px; font-family:Arial" x="10" y="290">magisk</text><text fill="#FFFFFF" style="font-size:4px; font-family:Arial" x="65" y="280">SPECIAL TRACKS</text><rect fill="yellow" height="2.6" width="2.6" x="65" y="283" /><text fill="#FFFFFF" style="font-size:3px; font-family:Arial" x="70" y="285.5">Over 20.0 km</text><rect fill="red" height="2.6" width="2.6" x="65" y="287" /><text fill="#FFFFFF" style="font-size:3px; font-family:Arial" x="70" y="289.5">Over 40.0 km</text><text fill="#FFFFFF" style="font-size:4px; font-family:Arial" x="120" y="280">STATISTICS</text><text fill="#FFFFFF" style="font-size:3px; font-family:Arial" x="120" y="285">Number: 7</text><text fill="#FFFFFF" style="font-size:3px; font-family:Arial" x="120" y="290">Weekly: 1.2</text><text fill="#FFFFFF" style="font-size:3px; font-family:Arial" x="141" y="285">Total: 80.5 km</text><text fill="#FFFFFF" style="font-size:3px; font-family:Arial" x="141" y="290">Avg: 11.5 km</text><text fill="#FFFFFF" style="font-size:3px; font-family:Arial" x="167" y="285">Min: 10.1 km</text><text fill="#FFFFFF" style="font-size:3px; font-family:Arial" x="167" y="290">Max: 13.3 km</text><polyline fill="none" points="21.161832061072346,50.76184985294094 21.099999999976717,50.547958093709894 20.95572519081179,50.2746513955135 20.584732824470848,50.26276848129055 20.203435114526656,50.36971466633986 19.78091603051871,50.310300130986434 19.430534351151437,50.191470971054514 19.13167938927654,50.14393927371566 18.843129771004897,50.04887582190713 18.688549618294928,50.23900264932308 18.523664122156333,50.488543647690676 18.348473282472696,50.78561558014917 18.070229007629678,50.97574122640799 17.843511450395454,51.23716349231836 17.668320610711817,51.46293680366216 17.45190839690622,51.68870968522242 17.245801526703872,52.02142683247075 17.080916030565277,52.30661221581977 16.95725190837402,52.5917969133443 16.720229007594753,52.888863577383745 16.514122137392405,53.10275111476221 16.24618320609443,53.411699098869576 16.132824427448213,53.72064627822692 15.957633587764576,54.089005324814934 15.833969465631526,54.40983323971159 15.607251908397302,54.73066028676112 15.535114503756631,55.06336890040984 15.473282442777418,55.38419417965633 15.329007633554284,55.75254805971781 15.195038167934399,56.025842134680715 15.061068702314515,56.39419402204658 14.968320610700175,56.67936889111297 14.85496183205396,56.988307558887755 14.76221374043962,57.29724542199983 14.659160305338446,57.6061824804201 14.525190839718562,57.950765173271066 14.442748091649264,58.27158264259924 14.339694656489883,58.60428132393281 14.226335877843667,58.88945087949105 13.83473282441264,58.77063031464786 13.422519083949737,58.67557377707999 13.164885496138595,58.61616340241744 13.133969465678092,58.806276496594364 13.46374045801349,58.90133292941027 13.80381679389393,58.925097025727155 14.133587786229327,59.020153363308054 14.473664122167975,59.09144556654064 14.834351145022083,59.222147827800654 15.143511450383812,59.30532191907696 15.514503816782963,59.41225995073182 15.823664122144692,59.48355191829614 16.204961832088884,59.57860780835472 16.49351145036053,59.66178164968733 16.87480916030472,59.74495543269586 17.307633587741293,59.85189306805114 17.627099236648064,59.92318477137451 17.946564885496628,60.00635837105801 18.2660305344034,60.101413842210604 18.60610687022563,60.267760733375326 18.874045801523607,60.42222549489816 19.13167938927654,60.600453815939545 19.451145038125105,60.80244558944105 19.75,60.98067333919607 20.05916030536173,61.11137351882644 20.33740458014654,61.23019173898501 20.656870228995103,61.360891643722425 20.98664122138871,61.50347319369757 21.295801526750438,61.61040924376721 21.656488549604546,61.705463429534575 21.97595419845311,61.74110872955498 22.326335877820384,61.77675401889428 22.6870229007327,61.77675401889428 23.02709923661314,61.80051753915177 23.429007633589208,61.83616281061404 23.73816793889273,61.848044565398595 24.109160305350088,61.85992631897534 24.449236641230527,61.88368982257089 24.809923664142843,61.907453321429784 25.13969465647824,61.919335069054796 25.459160305385012,61.943098560710496 25.830152671725955,61.97874378939014 26.12900763360085,61.990625529877434 26.520610687031876,62.0025072691933 26.87099236639915,62.02627074420161 27.221374045766424,62.07379768000101 27.540839694673195,62.15696977186599 27.86030534352176,62.24014180533413 28.179770992370322,62.31143207336572 28.499236641218886,62.394603998574894 28.84961832058616,62.47777586547454 29.148473282461055,62.560947674064664 29.457633587764576,62.62035607308644 29.766793893126305,62.72729111628723 30.106870229006745,62.798581091577944 30.45725190837402,62.90551597416197 30.79732824425446,63.00056912220316 31.10648854955798,63.07185893325368 31.477480916073546,63.155030325338885 31.745419847371522,63.20255680887931 31.930916030541994,63.2738464985523 31.76603053434519,63.29760971892392 32.456488549592905,63.57088641101291 32.79656488553155,63.60653115052264 33.12633587786695,63.65405745324824 33.456106870260555,63.713465304834244 33.78587786259595,63.784754687483655 34.136259542021435,63.844162473593315 34.45572519081179,63.90357023000979 34.75458015262848,63.95109641368617 35.08435114502208,64.01050411650795 35.39351145038381,64.06991178962926 35.71297709917417,64.11743790669425 36.00152671756223,64.2243716004159 36.23854961828329,64.4263572034688 36.46526717557572,64.67586835590919 36.69198473280994,64.88973464033916 36.97022900765296,65.06795624954248 37.29999999998836,65.12736339306866 37.629770992381964,65.21053334411408 37.92862595419865,65.26994041626313 38.22748091601534,65.31746605258377 38.52633587789023,65.37687307121087 38.835496183193754,65.42439866469067 39.15496183204232,65.48380562975944 39.495038167980965,65.54321256510593 39.82480916031636,65.59073809192341 40.12366412219126,65.65014497371158 40.484351145045366,65.7214331925934 40.81412213743897,65.79272136863437 41.12328244274249,65.8402467955093 41.42213740455918,65.88777220336488 41.71068702288903,65.92341624676192 42.030152671737596,65.9590602794342 42.34961832064437,66.01846697683504 42.66908396949293,66.06599231327709 42.97824427479645,66.11351763067069 44.719847328262404,66.25609346874262 45.029007633565925,66.36302523483755 45.40000000002328,66.39866913543665 45.75038167939056,66.45807561267429 46.090458015271,66.51748206012417 46.420229007606395,66.58876975783642 46.770610687031876,66.66005741272238 47.09007633588044,66.70758249217033 47.39923664124217,66.80263259397907 47.70839694654569,66.85015761631075 48.038167938939296,66.89768261960853 48.347328244301025,66.88580137057579 48.66679389314959,66.83827636247588 48.872900763351936,67.06401998123329 48.872900763351936,67.39669400487037 48.841984732833225,67.77689174685656 48.82137404580135,68.09768264396553 48.72862595418701,68.43035376926127 48.63587786263088,68.72738077153917 48.91412213741569,68.96500183791795 49.05839694652241,69.1669793702531 49.14083969464991,69.48776650893706 49.46030534344027,69.54717143942253 49.831297709955834,69.5709334033163 50.15076335874619,69.5709334033163 50.49083969468484,69.55905242195149 50.820610687020235,69.55905242195149 51.129770992381964,69.55905242195149 51.43893129774369,69.53529045569303 51.74809160310542,69.55905242195149 52.13969465647824,69.58281438345148 52.47977099235868,69.59469536241522 52.799236641207244,69.59469536241522 53.108396946510766,69.59469536241522 56.39580152678536,69.87983850065939 56.766793893126305,69.89171944985719 57.08625954197487,69.86795755019557 57.25114503817167,69.9154813447094 57.59122137405211,69.89171944985719 57.94160305347759,69.86795755019557 58.281679389299825,69.85607659861125 58.61145038169343,69.84419564580458 58.92061068699695,69.85607659861125 59.25038167939056,69.86795755019557 59.60076335881604,69.85607659861125 59.90992366411956,69.87983850065939 60.28091603051871,69.90360039785446 60.6622137404629,69.89171944985719 61.00229007634334,69.87983850065939 61.33206106867874,69.86795755019557 61.661832061072346,69.83231469182647 61.970992366434075,69.85607659861125 62.29045801528264,69.87983850065939 62.59961832058616,69.90360039785446 62.949999999953434,69.92736229037837 63.248854961886536,69.92736229037837 63.56832061067689,69.87983850065939 63.90839694661554,69.85607659861125 64.2278625954641,69.84419564580458 64.57824427483138,69.84419564580458 64.87709923664806,69.83231469182647 65.20687022904167,69.7847908640033 65.54694656492211,69.7847908640033 65.86641221377067,69.74914798067766 66.16526717558736,69.74914798067766 66.39198473282158,69.65410023940785 66.65992366411956,69.4996474974032 66.95877862599446,69.32143254526454 66.95877862599446,69.00064495686092 66.95877862599446,68.67985650113405 66.95877862599446,68.37094827962574 66.76297709922073,68.14520714755781 66.46412213746225,68.22837498301669 66.16526717558736,68.3115427601806 64.18664122134214,68.65609435881197 63.80534351145616,68.6085700598851 63.44465648860205,68.56104574186611 63.053053435112815,68.50164031762688 62.712977099232376,68.45411595683981 62.341984732833225,68.38282937991607 62.01221374049783,68.35906717809848 61.661832061072346,68.2640183231997 61.28053435112815,68.13332602344599 60.99198473285651,67.99075244129926 60.631297709885985,67.83629753398418 60.32213740458246,67.78877290664968 59.94083969469648,67.82441637894226 59.60076335881604,67.87194099198678 59.30190839699935,68.00263357967924 58.992748091579415,68.15708827046183 58.69389312976273,68.28778054409486 58.39503816788783,68.37094827962574 58.01374045800185,68.35906717809848 57.71488549624337,68.35906717809848 57.323282442754135,68.34718607538525 57.00381679390557,68.34718607538525 56.59160305344267,68.33530497151514 56.26183206104906,68.32342386642267 55.88053435116308,68.3115427601806 55.530152671737596,68.3115427601806 55.21068702294724,68.27589943425119 54.87061068700859,68.24025609758974 54.571755725250114,68.22837498301669 54.21106870227959,68.18085051274102 53.891603053489234,68.13332602344599 53.79885496181669,67.89570329137496 53.65458015270997,67.80065406527865 53.34541984734824,67.74124826031039 53.015648854954634,67.65808008337626 52.71679389313795,67.586793028182 52.345801526738796,67.38481280582346 52.098473282472696,67.15906979744614 51.84083969471976,66.87392012032797 51.58320610685041,66.66005741272238 51.26374045800185,66.56500719672476 50.913358778634574,66.49371948472253 50.62480916030472,66.39866913543665 50.18167938932311,66.33926262846944 47.409541984729,66.76698881470656 47.05916030536173,66.68381995482923 46.70877862593625,66.600651036606 46.35839694656897,66.54124463081098 46.03893129772041,66.46995690454787 45.69885496183997,66.41055043327651 45.35877862595953,66.37490653620625 45.03931297711097,66.32738132352824 44.69923664123053,66.29173740147962 44.379770992381964,66.27985609173629 44.0603053435334,66.19668689036189 43.74083969462663,66.17292425070627 43.421374045778066,66.12539895706868 43.07099236641079,66.07787364440446 42.73091603053035,66.04222964739165 42.41145038162358,65.98282296198158 42.10229007632006,65.93529759218654 41.80343511450337,65.89965355237655 41.473664122167975,65.85212814927218 41.10267175571062,65.80460272709752 40.79351145034889,65.74519592269644 40.484351145045366,65.6976704577246 40.15458015270997,65.6145008482199 39.8351145038032,65.56697533089027 39.515648854954634,65.51944979451946 39.16526717558736,65.44816145426739 38.835496183193754,65.40063587031909 38.47480916028144,65.34122886358091 38.15534351149108,65.28182182712044 37.80496183200739,65.21053334411408 37.506106870248914,65.16300766493805 37.18664122134214,65.09171911050362 36.053053435112815,64.20060856571945 35.73358778626425,64.09367485054827 35.372900763351936,64.02238565353036 35.01221374049783,63.9629779566385 34.6206106870668,63.89168868109118 34.28053435112815,63.83228091875935 33.96106870227959,63.784754687483655 33.65190839691786,63.713465304834244 33.332442748127505,63.65405745324824 32.97175572521519,63.60653115052264 32.62137404578971,63.547123245378316 32.28129770990927,63.49959689987736 31.961832061060704,63.44018894114561 31.652671755757183,63.392662552781985 31.7969465648639,63.333254540550115 31.900000000023283,63.09562219406507 31.559923664142843,62.964924200598034 31.219847328262404,62.90551597416197 30.869465648836922,62.8342260631689 30.477862595405895,62.73917278183944 30.179007633589208,62.65600109816296 29.746183206152637,62.53718430612935 29.41641221375903,62.45401248089183 29.045419847301673,62.358958894932584 28.705343511421233,62.27578694469412 28.38587786257267,62.18073321592237 27.994274809141643,62.085679410964076 27.633587786287535,61.990625529877434 27.30381679389393,61.88368982257089 27.015267175622284,61.81239929749427 25.38702290074434,61.76487225697929 25.00572519080015,61.75299049386376 24.655343511432875,61.71734519738675 24.3049618320656,61.693581660489144 23.944274809153285,61.693581660489144 23.593893129727803,61.669818118811236 23.25381679390557,61.657936346164206 22.9343511449988,61.63417279733403 22.604580152663402,61.622291021150886 22.274809160269797,61.59852746519027 21.9450381679344,61.56288212232175 21.635877862630878,61.515354981820565 21.32671755721094,61.43218244014861 21.027862595394254,61.24207355445833 20.77022900764132,61.11137351882644 20.388931297697127,61.08760986050038 20.131297709944192,60.95690965466929 19.945801526657306,60.87373672144895 19.677862595475744,60.75491814423003 19.31717557256343,60.55292628985626 18.997709923714865,60.350934091504314 18.69885496183997,60.184587316951365 18.348473282472696,60.00635837105801 18.03931297705276,59.875656973912555 17.70954198477557,59.768719360014074 17.379770992381964,59.685545593631105 17.04999999998836,59.61425374751707 16.699618320621084,59.51919788598752 16.390458015201148,59.436023944668705 16.00916030537337,59.352849945033086 15.6896946564666,59.28155789894663 15.256870229030028,59.16273772690329 14.865267175540794,59.07956353564805 14.617938931332901,59.0082713252923 14.226335877843667,58.91321497815807 13.875954198476393,58.830040611937875 13.55648854962783,58.74686618739361 13.206106870202348,58.66369170454709 13.03091603051871,58.79439443710726 13.381297709944192,58.91321497815807 13.721374045824632,58.8656867760219 14.040839694673195,58.90133292941027 14.288167938939296,58.77063031464786 14.39122137404047,58.414167905990325 14.494274809141643,58.09335082232428 14.597328244301025,57.76065070791083 14.710687022889033,57.39230306412355 14.824045801477041,57.08336544859776 14.927099236636423,56.75066250125383 15.019847328250762,56.429840918171976 15.13320610683877,56.120900795773196 15.236259541939944,55.80007750928053 15.329007633554284,55.479253354984394 15.432061068713665,55.17031075654813 15.864885496150237,54.18406553824752 16.070992366410792,53.815706786859664 16.277099236671347,53.49487726478401 16.483206106873695,53.15028162623639 16.679007633589208,52.84133296117216 16.854198473272845,52.55614886362309 17.04999999998836,52.259081366188184 17.245801526703872,51.97389586860663 17.482824427483138,51.68870968522242 17.688931297685485,51.42728841465578 17.936259541951586,51.13021808955091 18.276335877832025,51.26092912429158 18.585496183251962,51.35599160451966 18.966793893137947,51.49858518198016 19.286259541928302,51.605530252549215 19.636641221353784,51.71247522669 19.956106870202348,51.819420104402525 20.265267175564077,51.92636488565768 20.667175572540145,52.03330957049184 20.98664122138871,52.116488703133655 21.347328244301025,52.259081366188184 21.656488549604546,52.401673857850255 21.965648854908068,52.47297003935819 22.212977099232376,52.377908454487624" stroke="#4DD2FF" stroke-linecap="round" stroke-linejoin="round" stroke-width="0.5"><title>2026-01-09 12.5km</title><desc>9223370268891375807</desc></polyline><polyline fill="none" points="140.48839154985035,49.139100027721724 140.4658021334908,49.07398121606093 140.44321271701483,49.25631380651612 140.17213971971069,49.399574948169175 139.58481489232508,49.50376477019745 139.06525831413455,49.42562241150881 138.59088056895416,49.32143252683454 138.17297636478906,49.12607626800309 137.90190336748492,49.29538504264201 137.6760092031327,49.71214416367002 137.3258732482791,49.99866528419079 137.04350554279517,50.311233059022925 136.7950219619088,50.62380008220498 136.5465383810806,50.96241350908531 136.2528759673587,51.35312021325808 136.02698180294828,51.691731740225805 135.83497176325181,52.00429544370854 135.58648818242364,52.43406930883066 135.34929930977523,52.7987248073041 135.10081572894705,53.137332568498095 134.9539845220861,53.50198609411018 134.75067977415165,53.90570844714239 134.55866973433876,54.2312900765246 134.40054381929804,54.595940533370594 134.20853377954336,54.92152043399983 134.15206023841165,55.364307790237945 134.01652373978868,55.76802435943682 133.8809872411657,56.145693563245004 133.74545074254274,56.51033864996862 133.60991424386157,56.95312059453863 133.4743777452386,57.3568322295323 133.31625183013966,57.799611290945904 133.20330474799266,58.17727459274465 133.10165237396723,58.541913981040125 133.04517883289373,58.932597905019065 133.42919891240308,59.16700769581075 133.84710311650997,59.25816694475361 134.19723907130538,59.34932612981356 134.63773269188823,59.45350797730498 135.0104580631596,59.55768974132661 135.4283622673247,59.64884871632967 135.81238234683406,59.74000762742071 136.2641706755967,59.87023453238362 136.65948546328582,59.94837061276485 137.06609495921293,60.065574645253946 137.46140974690206,60.18277857211069 137.86801924282918,60.36509558165562 138.16168165655108,60.5864801780408 138.54570173600223,60.83390957496886 138.89583769085584,61.04227080718556 139.24597364565125,61.22458661139535 139.65258314163657,61.393879629293224 139.991424388194,61.53712739532057 140.3980338841211,61.70642000620137 140.79334867181024,61.84966742787219 141.24513700063108,61.95384727178316 141.65174649649998,62.005937162437476 142.01317715959158,62.018959631823236 142.5327337377239,62.058027032224345 142.8941644007573,62.058027032224345 143.32336331310216,62.11011688110011 143.7186781007913,62.12313934008125 144.18176113785012,62.13616179773817 144.59966534201521,62.16220670915209 145.0175695461221,62.18825161529821 145.4354737502872,62.214296516322065 145.8420832461561,62.24034141207812 146.2599874503212,62.25336385802075 146.72307048738003,62.27940874591877 147.14097469148692,62.33149850612972 147.60405772848753,62.42265553632751 147.9880778079969,62.526834921052796 148.37209788750624,62.63101422235195 148.76741267513717,62.73519344018132 149.15143275464652,62.8393725745118 149.5128634176799,62.93052924860967 149.88558878889307,63.034708226434304 150.2809035766404,63.12586476354045 150.6988077808055,63.23004358483013 151.12800669315038,63.334222322679125 151.54591089731548,63.451423302976764 151.97510980966035,63.52955723114428 152.37042459734948,63.60769111236732 152.21229868225055,63.698847247767844 152.1897092658328,63.8030256099446 152.61890817823587,63.85511475977546 152.98033884121105,63.90720388870977 153.37565362890018,63.985337542995694 153.80485254130326,64.06347115030803 154.2001673289924,64.14160471064679 154.6180715331575,64.1936937247956 154.97950219613267,64.25880496317404 155.40870110853575,64.32391616891255 155.74754235515138,64.38902734205476 156.1428571428405,64.45413848257158 156.48169838945614,64.5452940245741 156.87701317714527,64.6234272953734 157.17067559086718,64.87084900990885 157.38527504709782,65.14431456767488 157.66764275258174,65.40475742130366 157.97259987448342,65.58706710844126 158.36791466217255,65.66519975326082 158.71805061702617,65.74333235115046 159.0568918636418,65.79542072363256 159.42961723485496,65.873553243262 159.87011085543782,65.9516857159033 160.28801505966112,66.02981814160012 160.63815101445653,66.08190639932582 161.0108763856697,66.14701669216447 161.44007529807277,66.22514900051465 161.76762183645042,66.2772371799656 162.16293662408134,66.35536941007013 162.52436728717294,66.40745753739611 162.8970926583861,66.47256766718056 163.30370215437142,66.52465574756206 163.6651328174048,66.57674380706158 164.07174231333192,66.64185385205201 164.47835180925904,66.69394186460704 164.81719305587467,66.73300786034088 165.05438192840666,66.77207384431676 165.23509725998156,66.7850958363706 165.47228613257175,66.8502057770529 165.86760092026088,66.92833766287367 166.28550512442598,66.96740358819079 166.70340932853287,67.03251343760348 167.21167119848542,67.09762325439078 167.65216481906828,67.16273303859634 168.0587743149954,67.25388668174855 168.47667851910228,67.31899638770847 168.8832880150294,67.4101499212702 169.26730809453875,67.48828147063614 169.60614934109617,67.5533910591912 169.85463292192435,67.57943488554156 170.09182179457275,67.60547870663868 170.28383183432743,67.60547870663868 170.50972599873785,67.59245679671585 170.69044133025454,67.5533910591912 170.85986195353325,67.6575663331605 170.92763020284474,68.00915726652602 170.92763020284474,68.43887822746183 170.893746078189,68.85557598488231 170.780798996042,69.33738110237755 170.70173603849253,69.71501089246885 171.0179878686322,69.92335789345088 171.19870320014888,70.27494270064926 171.45848148927325,70.509332044021 171.87638569338014,70.54839689352957 172.2604057728895,70.54839689352957 172.6670152687584,70.509332044021 173.0171512235538,70.509332044021 173.4463501359569,70.509332044021 173.7964860907523,70.509332044021 174.19180087849963,70.509332044021 174.5080527086393,70.52235366182867 174.95984103740193,70.52235366182867 175.35515582514927,70.54839689352957 175.6939970717067,70.58746173126565 176.1119012758718,70.65256976810633 176.4620372306672,70.71767777235073 176.9251202676678,70.78278574398428 177.2865509307594,70.83487209783925 177.6366868855548,70.89998001084314 178.02070696506416,70.92602316688863 178.44990587735083,70.92602316688863 178.81133654044243,70.91300158949161 179.21794603642775,70.92602316688863 179.57937669940293,70.88695843088499 179.9521020706743,70.88695843088499 180.40389039949514,70.89998001084314 180.7879104790045,70.87393684952985 181.1945199748734,70.87393684952985 181.56724534620298,70.86091526695236 181.9060865927604,70.86091526695236 182.30140138039133,70.84789368303609 182.69671616813866,70.86091526695236 183.0355574147543,70.87393684952985 183.47605103527894,70.91300158949161 183.83748169837054,70.89998001084314 184.23279648611788,70.87393684952985 184.67329010664253,70.83487209783925 185.05731018609367,70.86091526695236 185.5203932231525,70.86091526695236 185.89311859442387,70.88695843088499 186.35620163142448,70.93904474297597 186.72892700269585,70.95206631772453 186.83057937666308,70.52235366182867 186.8757582095568,70.17076952352363 186.95482116704807,69.76709767403372 186.89834762597457,69.40248976512521 186.48044342186768,69.37644630389696 186.07383392599877,69.33738110237755 185.67851913825143,69.27227240701905 185.24932022584835,69.1811201787641 184.85400543821743,69.0899678866408 184.5151641915436,68.94672844131128 184.16502823674819,68.77744525710295 183.8035975737148,68.64722727310436 183.41957749420544,68.59514004297671 183.0355574147543,68.63420546753332 182.6741267516627,68.69931448235002 182.3239907968673,68.84255420019326 181.93997071741614,69.03788083388645 181.53336122148903,69.19414192957629 181.0815728926682,69.24622891975741 180.7201422296348,69.2201854272862 180.34741685836343,69.2201854272862 179.91821794601856,69.19414192957629 179.57937669940293,69.19414192957629 179.184061911772,69.1811201787641 178.80004183220444,69.16809842667135 178.39343233627733,69.16809842667135 177.9416440075147,69.1160114051745 177.7044551348663,69.1160114051745 177.24137209786568,69.1029896465916 176.94770968414377,69.05090259901772 176.50721606361913,68.9988155306055 176.1683748169453,68.9597502155957 175.6939970717067,68.84255420019326 175.32127170043532,68.73837987560546 174.95984103740193,68.64722727310436 174.81300983059919,68.56909642012033 174.60970508260652,68.4649218764389 174.41769504285185,68.29563806497026 174.28215854422888,68.15239774463407 174.28215854422888,68.71233628141636 174.15791675378568,68.90766311067273 174.13532733736793,68.42585640102334 173.87554904830176,68.13937588954286 173.4463501359569,67.9180041528598 173.0736247646273,67.82685097531066 173.13009830581723,67.54036914408789 172.81384647561936,67.38410606105754 172.39594227145426,67.33201832497434 172.0119221919449,67.43619377628784 171.69567036180524,67.68361013859976 171.3681238234858,67.67058823654952 171.28906086593634,67.44921570181032 171.04057728504995,67.46223762603768 170.7130307467305,67.51432530999591 170.2386530014337,67.56641297302849 169.8320435055066,67.54036914408789 169.43672871781746,67.46223762603768 169.0075298054726,67.38410606105754 168.62350972602144,67.29295250918949 168.26207906292984,67.21482084249146 167.79899602592923,67.1236671719962 167.3923865300021,67.05855736824742 166.99707174231298,67.00646950173541 166.55657812173013,66.95438161438506 166.24032629153226,66.92833766287367 165.82242208742537,66.8762497442367 165.3932231750805,66.81113981654926 165.00920309557114,66.77207384431676 164.64777243253775,66.70696386450436 164.2637523530284,66.65487585718802 163.98138464754447,66.61580983798194 163.4957121941261,66.55069977989479 163.08910269814078,66.48558968924044 162.7276720351074,66.44652361917542 162.32106253918028,66.39443550749274 161.91445304331137,66.31630330090411 161.51913825556403,66.22514900051465 161.15770759247243,66.1600387468061 160.72850868018577,66.10795052036701 160.37837272539036,66.04284020799969 159.85881614725804,65.9516857159033 159.55385902529815,65.89959740599443 159.0568918636418,65.80844281347527 158.6954612005502,65.73031025473028 158.2210834553116,65.65217764906993 157.8144739593845,65.50893441670632 157.48692742106505,65.26151391638268 157.2723279648344,65.02711511333473 156.98996025935048,64.68853831851447 156.6172348880791,64.55831623960694 156.28968834975967,64.48018292969209 155.88307885377435,64.42809403029969 155.499058774265,64.34996064208099 155.0924492783961,64.28484944939555 154.69713449064875,64.20671597511682 154.29052499472164,64.15462696616305 153.9629784564022,64.08951567561598 153.63543191796634,64.03742661976139 153.43212716997368,64.01138208394696 153.13846475631,63.946270721702604 152.93516000837553,63.90720388870977 152.69797113578534,63.88115932684741 152.38171930558747,63.816047899381374 152.04287805903004,63.737914143363014 152.26877222344046,63.67280264417059 152.40430872200523,63.54257954796776 152.03158335073385,63.334222322679125 151.5910897302092,63.24306593165966 151.15059610956814,63.151909476699075 150.63103953149403,63.00866348978889 150.15666178619722,62.878439728345256 149.68228404101683,62.74821583653102 149.26437983685173,62.644036629164475 148.94812800671207,62.56590216883342 148.43986613681773,62.43567796393472 147.9880778079969,62.30545362865087 147.54758418735582,62.20127406649408 147.14097469148692,62.0970944208384 146.70048107096227,62.058027032224345 146.40681865718216,62.04500456672395 145.93244091188535,62.018959631823236 145.6161890817457,62.005937162437476 145.17569546122104,61.992914691742044 144.80297008994967,61.96686974639306 144.3737711776048,61.94082479584904 144.00104580633342,61.914779840109986 143.65090985153802,61.914779840109986 143.25559506373247,61.888734879146796 142.84898556786356,61.84966742787219 142.4649654883542,61.83664494153345 142.09224011714105,61.8105999649124 141.71951474586967,61.78455498305266 141.32419995818054,61.74548750050599 140.96276929514715,61.66735250018246 140.56745450739982,61.53712739532057 140.2737920936779,61.393879629293224 139.85588788957102,61.263654250476975 139.40409956075018,61.068315937693114 139.06525831413455,60.912045076169306 138.72641706751892,60.72972883367038 138.37628111272352,60.521367100591306 138.0374398661661,60.352072946567205 137.72118803596823,60.143710608244874 137.34846266469685,59.987438635362196 136.89667433593422,59.831166474628844 136.4900648399489,59.74000762742071 136.03827651124448,59.62280330141948 135.67684584815288,59.53164430813922 135.371888726193,59.4404852509324 134.93139510561014,59.32328065490583 134.52478560974123,59.23212145162688 134.1294708219939,59.1539849407709 133.79062957537826,59.07584838294133 133.3614306630334,58.95864345820155 133.0,58.828415640076855 133.15812591504073,58.41168574549374 133.25977828906616,58.099137447890826 133.37272537132958,57.69542811803694 133.49696716165636,57.31776341647492 133.6437983685173,56.888005697284825 133.7567454506643,56.52336166988243 133.91487136587966,56.10662438615691 134.01652373978868,55.74197816700325 134.14076553023187,55.32523837831104 134.2424179041991,54.97361314241425 134.4231332357158,54.62198695541883 134.45701736037154,54.38756896900304 134.55866973433876,54.1140807839256 134.6038485672325,53.94477828571689 134.75067977415165,53.710359078031615 134.96527923026588,53.34570613699907 135.17987868649652,52.98105217295233 135.40577285090694,52.5773269480851 135.67684584815288,52.14755355664238 135.88015059608733,51.86103717290098 136.16251830162946,51.405214351718314 136.3771177578019,51.1447434505244 136.6030119221541,50.858224856317975 136.8402007948025,50.51961115798622 137.07738966745092,50.311233059022925 137.52917799621355,50.50658753659809 137.94708220032044,50.66287090723927 138.29721815517405,50.7540361200372 138.65864881820744,50.87124844247592 138.97490064846352,50.96241350908531 139.25726835394744,51.066602078368305 139.48316251829965,51.13171989173861 139.91236143064452,51.30102605387219 140.31897092657164,51.405214351718314 140.74816983897472,51.54847312490165 141.1773687513196,51.691731740225805" stroke="#4DD2FF" stroke-linecap="round" stroke-linejoin="round" stroke-width="0.5"><title>2026-01-05 12.6km</title><desc>9223370269236958807</desc></polyline><polyline fill="none" points="20.104371470340993,109.21723275961995 19.934950847004075,109.33444650321326 19.4492783935857,109.41258894020575 18.839364149665926,109.30839901372383 18.41016523737926,109.21723275961995 18.03743986610789,109.12606644154585 17.732482744148,109.51677878304326 17.42752562224632,109.84237150383706 17.088684375572484,110.1940107261471 16.795021961908787,110.46750724136655 16.478770131769124,110.80612117720011 16.286760092014447,111.22287557953678 16.072160635783803,111.61358161816315 15.665551139856689,112.04335690427979 15.496130516577978,112.44708390893356 15.145994561724365,112.83778626787534 14.920100397372153,113.2154640986264 14.705500941199716,113.61918746279844 14.56996444251854,114.02290957311925 14.400543819239829,114.45267689335742 14.26500732061686,114.89546597964363 14.185944363067392,115.37732297748153 13.982639615132939,115.79406272443885 13.81321899179602,116.14568584672816 13.677682493114844,116.56242313045368 13.5308512863121,116.95311312063131 13.384020079451147,117.35682487704617 13.27107299718773,117.74751247977838 13.158125915040728,118.09913031845645 13.090357665729243,118.5158613401436 13.169420623278711,118.9065454597876 13.542145994491875,119.07584154701908 13.937460782239214,119.19304640134214 14.34407027810812,119.31025115000375 14.750679774093442,119.41443306011206 15.13469985354459,119.50559216295369 15.563898765889462,119.62279662986111 16.00439238647232,119.75302369134442 16.43359129881719,119.83115986564371 16.862790211220272,119.94836403902445 17.235515582433436,120.06556810677284 17.64212507836055,120.20881737938907 18.014850449631922,120.41717967596196 18.477933486690745,120.71669989230577 18.839364149665926,120.92506137491728 19.25726835388923,121.14644508431957 19.629993725160602,121.3287607972743 19.968834971718024,121.47200867808715 20.251202677201945,121.57618885590637 20.567454507399816,121.70641396076826 20.985358711564913,121.8236164436239 21.41455762385158,121.88872888845799 21.866345952730626,121.9408188208763 22.318134281493258,121.96686377922015 22.792512026790064,122.00593120697886 23.22171093907673,122.03197615232784 23.696088684315328,122.04499862302328 24.10269818024244,122.07104356051423 24.373771177546587,122.07104356051423 24.622254758374766,122.07104356051423 24.870738339202944,122.08406602730975 25.08533779543359,122.08406602730975 25.3112319597858,122.09708849279559 25.774314996844623,122.14917834168591 26.259987450321205,122.18824571470032 26.734365195501596,122.20126816973789 27.23133235721616,122.26638042545528 27.76218364352826,122.38358240350499 28.202677264111117,122.5007842759369 28.66576030116994,122.617986042751 28.936833298474085,122.68309808975027 29.185316879302263,122.73518770385999 29.56933695875341,122.83936686952075 29.987241162918508,122.95656833107932 30.4616189080989,123.0867920533492 30.91340723691974,123.20399329192878 31.399079690454528,123.30817208190274 31.85086801921716,123.41235078845057 32.29136163985822,123.50350708818587 32.765739385038614,123.58164100855356 33.22882242203923,123.68581949594954 33.66931604268029,123.75093100819504 34.15498849609867,123.81604248781514 34.60677682491951,123.90719850455935 35.058565153740346,123.95928762825497 35.51035348244477,124.05044354453275 35.97343651950359,124.14159939689853 36.42522484832443,124.25879968467052 36.854423760727514,124.32391090998135 37.05772850866197,124.42808880264056 37.24973854835844,124.57133326875919 37.40786446351558,124.83177734835772 37.746705710073,125.15733171420288 38.209788747131824,125.36568608056405 38.605103534820955,125.45684101089137 39.09077598829754,125.56101799586031 39.51997490064241,125.60008434364863 40.02823677053675,125.69123910965573 40.53649864043109,125.75634961764445 41.04476051038364,125.88657053583302 41.47395942272851,125.95168094600376 41.903158335073385,126.01679132360732 42.343651955598034,126.08190166858549 42.772850868001115,126.14701198096736 43.258523321477696,126.264210461115 43.65383810916683,126.31629864056595 44.11692114616744,126.38140883555752 44.53482535033254,126.45954102650285 44.975318970915396,126.60278325471154 45.32545492576901,126.70695932152739 45.709475005220156,126.85020127714961 46.12737920938525,126.90228922189272 46.5113992888364,126.95437714576838 46.895419368345756,126.99344307497086 47.313323572452646,127.0194870212581 47.708638360199984,127.12366275425302 48.13783727254486,127.18877254497784 48.53315206023399,127.27992619721044 49.01882451371057,127.35805784829427 49.425434009579476,127.46223330999783 49.8320435055648,127.54036485154938 50.249947709729895,127.55338677058171 50.67914662201656,127.50129908662348 50.93892491108272,127.77475919443532 50.93892491108272,128.28261215459497 50.91633549466496,128.8295285089116 50.82597782893572,129.25924688788655 50.73562016314827,129.6629204351775 51.09705082618166,129.871267582188 51.232587324804626,130.14472270609986 51.46977619745303,130.4311988857371 52.023216900241096,130.48328539606882 52.42982639616821,130.45724214351503 52.88161472493084,130.4311988857371 53.35599247022765,130.41817725490546 53.75130725791678,130.4311988857371 54.15791675384389,130.45724214351503 54.5645262497128,130.48328539606882 54.88077807991067,130.48328539606882 55.095377536083106,130.48328539606882 55.343861116911285,130.48328539606882 55.63752353063319,130.50932864341303 56.111901275929995,130.58745835412992 56.55239489645464,130.66558801787323 56.981593808857724,130.73069603515614 57.38820330472663,130.79580401984276 57.885170466441195,130.86091197191854 58.38213762809755,130.847890384146 58.83392595691839,130.8348687950347 59.28571428573923,130.8348687950347 59.692323781666346,130.847890384146 60.20058565156069,130.82184720458463 60.6071951474878,130.8348687950347 61.04768876801245,130.8348687950347 61.45429826399777,130.80882561286853 61.9060865927604,130.82184720458463 62.31269608868752,130.80882561286853 62.77577912574634,130.82184720458463 63.19368332991144,130.86091197191854 63.634176950436085,130.86091197191854 64.04078644630499,130.82184720458463 64.46998535870807,130.80882561286853 64.89918427111115,130.78278242553642 65.3396778916358,130.78278242553642 65.5203932232107,130.60047996800859 65.55427734780824,130.32702580252953 65.7575820958009,130.20983098412398 65.98347626021132,130.0665927293594 66.20937042462174,129.97544103053224 66.4691487136879,129.897310952103 66.71763229451608,129.871267582188 66.94352645886829,129.81918082672928 66.97741058358224,129.55874673646758 66.94352645886829,129.38946429810312 66.42396988073597,129.32435560929298 65.98347626021132,129.2462251396646 65.55427734780824,129.2071598872717 65.12507843552157,129.10298582349787 64.63940598204499,128.97276812634664 64.21020706964191,128.7774413362058 63.81489228201099,128.59513606730616 63.36310395319015,128.5430488006823 62.88872620789334,128.60815788070613 62.482116712024435,128.73837594293582 62.06421250785934,128.94672457127308 61.601129470800515,129.1420511071774 61.22840409952914,129.18111637917173 60.77661577076651,129.15507286577486 60.392595691315364,129.1680946231354 59.92951265425654,129.15507286577486 59.522903158387635,129.1420511071774 59.093704245984554,129.1420511071774 58.67580004181946,129.08996405961807 58.50637941848254,128.92068101101904 58.31436937878607,128.8165067177033 57.89646517462097,128.79046313132858 57.34302447189111,128.7774413362058 56.936414975964,128.7253541425889 56.48462664714316,128.64722331306257 56.07801715127425,128.56909243659175 55.60363940597745,128.45189603387553 55.19702991005033,128.3737650400435 54.790420414181426,128.17843735012866 54.47416858392535,127.8528905481653 54.18050617026165,127.54036485154938 53.852959631884005,127.3189920286095 53.35599247022765,127.17575058944931 52.94938297430053,127.09761882883322 52.52018406189745,126.99344307497086 52.12486927420832,127.04553096233576 51.650491528969724,127.22783840374905 51.24388203304261,127.39712365622108 50.81468312063953,127.51432100957027 50.40807362477062,127.56640868828981 49.911106463114265,127.56640868828981 49.4706128424732,127.50129908662348 48.96235097263707,127.37107978556014 48.58962560130749,127.27992619721044 48.160426688962616,127.18877254497784 47.652164819068275,127.09761882883322 47.21167119848542,127.05855293088825 46.75988286966458,126.96739912345947 46.33068395731971,126.95437714576838 45.901485044974834,126.95437714576838 45.57393850659719,126.9153112048225 45.280276092817076,126.79811331153905 45.031792512047105,126.77206932094123 44.78330893116072,126.74602532510471 44.54612005857052,126.7199813240004 44.10562643798767,126.6548712985823 43.676427525642794,126.60278325471154 43.24722861323971,126.53767317057645 42.76155615976313,126.47256305383053 42.343651955598034,126.38140883555752 41.846684793999884,126.31629864056595 41.417485881596804,126.25118841296353 40.90922401170246,126.160034039538 40.45743568288162,126.04283546553052 40.02823677053675,125.97772510095092 39.54256431706017,125.88657053583302 39.03430244716583,125.78239381173626 38.61639824300073,125.69123910965573 38.1646099142381,125.63915067978087 37.746705710073,125.46986313856905 37.396569755277596,125.1312873949646 37.2158544237609,124.89688828671933 37.04643380042398,124.7145775770914 36.71888726204634,124.5843554851599 36.28968834964326,124.48017771766172 35.84919472911861,124.42808880264056 35.40870110853575,124.33693315110577 34.93432336329715,124.25879968467052 34.45994561800035,124.18066617124714 34.030746705655474,124.10253261089383 33.51119012758136,123.99835445736244 33.104580631654244,123.9332430690265 32.67538171925116,123.86813164803607 32.31395105627598,123.78999789986119 32.04287805897184,123.72488640720258 32.28006693156203,123.67279718960344 32.39301401376724,123.46444011043059 32.32524576445576,123.29514973773621 32.51725580426864,122.93052357096167 32.64149759465363,122.5007842759369 32.78832880145637,122.01895368030819 32.935160008317325,121.56316633820825 33.08199121517828,121.13342252360599 33.217527713859454,120.67763207711687 33.330474796006456,120.29997592522705 33.46601129468763,119.85720524664794 33.6015477933106,119.42745579298935 33.79355783306528,119.46652398383594 33.88391549879452,119.68791017690091 33.85003137413878,119.92231867631199 33.7822631248855,120.15672675304813 33.71449487551581,120.39113440713845 33.62413720972836,120.66460946944426 33.57895837695105,120.89901620786986 33.51119012758136,121.12039996161184 33.443421878269874,121.3287607972743 33.330474796006456,121.61525640105538 33.22882242203923,121.83663893520134 33.19493829738349,122.08406602730975 33.00292825768702,122.53985154328984 32.856097050826065,122.83936686952075 32.52855051239021,123.12585914462397 32.13323572470108,123.3472391066316 31.670152687700465,123.25608269733493 31.240953775297385,123.15190386561153 30.823049571190495,123.04772495037469 30.393850658845622,122.93052357096167 29.953357038204558,122.8133220859163 29.51286341767991,122.69612049522402 29.094959213514812,122.60496362941922 28.6883497175877,122.5007842759369 28.225266680587083,122.37055996671552 27.81865718465997,122.25335797690786 27.412047688732855,122.14917834168591 27.0280276092235,122.04499862302328 26.587533988640644,122.04499862302328 26.18092449271353,122.03197615232784 25.68395733111538,121.99290873236896 25.220874294056557,121.97988625643484 24.791675381711684,121.9408188208763 24.362476469308604,121.91477385726466 23.967161681619473,121.90175137351616 23.526668061036617,121.88872888845799 23.27818448015023,121.86268391445628 23.052290315798018,121.8236164436239 22.589207278797403,121.8236164436239 22.137418949976563,121.81059395078046 21.708220037573483,121.79757145656913 21.199958167679142,121.70641396076826 20.77075925533427,121.60223388731538 20.318970926571637,121.39387348991295 19.867182597750798,121.26364807198115 19.460573101823684,121.09435483367997 19.05396360589657,120.89901620786986 18.65864881820744,120.65158686049108 18.252039322280325,120.39113440713845 17.90190336748492,120.16974941157969 17.461409746843856,119.98743207335065 17.224220874311868,119.89627330836083 16.94185316876974,119.8051144794299 16.693369587883353,119.74000099104887 16.467475423472933,119.68791017690091 16.060865927604027,119.59675120191241 15.620372306962963,119.49256943787623 15.179878686438315,119.401410325896 14.750679774093442,119.2842056594236 14.310186153452378,119.18002364497806 13.858397824689746,119.06281877892616 13.451788328762632,118.95863658703456 13.0,118.80236314269132 13.180715331458487,118.35958736353496 13.350135954795405,117.92983295930026 13.440493620524649,117.52612298238091 13.576030119205825,117.12241175175586 13.711566617828794,116.69265325763263 13.824513699975796,116.30196248467837 14.005229031550698,115.89824745242367 14.140765530173667,115.48150803947647 14.298891445272602,115.09081362652068 14.45701736031333,114.60895556665491 14.56996444251854,114.19221202039625 14.671616816543974,113.93174662555975 14.784563898690976,113.71035062956798 14.920100397372153,113.48895425653609 15.168583978200331,113.0982538547687 15.428362267266493,112.6815054652252 15.575193474127445,112.38196673493076 15.722024680988397,112.13452117622364 15.891445304267108,111.9131221191783 16.00439238647232,111.67869917710777 16.15122359333327,111.4703228737344 16.467475423472933,111.0535692647245 16.795021961908787,110.64983793179272 17.145157916704193,110.31122358885477 17.630830370180774,110.53262537448609 18.048734574345872,110.67588515245006 18.444049362035003,110.79309758060845 18.839364149665926,110.91030990303261 19.27985777030699,111.06659283525369 19.596109600446653,111.15775779225805 20.002719096373767,111.26194623624906 20.510980966268107,111.41822874566424 20.962769295088947,111.65265215747058 21.346789374598302,111.4052052104089 21.606567663606256,111.02752211982443 21.753398870525416,110.66286154277623 21.459736456745304,110.50657812514692" stroke="#4DD2FF" stroke-linecap="round" stroke-linejoin="round" stroke-width="0.5"><title>2026-01-02 13.3km</title><desc>9223370269494935807</desc></polyline><polyline fill="none" points="141.73197144974256,107.4036942510138 141.29337927652523,107.44967001366604 140.7750430716551,107.57227197982138 140.28328821074683,107.55694673945254 139.79153334978037,107.4036942510138 139.53901058336487,107.37304373484221 139.07383706624387,107.28109214967117 138.76815161213744,107.41901950676402 138.48904750187648,107.81747561736847 138.14349003211828,108.10865442639624 137.79793256218545,108.430482991389 137.50553778005997,108.78296111896634 137.21314299781807,109.12011335046554 136.94732955953805,109.53389007333317 136.6815161211416,109.88636565802153 136.3758306670934,110.34611520002363 136.09672655677423,110.74456368527899 135.84420379035873,111.15833601364284 135.60497169586597,111.54145754188357 135.3657396013732,111.93990291332011 135.12650750682224,112.32302248390624 134.900566084194,112.72146581941342 134.71449667739216,113.11990811703436 134.59488063014578,113.56432330154348 134.4353925671312,114.07003556155541 134.31577651988482,114.48379889436183 134.15628845687024,114.94353461811261 133.99680039385566,115.4032689602318 133.85060300276382,115.9242995443492 133.70440561167197,116.41467964938784 133.53162687673466,116.93570678852848 133.3721388137783,117.3647866295214 133.21265075076371,117.88581053262169 133.09303470351733,118.33021187130362 133.18606940691825,118.7899360354786 133.5449175486574,119.05044578196248 133.98350972193293,119.14239029241435 134.40881122334395,119.26498288712173 134.83411272463854,119.37225132687308 135.31257691368228,119.47951969142014 135.7511690868996,119.58678798073379 136.18976126017515,119.69405619484314 136.61506276158616,119.80132433379185 137.15998031024355,119.93924040182901 137.58528181147994,120.03118437813828 138.10361801635008,120.16910023898527 138.50233817379922,120.33766390004894 138.92763967521023,120.58284707553685 139.2997784888721,120.81270594568923 139.68520797445672,121.07321224763291 140.17696283542318,121.34904196625575 140.5623923210078,121.53292816906469 141.05414718197426,121.70149032742484 141.43957666755887,121.87005230008799 141.86487816891167,122.03861408708326 142.26359832641901,122.19185191403085 142.76864385925,122.29911830159836 143.1939453606028,122.34508958754304 143.698990893492,122.37573710379365 144.13758306676755,122.40638461394701 144.64262859959854,122.42170836673176 145.16096480441047,122.45235586765921 145.54639428999508,122.4676796158019 146.03814915096154,122.49832710753253 146.4501599803334,122.52897459312226 146.96849618514534,122.52897459312226 147.38050701457541,122.5749458099308 147.85897120356094,122.6055932802119 148.27098203299101,122.62091701304598 148.72286487818928,122.65156447407207 149.0684223480639,122.65156447407207 149.3608171302476,122.66688820222043 149.60004922474036,122.71285937768698 149.89244400692405,122.758830539271 150.3310361801996,122.88142023603723 150.78291902539786,123.00400983454892 151.19492985482793,123.11127565272909 151.62023135618074,123.21854139564675 152.1518582329154,123.35645438318898 152.56386906234547,123.46371995421941 153.042333251331,123.58630908612395 153.44105340889655,123.67825087065285 153.85306423832662,123.78551621607039 154.33152842725394,123.90810509014409 154.82328328827862,124.03069386606512 155.24858478957321,124.12263538350817 155.71375830675242,124.21457684566849 156.23209451144794,124.29119468865974 156.71055870049167,124.38313604956784 157.12256952997996,124.45975380809978 157.34851095255,124.50572444479621 157.57445237517823,124.5516950677411 157.84026581351645,124.58234214199183 158.13266059564194,124.61298921008711 158.4915087374975,124.7049303776148 158.94339158263756,124.78154797504249 159.39527442783583,124.8734890412452 159.91361063258955,124.96543005225249 160.39207482157508,125.0420475192077 160.76421363529516,125.07269449523301 161.05660841747886,125.14931190846255 161.32242185581708,125.28722315558116 161.4952005906962,125.42513427839731 161.7078513414599,125.73160299517622 162.0534088112763,126.08404126056121 162.47871031262912,126.32921522721881 162.93059315776918,126.4671254108107 163.39576667489018,126.54374212575203 163.83435884816572,126.60503547014378 164.3261137091904,126.69697544057271 164.76470588240772,126.75826872355537 165.216588727606,126.83488529270107 165.62859955697786,126.89617852041556 165.8944129953743,126.94214842506335 166.12035441794433,126.97279502052697 166.34629584051436,127.00344160982058 166.5722372631426,127.04941148225043 166.83805070148082,127.11070462402131 167.06399212405086,127.14135118570994 167.30322421860183,127.18732101671048 167.55574698501732,127.21796756307594 167.80826975143282,127.27926063728228 168.02092050213832,127.30990716521046 168.27344326855382,127.34055368698318 168.49938469118206,127.37120020262955 168.76519812946208,127.43249321549956 169.00443022401305,127.46313971270865 169.21708097471856,127.50910944705538 169.46960374113405,127.53975592892675 169.96135860210052,127.6163721067569 170.43982279108604,127.7696043473261 170.95815899583977,127.92283643447445 171.3568791533471,128.0300988041563 171.80876199854538,128.1373610986484 172.22077282797545,128.19865380460396 172.67265567317372,128.2446233179362 173.13782919029472,128.32123914280965 173.57642136357026,128.36720861932554 174.0150135368458,128.4438243828481 174.4403150381986,128.53576324845199 174.8656165394932,128.6123789275298 175.29091804090422,128.70431769182323 175.72951021417975,128.7962564008485 176.14152104355162,128.87287194951205 176.54024120111717,128.93416436083498 177.00541471823817,128.93416436083498 177.43071621953277,128.85754884286143 177.5636229387601,129.1946568350104 177.53704159491463,129.6390253263089 177.60349495447008,130.09871551097604 177.55033226689557,130.60437311904388 177.43071621953277,131.00276884545747 177.41742554766824,131.41648638654442 177.84272704902105,131.69229745923076 177.9889244401129,132.10601313604275 178.29460989421932,132.36650021054083 178.7996554269921,132.41246847181174 179.22495692846132,132.39714571955847 179.6768397736014,132.36650021054083 180.1021412749542,132.36650021054083 180.5673147920752,132.36650021054083 181.04577898111893,132.36650021054083 181.4976618263172,132.3818229658209 181.93625399959274,132.39714571955847 182.3881368446746,132.41246847181174 182.84001968993107,132.4277912224643 183.11912380019203,132.4277912224643 183.37164656660752,132.4737594652688 183.59758798923576,132.50440495280782 183.85011075559305,132.56569590950676 184.0760521782213,132.5963413786376 184.27541225700406,132.62698684164206 184.52793502336135,132.65763229847653 184.79374846169958,132.68827774918464 185.00639921240509,132.71892319381004 185.2589219788788,132.74956863222178 185.47157272946788,132.764891349143 185.6842234802316,132.79553677838703 185.9367462466471,132.8108594907826 186.16268766921712,132.79553677838703 186.4019197637681,132.8108594907826 186.534826482879,132.68827774918464 186.56140782678267,132.2285953439714 186.58798917056993,131.7842343729717 186.90696529659908,131.46245493320748 187.0,130.95680016074039 186.66773320210632,130.74227944943414 186.1493969972944,130.7269565299357 185.73738616786432,130.57372725098685 185.61777012061793,130.37452895889874 185.24563130689785,130.29791416213266 184.83362047746778,130.25194526567066 184.39502830425045,130.20597635534068 183.9165641152067,130.09871551097604 183.4912626139121,130.00677758452366 183.15899581590202,129.9301626036031 182.94634506525472,129.88419359666295 182.73369431460742,129.8382245758985 182.49446222005645,129.74628649292572 182.28181146935094,129.6237022963469 182.08245139062637,129.47047191257298 181.89638198376633,129.28659524943214 181.72360324888723,129.1180414475093 181.55082451394992,128.9494874598604 181.2850110756117,128.6889945682633 180.84641890233615,128.52044010798272 180.38124538521515,128.3978549293679 179.86290918046143,128.29059281745867 179.3844449914177,128.22930014837766 178.82623677089578,128.33656230321503 178.3743539257557,128.50511696604372 177.9490524243447,128.6736714431754 177.4838789072237,128.8269026249327 177.00541471823817,128.85754884286143 176.52695052919444,128.85754884286143 176.0086143243825,128.78093328649993 175.57002215116518,128.70431769182323 175.10484863404417,128.5970557947585 174.62638444505865,128.50511696604372 174.16121092793765,128.3978549293679 173.69603741081664,128.32123914280965 173.2574452375411,128.2446233179362 172.73910903278738,128.18333063040336 172.30051685951184,128.1373610986484 171.82205267052632,128.10671473645198 171.37016982532805,128.0454219936655 170.9315776519943,127.96880603067984 170.5062761506997,127.90751323265431 170.0809746493469,127.84622041006514 169.5759291164577,127.78492756297055 169.13733694318216,127.70831146951241 168.818360817153,127.66234179503226 168.55254737881478,127.63169533773907 168.3133152842638,127.60104887424677 168.04750184592558,127.55507916750503 167.82156042341376,127.52443268873321 167.582328328921,127.49378620379139 167.35638690623455,127.478462959014 167.11715481174178,127.43249321549956 166.87792271724902,127.3865234581317 166.67856263840804,127.34055368698318 166.3994585282635,127.27926063728228 166.14693576173158,127.24861410324229 165.94757568306522,127.20264429066447 165.69505291659152,127.15667446423322 165.45582082204055,127.1260279056587 165.22987939952873,127.08005805620633 165.0039379769587,127.04941148225043 164.77799655433046,126.98811831591593 164.44572975637857,126.92682512506144 163.96726556733483,126.85020860191435 163.4888013782911,126.75826872355537 162.99704651744105,126.66632878988457 162.53187300032005,126.57438880098925 162.0932808270445,126.3905086574814 161.72114201332442,126.053394487084 161.44203790312167,125.70095615110768 161.04331774555612,125.39448737296334 160.60472557228059,125.28722315558116 160.12626138323685,125.19528233796882 159.66108786617406,125.11866494776041 159.2224956928403,125.0420475192077 158.7971941915457,124.96543005225249 158.31873000250198,124.88881254693842 157.84026581351645,124.79687148990342 157.4016736401827,124.73557742114644 156.9365001231199,124.64363627207058 156.60423332516802,124.58234214199183 156.17893182381522,124.53637152828742 155.93969972932246,124.50572444479621 155.7536303224624,124.45975380809978 155.54097957181511,124.4291067092854 155.42136352456873,124.38313604956784 155.6605956190033,124.32184181509365 155.85995569778606,124.2299004173401 155.46123554027872,123.89278148626909 154.982771351235,123.80083983067016 154.49101649032673,123.69357449600648 153.94609894172754,123.555661812381 153.49421609652927,123.43307265588373 153.02904257946648,123.31048340117559 152.55057839036454,123.18789404819836 152.2316022643936,123.12659933487885 151.92591681028716,123.03465721888642 151.69997538771713,122.9886861401319 151.44745262124343,122.89674394120811 151.19492985482793,122.8507728211116 150.94240708841244,122.77415425670915 150.636721634306,122.69753565407882 150.15825744526228,122.5749458099308 149.71966527198674,122.4676796158019 149.25449175492395,122.42170836673176 148.73615555011202,122.39106085964886 148.19123800151283,122.3604133464396 147.72606448445003,122.32976582708943 147.16785626392812,122.29911830159836 146.64952005911618,122.28379453653179 146.13118385436246,122.25314700185845 145.66601033724146,122.22249946102966 145.174255476275,122.19185191403085 144.69579128728947,122.17652813822497 144.23061777016846,122.145880582073 143.8584789565066,122.13055680166872 143.57937484624563,122.11523301972193 143.30027073604288,122.09990923626174 143.0610386414919,122.08458545128815 142.6756091558491,122.03861408708326 142.2104356387863,121.9160237149772 141.75855279352982,121.74746179295471 141.3199606203125,121.54825200930645 140.84149643132696,121.37968968208588 140.41619492997415,121.19580329510791 140.03076544433134,120.99659279310436 139.6320452867658,120.79738203177112 139.3396505045821,120.61349494484602 138.94093034713296,120.35298786002386 138.52891951764468,120.12312829916482 138.236524735461,120.03118437813828 137.97071129712276,119.93924040182901 137.74476987455273,119.8779443869571 137.54540979576996,119.80132433379185 137.3061777012772,119.75535228343506 137.08023627870716,119.6480841122684 136.85429485613713,119.60211201595666 136.61506276158616,119.54081586595566 136.40241201088065,119.47951969142014 136.13659857260063,119.41822349229187 135.88407580606872,119.37225132687308 135.63155303971143,119.29563102043176 135.4056116170832,119.23433474762714 135.16637952253222,119.17303845030256 134.91385675617494,119.11174212838523 134.6879153335467,119.06576987086737 134.4353925671312,118.98914941093244 134.20945114456117,118.94317711651092 133.81073098699562,118.83590837589873 133.3322667980101,118.72863956006768 133.01329067198094,118.48345341284585 133.21265075076371,118.03905251937977 133.34555746987462,117.59465033488232 133.51833620487014,117.13492257865437 133.69111493980745,116.62922045101004 133.81073098699562,116.20013854683202 133.95692837808747,115.74040659963794 134.0898350973148,115.34197112778202 134.24932316027116,114.88223660146468 134.395520551363,114.45314979692921 134.54171794251306,113.9934125993168 134.6480433178367,113.57964794003055 134.8075313808513,113.13523280006484 135.06005414726678,112.6601669123338 135.20625153830042,112.307697719516 135.35244892939227,112.06250128029205 135.49864632054232,111.81730444803543 135.63155303971143,111.6180817323766 135.73787841503508,111.37288418767275 135.88407580606872,111.17366089318239 136.0036918533733,110.97443733918772 136.1631799163879,110.74456368527899 136.3758306670934,110.43806494260207 136.73467880883254,109.9783156769845 137.0536549348035,109.54921511563589 137.33275904512266,109.16608859712142 137.58528181147994,108.81361135255429 137.93083928135457,108.67568525311071 138.4093034704565,108.85958669133834 138.701698252582,108.95153732756444 138.96751169092022,109.04348790852237 139.18016244156752,109.10478826513281 139.44597587996395,109.18141367629869 139.68520797445672,109.27336411902797 139.89785872510402,109.31933931968524 140.11050947586773,109.38063956571568 140.49593896145234,109.51856502945884 140.84149643132696,109.62584030415746 140.92124046274694,109.48791493715544 140.96111247857334,109.18141367629869 141.06743785383878,108.92088712166878 141.3199606203125,108.966862428264 141.50603002711432,108.70633550814819 141.73197144974256,108.36918236457859 141.9977848880808,108.29255654645385 142.15727295103716,108.38450752357312" stroke="#4DD2FF" stroke-linecap="round" stroke-linejoin="round" stroke-width="0.5"><title>2025-12-28 11.0km</title><desc>9223370269926779807</desc></polyline><polyline fill="none" points="22.687078500108328,167.991008685407 22.191799298627302,167.83983506992809 21.711087132396642,167.65506713253853 21.259509036957752,167.52069032286818 20.8370650120778,167.40311052605102 20.560291340691037,167.3695162832737 20.210682492586784,167.5710816391511 19.91934178583324,167.85663214501983 19.64256811438827,168.20937033374503 19.336660372267943,168.51171676185913 19.016185594780836,168.8308596221177 18.72484488802729,169.1667988186673 18.44807121664053,169.50273734200164 18.12759643915342,169.9058626813494 17.85082276770845,170.25859655805107 17.559482061013114,170.62812649000261 17.282708389568143,170.9976556073816 17.035068788798526,171.4175740701903 16.758295117353555,171.77030476610526 16.554356622626074,172.12303471988707 16.292149986547884,172.50935715100786 16.07364445645362,172.89567869190068 15.811437820317224,173.29879587242613 15.592932290164754,173.68511559415492 15.432694901595823,174.0378415191808 15.170488265459426,174.47454877904966 14.981116806040518,174.9280512680125 14.879147558705881,175.28077457801555 14.748044240637682,175.63349714587093 14.689776099228766,176.0366077433573 14.631507957936265,176.22136644324928 14.485837604559492,176.55729083057668 14.383868357166648,176.9771953682357 14.238198003731668,177.36350661408505 14.092527650354896,177.78340913256397 13.975991367653478,178.18651456096268 13.801186943659559,178.7071909715305 13.655516590224579,179.0934982312756 13.524413272214588,179.5301923227089 13.393309954146389,179.9500894149096 13.291340706753545,180.38678127531603 13.437011060130317,180.840267772699 13.684650660899933,181.1089999331016 14.136228756455239,181.20977438225236 14.558672781218775,181.31054877080896 14.922848664689809,181.41132309881505 15.287024548160844,181.5120973661833 15.694901537615806,181.61287157304469 16.102778527070768,181.730441404492 16.510655516583938,181.83121548012423 16.947666576772463,181.93198949513317 17.355543566227425,182.03276344963524 17.77798759104917,182.15033298666822 18.18586458050413,182.23431117691507 18.579174534708727,182.318289325136 19.001618559472263,182.46944988585892 19.351227407576516,182.63740590467933 19.75910439703148,182.90613518483588 20.137847315869294,183.15806849383807 20.50202319928212,183.37641038875154 20.895333153486717,183.61154749615525 21.230374966282398,183.7795023709332 21.667386026412714,183.9642525389645 22.06069598061731,184.13220706048014 22.541408146731555,184.3337522642396 22.905584030144382,184.4849110080977 23.328028055024333,184.61927422154986 23.750472079846077,184.72004656102217 24.15834906930104,184.7872280870215 24.682762341515627,184.82081883991486 25.061505260237027,184.8544095860998 25.527650391159113,184.8712049566675 25.95009441592265,184.9047956927243 26.3725384408026,184.92159105825704 26.794982465624344,184.9383864220872 27.17372538440395,184.9551817842439 27.596169409225695,184.9887725035078 28.018613434047438,185.00556786060042 28.441057458810974,185.03915856975073 28.907202589674853,185.0559539218084 29.30051254382124,185.07274927220715 29.737523604009766,185.08954462088877 30.15996762883151,185.1231353131734 30.68438090098789,185.13993065689283 31.121391961118206,185.1735213391512 31.529268950631376,185.24070268341166 31.951712975394912,185.3246793259459 32.33045589423273,185.42545124153548 32.7966010250384,185.54301839970867 33.16077690856764,185.64379018403997 33.58322093333118,185.7445619078062 34.00566495815292,185.86212884231645 34.41354194766609,185.9629004348244 34.89425411383854,186.08046721629216 35.27299703261815,186.16444343827607 35.65173995139776,186.28201007838652 36.07418397627771,186.39957663607493 36.49662800109945,186.44996227842057 36.87537091987906,186.5507335177099 37.25411383865867,186.65150469643413 37.705691934155766,186.7522758145933 38.084434852935374,186.83625170018058 38.55057998379925,186.92022754361096 39.031292149971705,187.00420334508817 39.43916913942667,187.0881791044667 39.905314270290546,187.1553596816957 40.284057189070154,187.22254023201822 40.7647693551844,187.28972075543425 41.216347450739704,187.373696371782 41.60965740488609,187.44087683469115 42.06123550038319,187.5248523753835 42.46911248983815,187.59203277764027 42.94982465606881,187.6760082426772 43.38683571619913,187.75998366563 43.78014567034552,187.8103688992269 44.217156730475836,187.97831956854498 44.50849743722938,188.24704028954147 44.77070407336578,188.59973558237834 45.06204478011932,188.9020452429686 45.397086592915,189.1035847139574 45.83409765304532,189.25473915823386 46.19827353657456,189.32191886752844 46.62071756127989,189.38909854985832 46.999460480117705,189.4562782053108 47.40733746957267,189.5234578338568 47.873482600436546,189.6074323316716 48.252225519216154,189.67461189966707 48.732937685446814,189.75858632185555 49.140814674959984,189.8257658292423 49.606959805765655,189.9097401756735 50.058537901204545,189.9769196225825 50.51011599675985,190.0608938933292 50.90342595090624,190.12807327965857 51.29673590505263,190.17845780173957 51.792015106533654,190.26243197158328 52.17075802531326,190.32961127720773 52.5932020500768,190.39679055586748 53.05934718094068,190.46396980764985 53.45265713514527,190.53114903252572 53.875101159967016,190.64871261126245 54.253844078746624,190.74948132743884 54.67628810351016,190.85024998309382 55.040463986981194,190.95101857819827 55.41920690581901,191.13576084522356 55.8125168599654,191.15255558671197 56.19125977874501,191.20293980101997 56.62827083887532,191.2533240001212 56.83220933366101,191.28691345785046 57.06528189906385,191.28691345785046 57.29835446452489,191.32050290884217 57.633396277262364,191.38768179054023 58.041273266717326,191.45486064537545 58.47828432690585,191.53883417606994 58.94442945771152,191.6396023574198 59.308605341240764,191.70678111129382 59.701915295328945,191.8075491917407 60.10979228490032,191.87472787838487 60.51766927429708,191.9587011988915 60.896412193076685,192.00908517095377 61.26058807660593,192.0258798249415 61.683032101311255,191.99229051529255 62.00350687885657,191.9251118756947 62.222012408892624,191.87472787838487 62.44051793892868,191.77395983836323 62.64445643371437,191.70678111129382 62.86296196375042,191.6396023574198 63.06690045853611,191.57242357658106 63.41650930669857,191.43806593421323 63.79525222547818,191.32050290884217 64.21769625035813,191.32050290884217 64.6255732398131,191.40447650679562 65.04801726457663,191.48845006270858 65.49959536013193,191.60601297035464 65.9074723495869,191.74037047821912 66.27164823299972,191.94190653813712 66.56298893975327,192.26100480435707 66.81062854052288,192.52971866293228 67.0,192.58010246345657 66.81062854052288,192.39536178745038 66.65039115183754,192.24421017391433 66.4755867277272,192.09305842414324 66.32991637435043,191.9251118756947 66.1551119502983,191.70678111129382 65.7763690315187,191.57242357658106 65.36849204206374,191.47165535487875 64.96061505255057,191.37088707265502 64.47990288643632,191.28691345785046 64.08659293228993,191.21973453574174 63.66414890740998,191.27011872983712 63.24170488258824,191.43806593421323 62.86296196375042,191.57242357658106 62.498786080337595,191.74037047821912 62.105476126191206,191.84113853846793 61.71216617204482,191.87472787838487 61.20231993519701,191.9083172116225 60.80900998110883,191.9083172116225 60.371998920920305,191.84113853846793 60.00782303744927,191.77395983836323 59.614513083244674,191.68998642536462 59.162934987805784,191.60601297035464 58.755057998292614,191.50524476886494 58.33261397347087,191.42127122131933 57.89560291339876,191.3540923530236 57.38575667649275,191.27011872983712 56.977879687037785,191.21973453574174 56.54086862684926,191.15255558671197 56.1329916373943,191.11896610209078 55.69598057726398,191.06858186260797 55.244402481708676,191.03499236116477 54.79282438632799,190.96781333812396 54.384947396756615,190.9006342881912 53.90423523058416,190.83345521136653 53.4963582411292,190.78307088608562 53.03021311026532,190.71589176214184 52.60776908544358,190.64871261126245 52.15619098994648,190.58153343344748 51.719179929757956,190.51435422879877 51.340437011036556,190.46396980764985 50.93256002146518,190.39679055586748 50.51011599675985,190.32961127720773 50.02940383052919,190.2456371409935 49.62152684107423,190.17845780173957 49.22821688692784,190.09448358985537 48.76207175612217,190.0105093359307 48.36876180191757,189.94332990251132 47.88804963580333,189.85935557288758 47.49473968159873,189.7921760788886 47.04316158615984,189.7249965579831 46.64985163201345,189.65781701022934 46.24197464255849,189.57384253758937 45.77582951169461,189.4730731149466 45.36795252223965,189.35550871203304 44.945508497417904,189.1035847139574 44.65416779066436,188.8012754166848 44.36282708385261,188.43178553544567 44.05691934173228,188.17986014964117 43.66360938758589,188.0622948401142 43.24116536282236,187.99511462620285 42.818721338000614,187.89434425493528 42.425411383854225,187.8439590465423 42.017534394341055,187.77677874520305 41.624224440252874,187.70959841688455 41.12894523877185,187.60882787403534 40.75020231993403,187.54164747850155 40.240356083086226,187.45767194617656 39.84704612893984,187.40728660661262 39.45373617479345,187.3401061303157 39.031292149971705,187.25613049704407 38.637982195825316,187.18894996022573 38.157270029652864,187.0881791044667 37.73482600483112,187.02099850031664 37.297814944700804,186.95381786927464 36.94820609659655,186.88663721129706 36.72970056650229,186.83625170018058 36.5257620717166,186.8026613509428 36.307256541680545,186.7522758145933 36.08875101158628,186.68509507586714 35.841111410816666,186.6347095041856 35.40410035068635,186.50034790564678 34.95252225513104,186.38278141860792 34.5300782303093,186.28201007838652 34.00566495815292,186.13085295446217 33.53951982728904,186.01328620837012 33.102508767158724,185.89571937985602 32.57809549506055,185.76135718918522 32.184785540855955,185.66058547553257 31.718640409992076,185.54301839970867 31.310763420537114,185.45904186653206 30.859185325040016,185.4422465548414 30.40760722954292,185.42545124153548 29.941462098737247,185.3918606096995 29.533585109224077,185.37506529131497 29.111141084402334,185.3582699711842 28.61586188292131,185.34147464937996 28.14971675205743,185.3246793259459 27.727272727235686,185.30788400080928 27.261127596488222,185.2742933454865 26.867817642283626,185.25749801530037 26.3725384408026,185.25749801530037 25.95009441592265,185.24070268341166 25.483949285116978,185.22390734983492 25.076072295603808,185.20711201467202 24.551659023505636,185.1903166777338 24.11464796331711,185.1735213391512 23.648502832453232,185.10633996791148 23.226058807689697,184.9383864220872 22.789047747442964,184.77043270805734 22.3229026166955,184.56888802912727 21.929592662549112,184.4009339450131 21.492581602360588,184.23297969263513 21.026436471554916,184.04822982072074 20.63312651735032,183.88027521508047 20.23981656326214,183.72911592616583 19.890207715099677,183.52756999566918 19.52603183168685,183.22525064562797 19.220124089566525,182.95652187692758 18.826814135420136,182.73817943524045 18.38980307523161,182.65420149728016 17.938224979734514,182.55342791632575 17.515780954970978,182.46944988585892 17.12247100076638,182.38547181336617 16.641758834652137,182.28469807090005 16.24844888044754,182.20071990588622 15.855138926301152,182.09994605233078 15.359859724820126,182.0159677947522 14.951982735365164,182.0159677947522 14.500404639868066,182.0159677947522 14.092527650354896,181.9655808200332 13.713784731633496,181.8983981635247 13.276773671444971,181.64646296188585 13.014567035366781,181.37773166286934 13.072835176659282,180.9410423833324 13.291340706753545,180.52114777280076 13.480712166172452,180.00047699529387 13.626382519549225,179.58058002928738 13.757485837617423,179.16068201168673 13.903156190994196,178.6903949835105 14.048826544429176,178.2872907666315 14.209063933114521,177.78340913256397 14.325600215815939,177.3970988542569 14.456703533884138,176.96039920697513 14.602373887202702,176.55729083057668 14.748044240637682,176.10379274867591 14.922848664689809,175.63349714587093 15.083086053433362,175.21358924284868 15.228756406751927,174.81047666644736 15.38899379549548,174.37377028159972 15.665767466998659,173.9034698257019 15.855138926301152,173.53394711339206 16.05907742108684,173.18122012823005 16.350418127898593,172.761306083019 16.568923657934647,172.37498423247598 16.86026436468819,171.95506816777925 17.10790396545781,171.6191345587431 17.370110601594206,171.2328100761515 17.66145130834775,170.86328147711174 17.909090909117367,170.5609392902261 18.171297545253765,170.1914092101797 18.433504181331955,169.87226894010382 18.841381170786917,169.9226595494547 19.263825195550453,170.04023757908726 19.671702185063623,170.1914092101797 20.09414620982716,170.32578387898684 20.50202319928212,170.4433616258466 20.90990018879529,170.5777360927168 21.332344213617034,170.71211045181553 21.72565416782163,170.84648470327375 22.133531157276593,170.98085884697502 22.526841111364774,171.0816393840796 22.759913676825818,171.1320296299382 22.97841920692008,171.2328100761515 23.24062584299827,171.33359046174155 23.459131373092532,171.43437078681018 23.70677097380394,171.53515105128463 23.939843539206777,171.58554116084997 24.17291610466782,171.68632133440406 24.405988670012448,171.71991471214278 24.551659023505636,171.45116750180023 24.63906123547349,171.16562311875168 24.71189641219098,170.88007824930537 24.77016455354169,170.67851687216898 24.84299973025918,170.42656480989535 24.595360129489563,170.27539339083887 24.347720528719947,170.12422183540184 24.100080928008538,169.95625328060123" stroke="#4DD2FF" stroke-linecap="round" stroke-linejoin="round" stroke-width="0.5"><title>2025-10-29 10.1km</title><desc>9223370275112361807</desc></polyline><polyline fill="none" points="143.14954902534373,166.30504160796409 142.31684608676005,165.41732949567086 141.84550480073085,165.2542798584036 141.45272039569682,165.12746337219141 140.94995635730447,165.0731134223024 140.5257491999073,165.3810962556454 140.19581029965775,165.7434283291077 139.89729415182956,166.10575967642944 139.5830666279071,166.4862068095972 139.23741635144688,166.88476961434935 138.92318882746622,167.21086580105475 138.57753855112242,167.46449576196028 138.3575792842894,167.79059090309602 137.98050625546603,168.17103449108254 137.77625836490188,168.6239424806845 137.5248763457057,169.00438431520888 137.21064882166684,169.3667091277457 136.94355542620178,169.81961412228702 136.66075065464247,170.1275888706441 136.45650276402012,170.5986080593284 136.15798661625013,170.94281361355388 135.92231597326463,171.41383067863353 135.7023567064316,171.7761506629322 135.49810881592566,172.13846992130857 135.2938609252451,172.51890436123358 135.08961303468095,172.89933800071594 134.9324992726324,173.31600249707117 134.8225196392741,173.71455024728493 134.72825138206827,174.16744435181317 134.57113762001973,174.63845301719266 134.39831248181872,175.01888219745888 134.2883328484604,175.453657423408 134.1783532150439,175.88843160403485 134.09979633404873,176.26885815460992 133.97410532447975,176.72174586181063 133.78556881006807,177.10217065925826 133.6441664242302,177.51882547154673 133.51847541466122,178.02605612124898 133.37707302882336,178.4064781749039 133.1256910096854,178.89559106790693 133.07855688099517,179.3303569733689 133.21995926683303,179.63831552398915 133.5341867908719,179.96438871184364 133.95839394821087,180.10930994000228 134.4140238580876,180.1998856485734 134.83823101542657,180.3448066879937 135.23101542051882,180.39915204780118 135.67093395406846,180.54407292755786 136.0637183590443,180.61653332381684 136.50363689265214,180.79768418760796 136.97497817873955,180.87014448226546 137.39918533607852,180.94260474796465 137.85481524589704,181.06941014301265 138.31044515571557,181.15998537073028 138.78178644162836,181.26867558409867 139.23741635144688,181.39548075056518 139.67733488511294,181.59474583236442 140.19581029965775,181.8483556190622 140.5257491999073,182.13819493974734 140.94995635730447,182.42803379592078 141.29560663370648,182.59106794839317 141.67267966247164,182.80844658972637 142.06546406750567,182.98959525792452 142.48967122484464,183.15262890415033 142.97672388720093,183.27943274962308 143.35379691590788,183.4424661345838 143.73086994478945,183.62361416769272 144.13936572591774,183.78664724239206 144.54786150716245,183.89533587721235 145.00349141698098,183.96779493080976 145.50625545537332,184.00402444670908 145.993308117555,184.02213920193026 146.41751527501037,183.96779493080976 146.90456793719204,184.02213920193026 147.37590922316303,184.02213920193026 147.84725050919224,184.0583687069593 148.2871690428001,184.09459820471238 148.71137620019726,184.1308276952186 149.18271748616826,184.14894243773597 149.63834739598678,184.20328665447596 150.0468431772315,184.23951612321252 150.5024730869918,184.23951612321252 151.05237125395797,184.2214013896737 151.41373290657066,184.23951612321252 151.88507419259986,184.25763085484505 152.2778585976339,184.34820448582468 152.67064300260972,184.34820448582468 153.23625254584476,184.49312220112188 153.6290369508788,184.5836957141728 154.10037823679158,184.71049855627643 154.571719522879,184.85541598126292 154.94879255164415,184.96410397374711 155.35728833283065,185.05467725094059 155.78149549028603,185.18147976281762 156.22141402389389,185.27205293120642 156.6299098050804,185.3988552906958 157.0384055863251,185.47131374191667 157.58830375323305,185.56188676510646 157.93395402975148,185.68868892137834 158.3895839395118,185.77926183570526 158.76665696827695,185.88794927304843 159.2065755018848,185.97852208760742 159.6150712830713,186.12343849655008 160.05498981667915,186.19589665748936 160.57346523134038,186.26835478936846 160.9819610125851,186.3408128922456 161.37474541756092,186.4132709660771 161.7989525748999,186.46761450239865 162.23887110850774,186.54007252545853 162.7416351469583,186.59441602371226 163.07157404714962,186.68498848447052 163.4957812045468,186.77556089982681 163.85714285710128,186.84801879954466 164.3127727669198,186.92047667021689 164.76840267673833,186.9567055946536 165.00407331978204,186.99293451178528 165.22403258655686,187.0653923243808 165.42828047717921,187.10162121980102 165.6639511201647,187.1559645492962 165.93104451557156,187.17407898887177 166.13529240625212,187.24653672885324 166.35525167296873,187.33710886308108 166.52807681122795,187.48202418342407 166.70090194937075,187.6269393877301 166.87372708757175,187.82619760397938 167.01512947340962,188.00734124654264 167.28222286881646,188.27905637012736 167.7849869072088,188.5507710854581 168.20919406454777,188.69568543345667 168.64911259827204,188.7862568419805 169.026185626979,188.89494247235416 169.46610416058684,188.91305673769966 169.87459994183155,188.9673995229823 170.3145184754394,189.05797079543117 170.77014838519972,189.13042778075032 171.1943555425969,189.1666562625469 171.61856269999407,189.25722743521328 172.04276985744946,189.31157011704636 172.4826883910573,189.40214121714234 172.90689554839628,189.47459806465486 173.34681408212055,189.54705488303443 173.78673261561198,189.63762586521625 174.17951702064602,189.71008261837414 174.61943555425387,189.76442516410316 174.99650858301902,189.83688186646032 175.4207157404744,189.92745270353043 175.87634565029293,189.99990934049129 176.34768693632213,190.07236594847927 176.7718940936611,190.12670838546182 177.21181262726896,190.16293666762067 177.58888565615052,190.2897355982568 177.99738143733703,190.39842032520392 178.40587721852353,190.52521909073403 178.75152749492554,190.63390367619286 179.16002327617025,190.7607022766315 179.58423043356743,190.83315857981506 180.03986034332775,190.88750078821613 180.43264474836178,190.95995704064262 180.87256328185322,190.97807109919086 181.34390456794063,191.06864136483637 181.75240034918534,191.1592115851381 182.22374163509812,191.23166772873083 182.6008146639797,191.32223786732357 182.97788769274484,191.43092197386432 183.49636310728965,191.521492012791 183.85772475996055,191.5939480112429 184.28193191729952,191.64828999101883 184.72185045102378,191.68451796844602 185.13034623215208,191.6664039806492 185.5859761419706,191.61206200631568 185.72737852775026,191.90188568083977 185.79022403265117,192.30039247513923 185.72737852775026,192.69889839143434 185.72737852775026,193.11551727427286 185.72737852775026,193.56836279769777 185.60168751818128,194.00309343363915 185.42886238003848,194.401595598727 185.16176898463164,194.56461895868415 184.91038696537726,194.8000968858687 184.75327320338693,194.81821055991168 184.98894384637242,194.70952848861634 185.28745999420062,194.4921641501569 185.63311027054442,194.70952848861634 186.08874018036295,194.96311988668458 186.4658132091863,194.90877890275442 186.79575210943585,194.60084635207022 186.90573174285237,194.1480034134438 186.8743089903146,193.78572824630828 186.92144311900483,193.31476944427413 186.92144311900483,192.91626488478505 186.9371544952155,192.51775944737892 186.96857724757865,192.11925313205575 186.98428862378933,191.7207459386991 186.8743089903146,191.6664039806492 186.654349723598,191.73885992105352 186.37154495203868,191.6664039806492 186.34012219955912,191.43092197386432 186.2929880709853,191.34035188963753 186.08874018036295,191.43092197386432 185.85306953743566,191.4671499949036 185.39743962750072,191.4852640026511 184.95752109395107,191.55772001559671 184.51760256034322,191.57583401432203 184.0619726505247,191.521492012791 183.62205411697505,191.43092197386432 183.16642420709832,191.32223786732357 182.74221704975935,191.23166772873083 182.3022985161515,191.1592115851381 181.86237998254364,191.0324132640526 181.4853069537785,190.9961851559783 181.02967704395996,190.92372891806008 180.6054698865628,190.85127265112533 180.19697410531808,190.79693043188308 179.74134419555776,190.7607022766315 179.3642711666762,190.7244741141476 178.8929298807634,190.7063600301626 178.4844340995187,190.68824594438775 178.06022694212152,190.56144729314838 177.65173116093501,190.48899088105827 177.19610125105828,190.39842032520392 176.74047134129796,190.38030620859354 176.28484143147944,190.30784972394758 175.87634565029293,190.2535073414765 175.46784986904822,190.18105080604437 175.0750654640724,190.1085942415375 174.63514693052275,190.07236594847927 174.16380564449355,190.03613764811598 173.77102123945951,189.92745270353043 173.33110270585166,189.87311020669586 172.9540296770283,189.80065351887606 172.51411114342045,189.72819680209795 172.08990398602327,189.63762586521625 171.7285423334688,189.58328328134667 171.3043351760134,189.47459806465486 170.88012801867444,189.42025543175987 170.4873436135822,189.34779856257956 170.00029095140053,189.25722743521328 169.59179517015582,189.18477050068032 169.05760837934213,189.09419929172145 168.6648239743663,189.02174229189404 168.2563281931798,188.9673995229823 167.8478324119933,188.84059966536006 167.4236252545379,188.6775711463415 167.04655222577276,188.42397093574982 166.7951702066348,188.11602734492044 166.57521093974356,187.77185447589727 166.18242653470952,187.5001385903597 165.77393075352302,187.39145212182484 165.34972359618405,187.28276558798098 164.9098050625762,187.2103078624932 164.53273203369463,187.13785010797437 164.10852487635566,187.08350677302224 163.71574047132162,186.99293451178528 163.2601105615613,186.92047667021689 162.89874890894862,186.8661332699121 162.45883037539897,186.81178985333827 162.06604597030673,186.73933193914127 161.6732615653309,186.7212174560991 161.2019202793599,186.68498848447052 160.7934244981152,186.59441602371226 160.36921734065982,186.43138547999843 159.94501018332085,186.39515645032225 159.52080302586546,186.2864693178126 159.12801862088963,186.19589665748936 158.71952283970313,186.15966758060677 158.31102705845842,186.06909485683718 157.9025312772137,185.96040752832778 157.5097468722961,185.8698347047175 157.06982833868824,185.70680350788462 156.6770439337124,185.63434515101835 156.31568228109973,185.5256575612584 155.8600523712812,185.43508451993694 155.46726796630537,185.30828218578245 154.99592668021796,185.18147976281762 154.55600814666832,185.07279190098052 154.2103578702663,184.85541598126292 153.89613034628564,184.65615449199686 153.66045970324194,184.311975038916 153.23625254584476,184.11271295086772 152.8120453884476,184.02213920193026 152.34070410241839,183.96779493080976 151.9164969450212,183.94968017013161 151.47657841141336,183.93156540763448 151.02094850159483,183.9134506433038 150.61245272040833,183.89533587721235 150.18824556301115,183.84099156798038 149.66977014834993,183.84099156798038 149.26127436722163,183.80476201942656 148.78993308119243,183.76853246358223 148.3343031713739,183.7504176829243 147.87867326161359,183.73230290049105 147.43875472800573,183.71418811625335 147.01454757055035,183.69607333016756 146.59034041315317,183.67795854224823 146.166133255756,183.64172896105447 145.72621472214814,183.6054993725702 145.30200756475097,183.5511549761868 144.84637765499065,183.56926977680996 144.4064591213828,183.49681056356349 143.96654058771674,183.3700068705075 143.54233343031956,183.20697342022322 143.13383764913306,183.00771011474717 142.72534186788835,182.8809060787462 142.26971195818624,182.73598707166093 141.89263892936287,182.55483814941545 141.48414314811816,182.39180396428856 141.059935990721,182.13819493974734 140.68286296189763,181.95704541871964 140.35292406164808,181.64909081664518 139.9915624091518,181.4679408056836 139.59877800405957,181.3049056407326 139.36310736107407,181.12375528502162 138.97032295609824,181.03318003921595 138.54611579875927,180.92448968424287 138.20046552229906,180.79768418760796 137.79196974105434,180.72522386386117 137.3520512074465,180.59841822748422 136.92784405010752,180.45349739129597 136.50363689265214,180.3448066879937 136.07942973531317,180.23611591930967 135.67093395406846,180.14554022881202 135.19959266809747,180.0368493404385 134.79109688685276,179.94627355018747 134.36688972945558,179.81946736763348 133.92697119578952,179.72889146850503 133.4713412860292,179.62020032964938 133.01571137621067,179.52962433068024 133.14140238577966,179.04051315251854 133.2985161478864,178.5695159528259 133.4713412860292,178.1528635614086 133.61274367186707,177.6456332673697 133.73843468143605,177.2108633115713 133.89554844342638,176.8123232670623 134.02123945299536,176.39566682692384 134.13121908641187,175.97900942676642 134.30404422461288,175.544235463909 134.46115798666142,175.14569174635108 134.55542624380905,174.78337851357355 134.71254000579938,174.3123702256562 134.80680826306343,173.9319395590428 134.9482106488431,173.53339228792174 135.1210357870441,173.15295998238435 135.3567064300878,172.75441099434101 135.56095432065194,172.33774520392762 135.73377945885295,171.99354230510653 135.9380273494753,171.55875875952188 136.15798661625013,171.2145543777442 136.36223450687248,170.83411719356081 136.5821937736473,170.48991143236344 136.80215304048033,170.14570501593698 137.02211230725516,169.80149794431054 137.25778295024065,169.42105778693804 137.49345359328436,169.09496558638057 137.72912423621165,168.7507565144624 137.98050625546603,168.44277942100598 138.2318882747204,168.08045275702898 138.49898167006904,167.79059090309602 138.89176607510308,167.79059090309602 139.33168460871093,167.9355218881392 139.74018038989743,168.0985691074602 140.21152167592663,168.24349984563014 140.5728833284811,168.37031414624653 140.9813791096676,168.46089573511563 141.42129764333367,168.56959358186577 141.78265929594636,168.71452394245716 142.1597323247115,168.84133791271597 142.59965085831936,168.95003553071 142.9924352633534,169.09496558638057 143.2752400349127,169.14931432735466 143.71515856852056,169.31236045212427 144.18649985460797,169.47540642989043 144.50072737853043,169.63845226060948 144.83066627872176,169.72903321414196 145.11347105033929,169.80149794431054 145.44340995053062,169.89207881614857 145.8676171079278,170.09135657451407 146.30753564153565,170.18193730116764 146.68460867041722,170.30875024224224 146.73174279899104,170.23628571542213 146.43322665110463,170.1275888706441 146.15042187960353,170.01889196052798 145.89903986029094,169.94642731746717 145.66336921742186,169.8739626454335 145.3962758219568,169.78338176447141 145.20773930760333,169.5659874650737 145.25487343617715,169.31236045212427 145.31771894096164,169.09496558638057 145.3962758219568,168.85945418695337 145.4591213267413,168.60582618285844 145.36485306953546,168.27973251207732 145.12918242660817,168.15291814792727 144.8620890311431,168.00798733705597" stroke="#4DD2FF" stroke-linecap="round" stroke-linejoin="round" stroke-width="0.5"><title>2025-10-22 10.2km</title><desc>9223370275716227807</desc></polyline><polyline fill="none" points="13.367485822294839,240.37313239918876 13.224574669147842,239.70980078410503 13.0,239.5676577986378 13.07145557651529,239.1412277907075 13.347069943265524,238.92801219531248 13.643100189045072,239.07015596936253 14.919092627591453,239.0464653525487 15.06200378073845,238.65556947176083 15.449905482062604,238.57265199334506 15.899054820416495,238.73848689055012 18.257088846876286,238.75033223124046 19.002268431009725,238.93985751650325 21.7890359168523,239.11753718845284 26.729678638919722,240.57450017009978 29.23062381852651,241.00092487693473 31.149716446117964,240.76402245672944 31.81323251419235,240.53896470669133 32.323629489634186,240.6455710641021 37.98903591680573,240.53896470669133 42.419281663547736,240.1480738861137 43.348204158770386,240.19545466223644 43.51153119088849,240.4086679137472 48.38071833649883,240.8824737276882 51.198109640798066,241.3325874474176 53.219281663536094,241.4273480066622 54.55652173911221,241.3325874474176 56.35311909264419,240.92985420196783 60.28317580342991,239.40182409409317 62.11039697541855,238.9872387891155 64.86654064268805,239.0583106615668 66.91833648394095,239.5084315029453 67.0,239.37813354536775 66.8366729678819,239.2359901509917 65.18298676749691,238.75033223124046 63.50888468808262,238.64372412132798 61.85519848775584,238.76217757068662 60.16068052931223,239.12938249020226 56.097920604923274,240.78771272065205 52.60680529300589,241.2378268103639 45.175425330817234,240.17176427661616 42.58260869560763,240.15991908199794 37.08052930055419,240.52711954976985 32.92589792062063,240.46789374696527 28.955009451776277,241.00092487693473 27.73005671077408,240.8587834832215 26.974669187155087,240.503429232318 21.89111531188246,239.1886089805921 19.073724007525016,238.8569402425419 18.63478260865668,239.1412277907075 15.72551984875463,239.10569188552472 15.439697542518843,239.31890715234476 15.235538752342109,240.8587834832215 13.07145557651529,240.8824737276882 13.020415878971107,240.75217732295278 13.214366729662288,240.75217732295278 13.306238185206894,240.42051308284135 13.438941398868337,240.42051308284135" stroke="#4DD2FF" stroke-linecap="round" stroke-linejoin="round" stroke-width="0.5"><title>2024-11-02 10.7km</title><desc>1730492811000</desc></polyline></svg>