<?xml version="1.0" encoding="utf-8" ?>
<svg baseProfile="full" height="300mm" version="1.1" viewBox="0,0,200,300" width="200mm" xmlns="http://www.w3.org/2000/svg" xmlns:ev="http://www.w3.org/2001/xml-events" xmlns:xlink="http://www.w3.org/1999/xlink"><defs /><rect fill="#222222" height="300" width="200" x="0" y="0" /><text fill="#FFFFFF" style="font-size:12px; font-family:Arial; font-weight:bold;" x="10" y="20">Over 10km Runs</text><text fill="#FFFFFF" style="font-size:4px; font-family:Arial" x="10" y="280">Runner</text><text fill="#FFFFFF" style="font-size:9px; font-family:Arial" x="10" y="290">magisk</text><text fill="#FFFFFF" style="font-size:4px; font-family:Arial" x="65" y="280">SPECIAL TRACKS</text><rect fill="yellow" height="2.6" width="2.6" x="65" y="283" /><text fill="#FFFFFF" style="font-size:3px; font-family:Arial" x="70" y="285.5">Over 20.0 km</text><rect fill="red" height="2.6" width="2.6" x="65" y="287" /><text fill="#FFFFFF" style="font-size:3px; font-family:Arial" x="70" y="289.5">Over 40.0 km</text><text fill="#FFFFFF" style="font-size:4px; font-family:Arial" x="120" y="280">STATISTICS</text><text fill="#FFFFFF" style="font-size:3px; font-family:Arial" x="120" y="285">Number: 6</text><text fill="#FFFFFF" style="font-size:3px; font-family:Arial" x="120" y="290">Weekly: 1.0</text><text fill="#FFFFFF" style="font-size:3px; font-family:Arial" x="141" y="285">Total: 67.9 km</text><text fill="#FFFFFF" style="font-size:3px; font-family:Arial" x="141" y="290">Avg: 11.3 km</text><text fill="#FFFFFF" style="font-size:3px; font-family:Arial" x="167" y="285">Min: 10.1 km</text><text fill="#FFFFFF" style="font-size:3px; font-family:Arial" x="167" y="290">Max: 13.3 km</text><polyline fill="none" points="23.984522066486534,55.5188000369817 23.954402844654396,55.43197495477216 23.924283622705843,55.67508507538878 23.562852959672455,55.866099930906785 22.77975318976678,56.00501969362085 22.08701108553214,55.9008298820263 21.45450742531102,55.761910035813344 20.89730181975756,55.50143502402352 20.53587115672417,55.72718005688512 20.23467893747147,56.28285888490791 19.767830997763667,56.66488704561198 19.3913407237269,57.081644078716636 19.060029282583855,57.49840010963089 18.72871784149902,57.949884678804665 18.337167956517078,58.470826951030176 18.035975737322588,58.922308987006545 17.779962350963615,59.33906059163564 17.44865090987878,59.912092411803314 17.13239907968091,60.39829974308668 16.801087638596073,60.849776758026564 16.605312696134206,61.33598145884753 16.33423969888827,61.87427792955714 16.078226312471088,62.30838676872372 15.867391759122256,62.79458737783716 15.611378372763284,63.22869391202403 15.536080317921005,63.819077053674846 15.355364986404311,64.35736581261153 15.174649654945824,64.86092475101759 14.993934323370922,65.34711819997756 14.813218991854228,65.93749412606121 14.632503660337534,66.47577630606247 14.421669106872287,67.06614838795213 14.271072997304145,67.56969945701712 14.135536498681176,68.0558853080729 14.060238443838898,68.57679720671149 14.572265216556843,68.88934359443374 15.129470822052099,69.01088925970544 15.596318761818111,69.13243483976112 16.18364358920371,69.27134396975453 16.680610750918277,69.41025298845489 17.23781635647174,69.53179828845896 17.749843129131477,69.65334350324702 18.35222756752046,69.82697937653575 18.87931395106716,69.93116081705375 19.421459945617244,70.0874328603677 19.948546329222154,70.24370476283366 20.490692323830444,70.48679410888872 20.882242208754178,70.78197357074532 21.394268981355708,71.11187943331606 21.861116921179928,71.389694409605 22.327964860887732,71.63278214856109 22.87011085555423,71.85850617241522 23.321899184316862,72.04950319378986 23.864045178808738,72.27522667495941 24.391131562471855,72.46622323719203 24.993516000860836,72.60512969573028 25.53566199535271,72.67458288327907 26.017569546122104,72.69194617577887 26.710311650298536,72.7440360429755 27.19221920106793,72.7440360429755 27.764484417508356,72.8134891748341 28.29157080105506,72.83085245346592 28.909014850505628,72.84821573033696 29.466220456000883,72.88294227889855 30.023426061554346,72.91766882043157 30.5806316670496,72.95239535512519 31.122777661541477,72.98712188280479 31.67998326709494,73.00448514406162 32.2974273164873,73.03921166124928 32.854632922040764,73.10866467487358 33.47207697137492,73.23020738179912 33.984103744034655,73.36911322809465 34.49613051669439,73.50801896315534 35.02321690018289,73.64692458693753 35.53524367290083,73.78583009936847 36.01715122355381,73.90737233150867 36.51411838521017,74.04627763526514 37.041204768873286,74.1678196847497 37.59841037442675,74.30672477978806 38.17067559086718,74.44562976360612 38.72788119642064,74.60189773733146 39.300146412919275,74.70607630821178 39.827232796524186,74.81025481651886 39.61639824300073,74.93179633037653 39.586279021110386,75.07070081328857 40.15854423766723,75.14015301305335 40.640451788320206,75.20960518496577 41.167538171925116,75.31378339068033 41.73980338842375,75.417961533778 42.26688977202866,75.52213961422967 42.824095377582125,75.59159163308505 43.3060029282351,75.67840661758964 43.87826814473374,75.76522155856946 44.33005647355458,75.85203645608271 44.85714285710128,75.93885131011484 45.30893118598033,76.06039203278488 45.83601756958524,76.16456972718879 46.227567454450764,76.49446534657909 46.5137000628165,76.85908609026228 46.89019033679506,77.20634322841943 47.296799832663964,77.44942281127442 47.823886216268875,77.55359967103868 48.290734156093094,77.65777646821516 48.742522484855726,77.72722763154889 49.239489646512084,77.83140432437358 49.82681447395589,77.93558095456683 50.38402007956756,78.03975752215774 50.85086801927537,78.10920853246353 51.347835180931725,78.1960222562484 51.92010039743036,78.30019866737712 52.35682911530603,78.36964957331656 52.88391549879452,78.47382588010805 53.365823049563915,78.54327671654755 53.86279021122027,78.63009022294136 54.40493620582856,78.69954099677852 54.886843756597955,78.76899174276332 55.42898975108983,78.85580513608875 55.97113574569812,78.92525581948576 56.42292407446075,78.97734381382179 56.73917590454221,79.02943179244176 56.980129680014215,79.04679444851354 57.29638151015388,79.13360770276631 57.82346789370058,79.23778355051763 58.380673499254044,79.2898714509356 58.9378791047493,79.37668458349071 59.61556159798056,79.46349767255015 60.202886425482575,79.55031071815756 60.74503241997445,79.67184890902718 61.302238025469705,79.75866185029736 61.844384020077996,79.88019989505119 62.356410792679526,79.98437529421062 62.808199121500365,80.07118807894585 63.1395105625852,80.10591318074148 63.45576239278307,80.14063827553764 63.711775779142044,80.14063827553764 64.01296799833653,80.12327572898357 64.25392177369213,80.07118807894585 64.47981593804434,80.2100884442334 64.57017360383179,80.67887635540683 64.57017360383179,81.25183763663517 64.52499477093806,81.80743464652915 64.37439866142813,82.44984146986098 64.2689813846373,82.95334785664454 64.69065049150959,83.23114385794906 64.93160426686518,83.69992360088509 65.2779753190116,84.01244272537588 65.83518092456507,84.06452919141157 66.3472076971666,84.06452919141157 66.88935369171668,84.01244272537588 67.35620163142448,84.01244272537588 67.92846684798133,84.01244272537588 68.39531478768913,84.01244272537588 68.92240117135225,84.01244272537588 69.34407027822454,84.02980488246249 69.94645471655531,84.02980488246249 70.47354110021843,84.06452919141157 70.92532942898106,84.11661564171663 71.48253503453452,84.20342635750421 71.94938297424233,84.29023702982522 72.56682702357648,84.3770476586651 73.04873457434587,84.44649613047659 73.51558251411188,84.53330668114359 74.02760928677162,84.56803088920424 74.59987450321205,84.56803088920424 75.08178205392323,84.55066878600337 75.62392804858973,84.56803088920424 76.1058355991845,84.51594457453757 76.60280276095727,84.51594457453757 77.20518719934626,84.53330668114359 77.717213972006,84.49858246606891 78.25935996649787,84.49858246606891 78.75632712827064,84.48122035597044 79.20811545703327,84.48122035597044 79.73520184057998,84.46385824408208 80.2622882242431,84.48122035597044 80.71407655300573,84.49858246606891 81.30140138044953,84.55066878600337 81.78330893116072,84.53330668114359 82.31039531482384,84.49858246606891 82.89772014220944,84.44649613047659 83.40974691486917,84.48122035597044 84.02719096426154,84.48122035597044 84.52415812585969,84.51594457453757 85.14160217531025,84.58539299065887 85.63856933696661,84.60275509030907 85.77410583558958,84.02980488246249 85.83434427942848,83.56102603138424 85.9397615561029,83.02279689873103 85.86446350137703,82.53665302018635 85.30725789582357,82.50192840522504 84.7651119013317,82.44984146986098 84.23802551766858,82.36302987603995 83.66576030116994,82.24149357170973 83.13867391762324,82.11995718220714 82.6868855888024,81.92897125511081 82.22003764903639,81.7032603428379 81.73813009826699,81.5296363641537 81.22610332566546,81.46018672399805 80.71407655300573,81.5122739567305 80.23216900229454,81.5990859764861 79.76532106252853,81.79007226694375 79.25329428986879,82.05050777853467 78.71114829531871,82.25885590614052 78.10876385692973,82.32830522637232 77.62685630621854,82.29358056973433 77.12988914450398,82.29358056973433 76.55762392806355,82.25885590614052 76.1058355991845,82.25885590614052 75.578749215696,82.24149357170973 75.06672244297806,82.2241312355909 74.52457644842798,82.2241312355909 73.922192010039,82.15468187359511 73.60594017984113,82.15468187359511 72.98849613050697,82.13731952880335 72.59694624552503,82.06787013204303 72.00962141813943,81.9984207075031 71.55783308926038,81.94633362082823 70.92532942898106,81.79007226694375 70.4283622673247,81.6511731674982 69.94645471655531,81.5296363641537 69.75067977409344,81.42546189350833 69.4796067768475,81.28656250193308 69.22359339048853,81.06085075331794 69.04287805897184,80.86986365953635 69.04287805897184,81.61644837523636 68.87722233840032,81.8768841475976 68.84710311650997,81.2344752013887 68.50073206442175,80.85250118607655 67.92846684798133,80.55733887050883 67.43149968620855,80.43580130043847 67.50679774110904,80.05382552547962 67.08512863417855,79.84547474810097 66.52792302862508,79.77602443331853 66.01589625596534,79.9149250350747 65.59422714909306,80.24481351816212 65.1574984313338,80.22745098208543 65.05208115460118,79.93228760243801 64.72076971345814,79.94965016806964 64.28404099564068,80.01910041333758 63.65153733524494,80.08855063073861 63.109391340694856,80.05382552547962 62.58230495714815,79.94965016806964 62.01003974064952,79.84547474810097 61.49801296804799,79.72393667894357 61.016105417278595,79.61976112335105 60.398661367886234,79.49822289601434 59.85651537339436,79.41140982434445 59.32942898973124,79.34195933568117 58.74210416234564,79.27250881919463 58.320435055415146,79.23778355051763 57.7632294499781,79.1683329923253 57.190964233421255,79.08151975543296 56.678937460819725,79.02943179244176 56.19702991005033,78.94261848603492 55.685003137390595,78.87316780962283 55.30851286347024,78.82107978400018 54.66094959212933,78.73426637321245 54.118803597579245,78.64745291901636 53.63689604680985,78.59536482558178 53.09475005225977,78.52591401002428 52.55260405770969,78.42173773456307 52.025517674104776,78.30019866737712 51.543610123335384,78.21338499576086 50.97134490695316,78.14393402718997 50.50449696718715,78.05712027735717 49.81175486301072,77.93558095456683 49.4051453670254,77.86612987468834 48.742522484855726,77.74459041800583 48.26061493414454,77.64041367299797 47.6281112737488,77.53623686546052 47.08596527919872,77.34524588896602 46.649236561439466,77.01535188854905 46.36310395313194,76.70282015114208 45.98661367915338,76.25138442471507 45.48964651749702,76.07775498616684 45.05291779967956,75.97357723960886 44.51077180507127,75.90412537375232 43.998745032411534,75.79994752278435 43.45659903786145,75.71313259922317 42.92951265425654,75.60895463351335 42.38736665964825,75.53950262158469 41.950637941889,75.45268756752193 41.51390922401333,75.38323549303459 41.24283622670919,75.34850944529171 40.85128634178545,75.26169429562287 40.580213344539516,75.20960518496577 40.263961514341645,75.17487910248747 39.84229240746936,75.08806386587094 39.390504078706726,74.98388552451797 39.69169629790122,74.8970701922517 39.87241162941791,74.7234393973049 39.375444467703346,74.44562976360612 38.788119640317746,74.32408790889895 38.20079481275752,74.2025459689612 37.5080527086393,74.01155131975247 36.875549048301764,73.83791963782278 36.24304538802244,73.66428778207046 35.685839782468975,73.5253821722581 35.264170675654896,73.4212028917973 34.586488182481844,73.24757061860873 33.984103744034655,73.07393817155389 33.39677891653264,72.93503208868788 32.854632922040764,72.79612589448516 32.267308094596956,72.7440360429755 31.875758209556807,72.72667275565618 31.243254549219273,72.69194617577887 30.821585442346986,72.67458288327907 30.234260614961386,72.65721958900394 29.73729345324682,72.622492995215 29.165028236806393,72.58776639448479 28.668061075091828,72.55303978684242 28.201213135384023,72.55303978684242 27.674126751662698,72.51831317221513 27.131980757170822,72.46622323719203 26.619953984511085,72.448859922064 26.122986822912935,72.41413328656927 25.626019661140162,72.37940664408961 25.098933277651668,72.32731666737527 24.617025726882275,72.2231366669439 24.089939343219157,72.04950319378986 23.698389458295424,71.85850617241522 23.14118385274196,71.68487233399355 22.53879941435298,71.42442125028174 22.08701108553214,71.21606010159303 21.6352227567113,70.97297177824657 21.168374817003496,70.69515613414114 20.716586488240864,70.4694305954472 20.29491738131037,70.1916141443653 19.797950219654012,69.98325151384051 19.195565781206824,69.77488863286271 18.65341978665674,69.65334350324702 18.051035348325968,69.49707106858841 17.569127797556575,69.37552574420988 17.162518301571254,69.25398033460078 16.575193474185653,69.09770753989869 16.03304747963557,68.97616193552676 15.50596109603066,68.87197992105212 15.05417276720982,68.76779784394603 14.481907550769392,68.61152461096935 14.0,68.43788752013643 14.210834553465247,67.88224766068743 14.346371052088216,67.46551659720717 14.496967161772773,66.92723749074503 14.662622882227879,66.42368455532414 14.858397824747954,65.85067426307069 15.008993934257887,65.36448222651961 15.21982848783955,64.80883251490013 15.355364986404311,64.32263755603344 15.52102070703404,63.766984504429274 15.656557205598801,63.29815085658629 15.897510981012601,62.82931594058755 15.942689813906327,62.51675862536649 16.078226312471088,62.1521077119105 16.138464756309986,61.92637104765163 16.33423969888827,61.61381210407126 16.62037230707938,61.12760818269453 16.906504915328696,60.64140289729403 17.207697134523187,60.103102597480756 17.569127797556575,59.53007140888076 17.840200794802513,59.148049563897075 18.216691068839282,58.54028580231534 18.502823677030392,58.19299126739497 18.804015896224882,57.810966475110035 19.12026772648096,57.35948154400103 19.436519556620624,57.081644078716636 20.038903995009605,57.34211671548837 20.596109600446653,57.55049454300024 21.062957540270872,57.6720481600787 21.544865090982057,57.82833125664911 21.96653419797076,57.949884678804665 22.343024471891113,58.08880277117714 22.64421669114381,58.175626522352104 23.21648190752603,58.401368071863544 23.758627902076114,58.54028580231534 24.330893118632957,58.73129749989312 24.903158335073385,58.922308987006545" stroke="#4DD2FF" stroke-linecap="round" stroke-linejoin="round" stroke-width="0.5"><title>2026-01-05 12.6km</title><desc>9223370269236958807</desc></polyline><polyline fill="none" points="123.4724952938268,55.622977012826595 123.24660112935817,55.779262004289194 122.59903785807546,55.88345192026463 121.78581886627944,55.74453201830329 121.21355364983901,55.622977012826595 120.71658648818266,55.50142192206113 120.30997699225554,56.0223717107292 119.90336749632843,56.45649533845426 119.45157916744938,56.92534763486765 119.06002928252565,57.290009655145695 118.63836017571157,57.74149490293348 118.3823467893526,58.29716743937752 118.09621418104507,58.81810882422724 117.5540681865532,59.39114253903972 117.32817402208457,59.92944521190657 116.86132608231856,60.45038169049076 116.56013386312407,60.953952131501865 116.27400125493295,61.492249950402766 116.09328592341626,62.03054609749233 115.86739175894763,62.60356919115293 115.68667642748915,63.19395463952969 115.58125915075652,63.83643063665659 115.31018615351059,64.39208363258513 115.08429198910017,64.86091446230421 114.90357665752526,65.41656417393824 114.7078017151216,65.93748416085145 114.51202677260153,66.47576650272822 114.36143066297518,66.99668330638087 114.21083455340704,67.46550709127041 114.12047688761959,68.0211484535248 114.22589416435221,68.54206061305013 114.72286132606678,68.76778872936848 115.24994770967169,68.92406186845619 115.79209370422177,69.08033486666682 116.33423969877185,69.21924408015911 116.84626647143159,69.34078955060977 117.41853168787202,69.49706217314815 118.00585651531583,69.6706982551259 118.57812173181446,69.77487982086313 119.1503869483131,69.93115205204231 119.64735410996946,70.08742414235894 120.18950010451954,70.27842317252362 120.6864672662341,70.55623956795898 121.30391131556826,70.9555998564174 121.78581886627944,71.23341516655637 122.3430244718329,71.52859344576427 122.83999163354747,71.77168106303725 123.2917799622519,71.96267823743983 123.66827023628866,72.10158514120849 124.08993934321916,72.27521861436253 124.64714494877262,72.43148859150824 125.21941016515484,72.51830518461065 125.82179460360203,72.58775842783507 126.42417904204922,72.62248503895535 127.05668270238675,72.67457494263363 127.62894791876897,72.70930153643712 128.2614515791065,72.7266648306977 128.8035975737148,72.76139141402382 129.16502823674819,72.76139141402382 129.49633967789123,72.76139141402382 129.82765111897606,72.77875470307481 130.11378372722538,72.77875470307481 130.41497594636166,72.79611799040867 131.03241999581223,72.86557112225273 131.67998326709494,72.91766095292405 132.31248692737427,72.93502422633173 132.97510980966035,73.02184056727856 133.68291152472375,73.17810987133998 134.27023635216756,73.33437903458253 134.88768040161813,73.49064805700618 135.24911106465152,73.57746411967673 135.58042250573635,73.64691693847999 136.09244927833788,73.78582249270403 136.64965488389134,73.94209110811062 137.28215854417067,74.11572273779893 137.88454298255965,74.27199105589534 138.53210625390057,74.4108961091988 139.13449069228955,74.54980105126742 139.72181551979156,74.67134278424783 140.3543191800709,74.77552134473808 140.97176322946325,74.91442599458969 141.55908805690706,75.00124134426005 142.20665132813156,75.08805665042019 142.80903576652054,75.20959800608398 143.41142020502593,75.27905017101148 144.0138046432985,75.40059139272489 144.63124869269086,75.52213252920774 145.23363313113805,75.67839957955584 145.80589834763668,75.7652145466418 146.07697134488262,75.9041184035159 146.33298473112518,76.0951110250171 146.54381928470684,76.44236979780544 146.99560761346947,76.87644228560384 147.61305166286184,77.15424810742843 148.14013804640854,77.27578801452182 148.78770131774945,77.41469066115678 149.35996653418988,77.4667791248794 150.03764902736293,77.58831881287915 150.7153315205942,77.67513282354048 151.39301401382545,77.84876071444887 151.9652792303241,77.93557459468138 152.5375444467645,78.02238843149098 153.12486927415011,78.10920222479035 153.69713449070696,78.19601597462315 154.34469776198966,78.3522806148103 154.87178414553637,78.42173152074974 155.48922819492873,78.50854511409125 156.04643380042398,78.61272136867046 156.6337586278678,78.80371100627235 157.100606567692,78.94261242871289 157.61263334035175,79.13360170286614 158.169838945847,79.2030522958521 158.68186571850674,79.27250286102935 159.19389249110827,79.32459076662781 159.75109809666174,79.35931602834899 160.27818448026665,79.49821700567554 160.85044969676528,79.58503005997045 161.37753608031198,79.70656826294726 162.0250993515947,79.81074379773054 162.56724534614477,79.94964441334014 163.10939134075306,80.05381980206585 163.66659694630653,80.07118236077076 164.23886216268875,80.00173211550282 164.58523321477696,80.36634559258528 164.58523321477696,81.04348287278845 164.55511399288662,81.77270467854396 164.43463710520882,82.34566251718206 164.31416021758923,82.88389391357487 164.7960677682422,83.16169010958401 164.9767830997589,83.52629694146162 165.29303492995678,83.90826518098766 166.03095586702693,83.97771386142995 166.5731018615188,83.94298952468671 167.175486299966,83.90826518098766 167.80798996030353,83.89090300655516 168.33507634385023,83.90826518098766 168.87722233845852,83.94298952468671 169.4193683329504,83.97771386142995 169.8410374398809,83.97771386142995 170.127170048072,83.97771386142995 170.45848148921505,83.97771386142995 170.85003137413878,84.01243819121737 171.48253503459273,84.11661113884475 172.06985986197833,84.22078402382613 172.64212507847697,84.30759471355123 173.18427107302705,84.3944053597952 173.84689395525493,84.4812159625726 174.5095168374828,84.46385384553287 175.1119012758718,84.44649172670324 175.71428571431898,84.44649172670324 176.25643170886906,84.46385384553287 176.93411420210032,84.42912960611284 177.4762601966504,84.44649172670324 178.063585024036,84.44649172670324 178.6057310186443,84.41176748383441 179.20811545703327,84.42912960611284 179.75026145158336,84.41176748383441 180.36770550103392,84.42912960611284 180.92491110652918,84.4812159625726 181.51223593391478,84.4812159625726 182.05438192846486,84.42912960611284 182.6266471449635,84.41176748383441 183.19891236152034,84.37704323403887 183.78623718890594,84.37704323403887 184.02719096426154,84.13397329067811 184.07236979709705,83.76936773670604 184.3434427944012,83.61310797883198 184.6446350135957,83.42212363916042 184.9458272328484,83.3005880407145 185.2921982849366,83.196414602804 185.62350972602144,83.16169010958401 185.92470194521593,83.0922411023057 185.96988077810965,82.744995648638 185.92470194521593,82.51928573081386 185.2319598410395,82.43247414572397 184.6446350135957,82.32830018622917 184.07236979709705,82.27621318303864 183.50010458071483,82.13731443132565 182.85254130943213,81.96369083513855 182.28027609287528,81.70325511493138 181.7531897093868,81.46018142307003 181.1508052708814,81.39073173423822 180.51830161054386,81.47754384095606 179.97615561605198,81.65116792391927 179.41895001049852,81.92896609503077 178.80150596110616,82.18940147623653 178.3045387993916,82.2414885055623 177.70215436106082,82.20676382104284 177.19012758840108,82.22412616417569 176.57268353900872,82.20676382104284 176.03053754451685,82.18940147623653 175.45827232796,82.18940147623653 174.90106672246475,82.11995207949076 174.67517255805433,81.89424134802539 174.41915917169536,81.75534229027107 173.8619535662001,81.72061750844296 173.12403262918815,81.70325511493138 172.58188663457986,81.63380552345188 171.97950219619088,81.52963108409313 171.437356201699,81.42545658213203 170.80485254130326,81.26919471182919 170.26270654675318,81.16502005339134 169.7205605522613,80.90458313350973 169.2988914452726,80.47052073088707 168.90734156034887,80.05381980206585 168.4706128425314,79.758656038146 167.80798996030353,79.56766745258938 167.26584396569524,79.46349177177763 166.6935787491966,79.32459076662781 166.1664923656499,79.39404128311435 165.53398870525416,79.6371178716654 164.99184271076228,79.86283154162811 164.41957749420544,80.01909467943187 163.87743149971357,80.0885449177149 163.2148086174857,80.0885449177149 162.62748378998367,80.00173211550282 161.94980129681062,79.8281063807517 161.45283413509605,79.70656826294726 160.88056891859742,79.58503005997045 160.20288642542437,79.46349177177763 159.61556159798056,79.41140390785586 159.01317715959158,79.28986549795081 158.44091194309294,79.27250286102935 157.8686467266525,79.27250286102935 157.43191800877685,79.22041493975848 157.0403681237949,79.06415108204237 156.70905668271007,79.02942576125497 156.37774524156703,78.9947004334681 156.06149341142736,78.9599750986672 155.47416858398356,78.87316173143336 154.90190336748492,78.80371100627235 154.32963815098628,78.7168975607783 153.68207487970358,78.63008407177404 153.12486927415011,78.50854511409125 152.46224639198044,78.42173152074974 151.8899811754818,78.33491788395622 151.21229868230876,78.21337871938886 150.60991424386157,78.05711395404069 150.03764902736293,77.97030013460608 149.39008575613843,77.84876071444887 148.71240326290717,77.70985841564834 148.1551976573537,77.58831881287915 147.55281321896473,77.51886757304601 146.99560761346947,77.29315085143025 146.52875967370346,76.84171652661462 146.28780589840608,76.52918438229244 146.06191173393745,76.28610343612672 145.62518301606178,76.11247398021806 145.05291779956315,75.97357029022533 144.46559297217755,75.9041184035159 143.87826814467553,75.78257753481739 143.2457644843962,75.67839957955584 142.61326082405867,75.57422156166285 142.04099560761824,75.47004348119663 141.34825350350002,75.33113927647355 140.80610750889173,75.24432409204019 140.23384229233488,75.15750886405294 139.7519347416819,75.05333053314826 139.39050407864852,74.96651520959858 139.70675590878818,74.8970629194664 139.85735201841453,74.61925348057412 139.76699435262708,74.39353298365313 140.02300773898605,73.90736476129678 140.18866345955757,73.33437903458253 140.38443840196123,72.69193824040121 140.5802133444813,72.08422178428737 140.77598828694317,71.5112300314795 140.95670361851808,70.90350943616068 141.107299728028,70.39996790030273 141.2880150596029,69.80960699553543 141.4687303911196,69.2366077239858 141.72474377742037,69.28869864511944 141.84522066509817,69.58388023587759 141.80004183220444,69.89642490174447 141.7096841664752,70.20896900407388 141.61932650068775,70.52151254286582 141.49884961300995,70.88614595925901 141.43861116922926,71.19868827717437 141.34825350350002,71.4938666154776 141.25789583771257,71.77168106303725 141.107299728028,72.15367520140717 140.97176322946325,72.44885191359208 140.92658439656952,72.77875470307481 140.67057101021055,73.3864687243913 140.47479606774868,73.78582249270403 140.03806734987302,74.16781219284167 139.51098096632631,74.46298547550396 138.89353691693395,74.34144359645143 138.32127170043532,74.20253848747234 137.76406609494006,74.0636332671711 137.19180087844143,73.90736476129678 136.60447605099762,73.75109611455991 136.01715122361202,73.59482732697506 135.45994561805855,73.47328483923047 134.91779962350847,73.33437903458253 134.3003555741161,73.16074662229221 133.75820957956603,73.00447730254382 133.21606358495774,72.86557112225273 132.7040368123562,72.7266648306977 132.1167119848542,72.7266648306977 131.5745659903041,72.70930153643712 130.91194310813444,72.65721164316346 130.29449905874208,72.63984834190342 129.72223384224344,72.58775842783507 129.149968625803,72.55303180968622 128.6228822421399,72.5356684980361 128.0355574147543,72.51830518461065 127.70424597355304,72.48357855262293 127.40305375441676,72.43148859150824 126.7856097050826,72.43148859150824 126.18322526663542,72.41412526770728 125.61096005013678,72.39676194208732 124.93327755696373,72.27521861436253 124.3610123404651,72.13631184975384 123.75862790207611,71.85849798655545 123.15624346368713,71.68486409597972 122.61409746907884,71.45913977823511 122.07195147458697,71.19868827717437 121.54486509092385,70.86878248066932 121.00271909643197,70.52151254286582 120.53587115666596,70.22633254877292 119.94854632916395,69.98324276447238 119.63229449908249,69.86169774447626 119.25580422504572,69.74015263924957 118.92449278390268,69.65333465473668 118.62330056470819,69.58388023587759 118.0811545701581,69.46233493587351 117.49382974265609,69.32342591717315 116.90650491521228,69.201880434528 116.33423969877185,69.04560754590784 115.74691487132804,68.90669819331379 115.14453043288086,68.75042503856821 114.60238443838898,68.61151544938912 114.0,68.40315085691691 114.24095377529738,67.81278315138479 114.4668479397078,67.23977727907186 114.5873248273856,66.70149730984122 114.7680401589023,66.16321566901752 114.9487554904772,65.59020434350532 115.09935159998713,65.06928331289964 115.34030537545914,64.53099660323642 115.52102070685942,63.97534405264014 115.73185526038287,63.45441816869425 115.9426898137317,62.81194075553503 116.09328592341626,62.256282693866524 116.22882242203923,61.90899550073664 116.37941853160737,61.61380083941913 116.56013386312407,61.3186056753766 116.89144530426711,60.79767180635827 117.23781635635532,60.24200728695723 117.4335912988754,59.84262231324101 117.62936624127906,59.51269490162667 117.85526040574769,59.217496158904396 118.00585651531583,58.90493223613885 118.2016314578359,58.627097164979205 118.62330056470819,58.071425686299335 119.06002928252565,57.53311724239029 119.52687722229166,57.08163145180151 120.17444049357437,57.37683383264812 120.73164609912783,57.56784686993342 121.25873248273274,57.72413010748278 121.78581886627944,57.880413204053184 122.37314369378146,58.08879044701462 122.79481280065374,58.21034372301074 123.33695879514562,58.34926164832723 124.01464128831867,58.557638327547465 124.61702572682407,58.870202876627445 125.1290524994838,58.54027361389308 125.4754235514556,58.0366961597756 125.67119849403389,57.55048205703497 125.27964860905195,57.342104166862555" stroke="#4DD2FF" stroke-linecap="round" stroke-linejoin="round" stroke-width="0.5"><title>2026-01-02 13.3km</title><desc>9223370269494935807</desc></polyline><polyline fill="none" points="25.642628599598538,133.20492566803296 25.057839035289362,133.26622668490745 24.366724095481914,133.42969597311458 23.711050947604235,133.4092623192846 23.05537779966835,133.20492566803296 22.71868077776162,133.1640583131375 22.09844942163909,133.04145619957126 21.690868816163857,133.22535934236657 21.318730002443772,133.75663415649615 20.857986709394027,134.14487256854773 20.39724341616966,134.57397732186655 20.007383706746623,135.04394815863634 19.61752399703255,135.49348446728254 19.263106079306453,136.04518676445878 18.908688161463942,136.51515421070508 18.501107556046918,137.12815360004606 18.128968742326833,137.65941824705806 17.79227172047831,138.21111468486197 17.473295594449155,138.7219433891878 17.15431946842,139.25320388443652 16.835343342332635,139.7640299785562 16.53408811223926,140.29528775923245 16.285995569778606,140.8265441560652 16.126507506822236,141.419097735401 15.91385675611673,142.0933807487454 15.754368693102151,142.645065192497 15.541717942454852,143.25804615748348 15.329067191749346,143.87102528031392 15.13413733697962,144.56573272580863 14.939207482209895,145.2195728658553 14.708835835568607,145.91427571805252 14.496185085037723,146.4863821727049 14.283534334274009,147.18108071017195 14.12404627125943,147.77361582840967 14.248092542518862,148.38658138064784 14.726556731504388,148.73392770929786 15.311346295871772,148.8565203899052 15.878414964361582,149.01997718283383 16.445483632793184,149.1630017691641 17.083435884851497,149.30602625524625 17.668225449160673,149.44905064099294 18.253015013528056,149.59207492647693 18.820083682017867,149.73509911172732 19.546640413580462,149.91898720244353 20.113709081953857,150.0415791708656 20.804824021761306,150.22546698532824 21.336450898379553,150.45021853341314 21.903519566869363,150.77712943406368 22.399704651732463,151.0836079275905 22.913610632589553,151.4309496635251 23.56928378046723,151.7987226216792 24.08318976132432,152.0439042254293 24.738862909260206,152.26865376990463 25.252768890059087,152.4934030667937 25.81983755849069,152.71815211612557 26.351464435167145,152.9224692187272 27.024858478980605,153.06549106880266 27.591927147412207,153.1267861167289 28.265321191283874,153.16764947173942 28.850110755651258,153.20851281860087 29.52350479940651,153.22894448897569 30.21461973915575,153.2698078235553 30.728525719954632,153.29023948776012 31.384198867890518,153.33110281004338 31.93354664038634,153.37196612417756 32.62466158019379,153.37196612417756 33.17400935274782,153.43326107991743 33.81196160474792,153.47412437363528 34.36130937730195,153.4945560174092 34.96381983754691,153.53541929878702 35.42456313065486,153.53541929878702 35.81442284025252,153.5558509363036 36.133398966281675,153.61714583692083 36.52325867587933,153.67844071904256 37.10804824024672,153.8418936480739 37.710558700491674,154.00534644607978 38.2599064730457,154.14836753698182 38.82697514153551,154.29138852753385 39.53581097716233,154.4752725109429 40.085158749716356,154.61829327230225 40.72311100177467,154.78174544818467 41.254737878451124,154.90433449421835 41.80408565100515,155.04735495477507 42.44203790300526,155.2108067868685 43.09771105099935,155.37425848811108 43.66477971943095,155.49684717801574 44.28501107561169,155.6194357942295 44.97612601524452,155.72159291822754 45.61407826730283,155.8441813994432 46.163426039915066,155.94633841082396 46.46468127006665,156.00763259307132 46.765936500160024,156.06892675698327 47.12035441794433,156.10978952267033 47.51021412748378,156.150652280121 47.98867831658572,156.2732405035058 48.59118877683068,156.3753973000712 49.193699237075634,156.49798538834148 49.88481417670846,156.62057340300817 50.522766428708564,156.72273002561997 51.01895151368808,156.76359266032523 51.40881122328574,156.86574921129795 51.76322914107004,157.04963087411306 51.993600787594914,157.23351237121096 52.27713512186892,157.64213732689677 52.737878414976876,158.11205501410586 53.304947083466686,158.43895363630145 53.907457543653436,158.62283388109063 54.527688899834175,158.7249895010027 55.11247846420156,158.8067139601917 55.76815161219565,158.9293005874497 56.35294117650483,159.0110249647405 56.955451636749785,159.1131803902681 57.504799409303814,159.19490469391167 57.85921732708812,159.25619790008932 58.16047255718149,159.2970600273693 58.461727787333075,159.337922146442 58.76298301742645,159.39921530967695 59.11740093526896,159.48093949870963 59.418656165362336,159.52180158095143 59.7376322914497,159.5830946889473 60.07432931329822,159.62395675077278 60.41102633520495,159.70568084971455 60.69456066947896,159.74654288696183 61.03125769138569,159.78740491600183 61.332512921479065,159.8282669368491 61.68693083920516,159.90999095400912 62.005906965292525,159.9508529502782 62.28944129956653,160.01214592940232 62.62613832147326,160.05300790525507 63.28181146940915,160.15516280902375 63.919763721351046,160.3594724631257 64.61087866110029,160.5637819126423 65.14250553777674,160.70679840554658 65.7450159980217,160.84981479820271 66.29436377057573,160.93153840613377 66.89687423082069,160.99283109059616 67.51710558700142,161.09498552377045 68.10189515136881,161.15627815912012 68.68668471573619,161.25843251048354 69.2537533841678,161.3810176646075 69.8208220525994,161.4831719033973 70.38789072114741,161.60575692245038 70.9726802855148,161.72834186781256 71.52202805806883,161.83049593269243 72.05365493474528,161.91221914779453 72.67388629092602,161.91221914779453 73.24095495935762,161.81006512383465 73.41816391824977,162.25954244668537 73.38272212655284,162.85203376843128 73.4713266059407,163.46495401464927 73.40044302248862,164.13916415872518 73.24095495935762,164.6703584606148 73.22323406348005,165.2219818487356 73.79030273202807,165.589729945641 73.98523258673958,166.14135084806185 74.39281319221482,166.48866694739263 75.06620723597007,166.54995796241565 75.63327590451809,166.52952762608766 76.23578636476304,166.48866694739263 76.80285503319465,166.48866694739263 77.42308638937538,166.48866694739263 78.0610386414337,166.48866694739263 78.66354910167865,166.5090972877806 79.24833866604604,166.52952762608766 79.85084912623279,166.54995796241565 80.45335958653595,166.57038829661906 80.82549840019783,166.57038829661906 81.16219542210456,166.63167928703479 81.46345065225614,166.67253993709164 81.80014767410466,166.75426121268538 82.10140290419804,166.7951218382077 82.36721634259447,166.8359824555373 82.703913364443,166.87684306464507 83.0583312822273,166.91770366558922 83.34186561650131,166.95856425842794 83.67856263840804,166.99942484297208 83.96209697262384,167.01985513221007 84.24563130695606,167.06071570451604 84.58232832880458,167.081145987715 84.88358355889795,167.06071570451604 85.20255968498532,167.081145987715 85.37976864381926,166.91770366558922 85.41521043569082,166.3047937919764 85.45065222738776,165.71231249730045 85.87595372874057,165.2832732442912 86.0,164.60906688099203 85.55697760276962,164.32303926591703 84.86586266302038,164.3026087065955 84.31651489040814,164.09830300133035 84.15702682745177,163.83270527853165 83.66084174247226,163.73055221619143 83.11149396991823,163.6692603542324 82.52670440560905,163.60796847380698 81.88875215360895,163.46495401464927 81.32168348511914,163.34237011270307 80.87866108777234,163.24021680481383 80.59512675361475,163.17892479554575 80.31159241945716,163.11763276788406 79.99261629336979,162.99504865724884 79.70908195909578,162.83160306181526 79.44326852081576,162.62729588344519 79.1951759782969,162.38212699926225 78.96480433177203,162.15738859667908 78.73443268518895,161.93264994648052 78.38001476740465,161.58532609103713 77.79522520303726,161.36058681065333 77.17499384691473,161.1971399058384 76.4838789072237,161.05412375662127 75.84592665516539,160.97240019784658 75.10164902784163,161.1154164042964 74.49913856759667,161.34015595473466 73.93206989910686,161.56489525757206 73.31183854292613,161.76920349993452 72.67388629092602,161.81006512383465 72.03593403886771,161.81006512383465 71.34481909917668,161.70791104866657 70.7600295348675,161.60575692245038 70.13979817868676,161.4627410596877 69.50184592668666,161.34015595473466 68.88161457050592,161.1971399058384 68.26138321432518,161.09498552377045 67.676593650016,160.99283109059616 66.98547871032497,160.91110750721418 66.40068914595759,160.84981479820271 65.76273689395748,160.80895298195537 65.16022643371252,160.72722932489705 64.57543686928693,160.62507470756827 64.00836820085533,160.54335097687726 63.44129953242373,160.4616272134299 62.76790548855206,160.37990341731347 62.183115924184676,160.27774862601655 61.75781442283187,160.21645572670968 61.40339650504757,160.1755937836715 61.08442037901841,160.13473183233873 60.7300024611759,160.0734388900164 60.42874723114073,160.0325769183255 60.109771105169784,159.99171493838367 59.808515874959994,159.9712839453714 59.489539748989046,159.90999095400912 59.17056362290168,159.848697944195 58.904750184563454,159.78740491600183 58.532611370959785,159.70568084971455 58.19591434893664,159.66481880433275 57.93010091071483,159.60352572088595 57.59340388874989,159.54223261898733 57.274427762720734,159.50137054087827 56.97317253268557,159.44007740828965 56.671917302533984,159.39921530967695 56.37066207244061,159.3174910878879 55.92763967515202,159.2357668334298 55.28968742309371,159.13361146923853 54.6517351710354,159.0110249647405 53.99606202321593,158.88843838652247 53.37583066703519,158.7658517346572 52.791041102667805,158.52067820999946 52.29485601768829,158.07119264945504 51.92271720408462,157.60127486815327 51.39109032734996,157.1926498306275 50.80630076298257,157.04963087411306 50.16834851092426,156.92704311729176 49.54811715485994,156.82488659702358 48.963327590434346,156.72273002561997 48.396258922002744,156.62057340300817 47.75830666994443,156.51841672926093 47.12035441794433,156.39582865321427 46.535564853518736,156.31410322821466 45.915333497396205,156.19151502943714 45.47231110022403,156.10978952267033 44.905242431676015,156.04849537105474 44.58626630570507,156.00763259307132 44.33817376324441,155.94633841082396 44.05463942902861,155.9054756123951 43.89515136607224,155.8441813994432 44.21412749198498,155.76245575347275 44.47994093038142,155.6398672231444 43.948314053646754,155.19037531504 43.31036180164665,155.0677864409081 42.654688653710764,154.924765994685 41.92813192226458,154.74088241653226 41.325621462019626,154.57743020784983 40.705390105897095,154.41397786824382 40.067437853780575,154.25052539761236 39.64213635248598,154.16879911317665 39.234555747010745,154.04620962518675 38.93330051691737,153.98491485351406 38.59660349495243,153.8623252549587 38.2599064730457,153.8010304281488 37.92320945119718,153.69887234229827 37.51562884572195,153.59671420544328 36.87767659366364,153.43326107991743 36.29288702929625,153.29023948776012 35.67265567317372,153.22894448897569 34.98154073348269,153.18808114621788 34.2549840019783,153.14721779526735 33.63475264591398,153.1063544361241 32.89047501847381,153.06549106880266 32.199360078782775,153.04505938205693 31.50824513909174,153.00419600249734 30.888013782911003,152.9633326147159 30.232340635033324,152.9224692187272 29.59438838303322,152.90203751764784 28.97415702685248,152.86117410943552 28.47797194198938,152.84074240224436 28.105833128327504,152.82031069297227 27.733694314665627,152.79987898169202 27.414718188578263,152.77944726838905 26.90081220777938,152.71815211612557 26.28058085165685,152.55469828665082 25.678070391353685,152.32994905728265 25.09328082704451,152.0643360124086 24.455328575044405,151.83958624278603 23.888259906554595,151.5944043934869 23.374353925755713,151.32879039082036 22.842727048962843,151.0631760423712 22.452867339423392,150.81799325979955 21.921240462805144,150.47065048002696 21.371892690192908,150.1641710655531 20.982032980537042,150.0415791708656 20.62761506275274,149.91898720244353 20.32635983271757,149.83725918261916 20.060546394321136,149.73509911172732 19.741570268350188,149.67380304459948 19.440315038198605,149.53077881636273 19.13905980810523,149.46948268795677 18.820083682017867,149.3877544879506 18.536549347802065,149.30602625524625 18.18213143007597,149.2242979897419 17.845434408052824,149.1630017691641 17.508737386204302,149.06084136059508 17.207482156110927,148.9791129968362 16.888506030023564,148.8973846004228 16.55180900817504,148.81565617119486 16.250553778081667,148.754359827828 15.91385675611673,148.6521992145863 15.612601526023354,148.59090282201942 15.080974649288692,148.44787783453648 14.443022397346795,148.3048527467763 14.017720895935781,147.9779378837993 14.283534334274009,147.38540335919242 14.460743293107953,146.79286711318127 14.69111493974924,146.17989677155856 14.921486586332321,145.5056272680231 15.080974649288692,144.93351806244755 15.275904504058417,144.32054213286028 15.453113463066984,143.7892948370427 15.665764213597868,143.17631546861958 15.8606940684258,142.60419972924865 16.05562392331194,141.99121679909877 16.197391090390738,141.43953058672196 16.410041841096245,140.84697706677252 16.746738862944767,140.21355588312144 16.941668717714492,139.74359695936437 17.136598572484218,139.4166683737276 17.33152842731215,139.08973926404724 17.508737386204302,138.82410897650698 17.6505045532831,138.4971789169067 17.845434408052824,138.23154785759107 18.00492247112561,137.96591645227454 18.217573221831117,137.65941824705806 18.501107556046918,137.25075325681246 18.979571745090652,136.63775423598418 19.404873246327043,136.06562015418604 19.777012060105335,135.55478479615704 20.113709081953857,135.0848151367536 20.57445237506181,134.90091367081914 21.212404627236538,135.14611558846082 21.60226433671778,135.26871643676714 21.95668225456029,135.39131721138256 22.240216588717885,135.47305102019163 22.594634506560396,135.57521823506977 22.913610632589553,135.69781882537063 23.197144966747146,135.75911909292336 23.480679301079363,135.84085275430698 23.994585281878244,136.02475337263604 24.455328575044405,136.16778707221965 24.56165395025164,135.98388658287877 24.614816638000775,135.57521823506977 24.756583805079572,135.22784949556808 25.09328082704451,135.2891499043617 25.341373369388748,134.94178067753091 25.642628599598538,134.49224315278116 25.99704651738284,134.39007539527665 26.20969726803014,134.51267669811205" stroke="#4DD2FF" stroke-linecap="round" stroke-linejoin="round" stroke-width="0.5"><title>2025-12-28 11.0km</title><desc>9223370269926779807</desc></polyline><polyline fill="none" points="126.9161046667723,133.98801158054266 126.25573239813093,133.78644675989926 125.61478284315672,133.54008951004653 125.01267871586606,133.36092043049575 124.44942001602612,133.20414736807288 124.08038845425472,133.15935504437948 123.61424332344905,133.4281088521966 123.22578904766124,133.8088428600313 122.85675748577341,134.27916044498852 122.44888049631845,134.68228901582188 122.0215807929635,135.10781282949029 121.63312651729211,135.55573175822792 121.2640949555207,136.00364978933067 120.83679525216576,136.54115024181374 120.46776369027793,137.01146207739657 120.07930941460654,137.50416865333682 119.71027785271872,137.99687414318032 119.38009171839803,138.55676542692527 119.0110601563938,139.02707302146882 118.73914216342382,139.49737962651125 118.38953331531957,140.01247620135837 118.09819260856602,140.5275715891912 117.74858376034535,141.06506116324454 117.45724305359181,141.58015412553505 117.24359320208896,142.05045535889803 116.89398435386829,142.63273170540924 116.64148907468189,143.23740169068333 116.5055300781969,143.70769943734922 116.33072565414477,144.17799619449943 116.25303479889408,144.71547699114308 116.17534394387621,144.96182192434208 115.98111680604052,145.40972110744042 115.84515780955553,145.9695938243094 115.65093067160342,146.4846754854516 115.45670353376772,147.0445455100853 115.30132182349917,147.5820194146072 115.06824925809633,148.2762546287122 114.87402212026063,148.79133097504382 114.6992176962085,149.37358976360701 114.52441327215638,149.93345255321765 114.38845427567139,150.51570836709288 114.58268141350709,151.1203570302605 114.91286754782777,151.47866657747363 115.51497167523485,151.61303250966012 116.07823037495837,151.74739836108347 116.5637982195476,151.8817641317437 117.04936606413685,152.01612982158258 117.5932020500768,152.15049543071655 118.13703803601675,152.30725520598935 118.68087402207311,152.44162064016564 119.2635554355802,152.57598599350604 119.80739142152015,152.71035126618517 120.37065012136009,152.86711064889096 120.91448610730004,152.97908156922495 121.43889937957283,153.0910524335195 122.00215807929635,153.29259984781675 122.46830321010202,153.5165412062488 123.01213919604197,153.87484691310965 123.51712975441478,154.21075799177925 124.00269759900402,154.50188051833538 124.52711087127682,154.8153966615355 124.97383328829892,155.03933649459213 125.55651470180601,155.28567005194782 126.0809279740788,155.50960941397352 126.7218775289366,155.77833635231946 127.20744537352584,155.97988134413026 127.77070407336578,156.15903229541436 128.3339627730893,156.29339541470108 128.87779875902925,156.38297078269534 129.57701645535417,156.42775845322467 130.08200701361056,156.47254611479002 130.7035338548012,156.49493994223303 131.26679255452473,156.5397275902942 131.83005125436466,156.56212141101423 132.39330995408818,156.5845152294496 132.8983005125774,156.60690904565854 133.4615592121845,156.65169667135342 134.02481791202445,156.6740904807957 134.58807661174797,156.71887809301552 135.2096034528222,156.74127189574938 135.734016725095,156.7636656962859 136.31669813860208,156.78605949452322 136.8799568383256,156.8308470842312 137.5791745345341,156.85324087586196 138.1618559481576,156.89802845219674 138.70569193409756,156.98760357788706 139.26895063382108,157.0995724345994 139.7739411923103,157.23393498871883 140.39546803338453,157.3906911996164 140.8810358780902,157.52505357871996 141.4442945776973,157.65941587707493 142.00755327753723,157.81617178976012 142.55138926347718,157.95053391311376 143.1923388184514,158.10728962172288 143.69732937670778,158.21925791770627 144.202319935197,158.37601343785354 144.76557863492053,158.53276884810475 145.32883733476046,158.5999497045559 145.83382789313328,158.73431135693681 146.33881845150609,158.8686729285837 146.94092257879674,159.00303441946744 147.44591313728597,159.1150022669026 148.0674399783602,159.22697005813825 148.708389533218,159.3389377934509 149.25222551915795,159.45090547262225 149.8737523603486,159.54047957558942 150.3787429187214,159.63005364270066 151.0196924735792,159.71962767391233 151.62179660098627,159.83159516238084 152.14620987314265,159.92116911293124 152.7483140004333,160.03313650051132 153.29214998637326,160.12271037018218 153.93309954134747,160.23467765691748 154.51578095485456,160.3466448875115 155.04019422712736,160.41382519896433 155.62287564051803,160.63775942471693 156.01132991630584,160.99605371938378 156.3609387644101,161.46631410984264 156.7493930400815,161.8693936572963 157.19611545722,162.13811295195774 157.77879687061068,162.33965221098333 158.26436471543275,162.42922515670944 158.82762341503985,162.51879806647776 159.33261397341266,162.60837094041926 159.8764499593526,162.69794377847575 160.49797680054326,162.80990977556212 161.00296735891607,162.89948253288458 161.64391691389028,163.01144842915528 162.18775289983023,163.1010211056564 162.80927974090446,163.21298690089316 163.41138386819512,163.30255949677667 164.0134879956022,163.41452519111044 164.537901267875,163.50409770621627 165.06231454003137,163.5712770689861 165.72268680867273,163.68324262877286 166.22767736704554,163.77281503628183 166.79093606676906,163.86238740781846 167.4124629078433,163.95195974352828 167.9368761801161,164.04153204336762 168.50013487995602,164.19828348168812 169.00512543821242,164.3326417699136 169.56838413793594,164.46699997746327 170.0539519826416,164.60135810426436 170.5589425410144,164.8476811269793 171.08335581317078,164.87007411560626 171.58834637166,164.93725306801207 172.1710277851671,165.00443200016161 172.44294577813707,165.04921794381517 172.7537091987906,165.04921794381517 173.06447261932772,165.09400387844653 173.5111950362334,165.18357572071545 174.05503102228977,165.2731475271721 174.63771243591327,165.38511223475507 175.25923927687109,165.5194698098785 175.74480712157674,165.60904148172995 176.26922039373312,165.74339892233547 176.8130563797895,165.83297050451802 177.35689236561302,165.94493493184564 177.86188292410225,166.01211356128624 178.3474507686915,166.03450643326505 178.910709468415,165.98972068706644 179.33800917176995,165.90014916760265 179.6293498785235,165.83297050451802 179.92069058516063,165.69861311781278 180.19260857824702,165.60904148172995 180.48394928500056,165.5194698098785 180.75586727797054,165.42989810211293 181.22201240889262,165.25075457895582 181.72700296726543,165.09400387844653 182.29026166710537,165.09400387844653 182.83409765304532,165.20596867574204 183.39735635276884,165.31793341693992 183.9994604800595,165.4746839604777 184.54329646599945,165.653827304297 185.0288643105887,165.92254205084464 185.4173185863765,166.34800640580943 185.74750472069718,166.70629155056668 186.0,166.77346995126572 185.74750472069718,166.52714904994355 185.5338548690779,166.3256135652191 185.30078230355866,166.12407789885765 185.10655516572297,165.90014916760265 184.87348260043655,165.60904148172995 184.36849204194732,165.42989810211293 183.82465605600737,165.29554047317652 183.280820069951,165.16118276353518 182.63987051520962,165.04921794381517 182.11545724293683,164.95964604764595 181.5521985432133,165.02682497311616 180.98893984337337,165.25075457895582 180.48394928500056,165.42989810211293 179.99838144041132,165.653827304297 179.47396816825494,165.7881847179524 178.94955489609856,165.83297050451802 178.2697599135572,165.87775628217787 177.74534664140083,165.87775628217787 177.16266522777732,165.7881847179524 176.67709738318808,165.69861311781278 176.1526841109153,165.58664856715768 175.55057998362463,165.4746839604777 175.00674399768468,165.34032635849144 174.44348529796116,165.22836162844033 173.86080388445407,165.1387898040266 173.18100890191272,165.02682497311616 172.63717291597277,164.95964604764595 172.05449150234926,164.87007411560626 171.51065551640932,164.8252881361259 170.92797410301864,164.75810915013426 170.32586997561157,164.71332314821484 169.7237658483209,164.62375111751317 169.17992986226454,164.53417905091192 168.53898030740675,164.4446069484984 167.9951443214668,164.37742784811417 167.37361748039257,164.28785568285093 166.81035878055263,164.19828348168812 166.20825465326197,164.10871124459663 165.62557323963847,164.01913897173654 165.12058268138207,163.95195974352828 164.5767466952093,163.86238740781846 164.0134879956022,163.77281503628183 163.37253844062798,163.66084952131496 162.82870245468803,163.5712770689861 162.30428918253165,163.45931145314535 161.68276234145742,163.34734578123607 161.15834906918462,163.25777320333873 160.51739951432683,163.14580743051192 159.99298624205403,163.05623477185145 159.39088211476337,162.9666620773205 158.866468842607,162.8770893469773 158.32263285666704,162.76512338344764 157.7011060154764,162.63076415326213 157.15727002953645,162.4740116160392 156.59401132992934,162.13811295195774 156.20555705414154,161.73503388892277 155.81710277835373,161.2423807139421 155.40922578889877,160.9064801995264 154.8848125167424,160.74972645349044 154.32155381701887,160.66015283494198 153.75829511729535,160.525792339904 153.23388184513897,160.4586120620661 152.6900458590826,160.36903832694225 152.16563258692622,160.2794645558606 151.50526031828485,160.14510383205197 151.00026975991204,160.0555299713451 150.3204747773707,159.94356259489723 149.7960615052143,159.87638214215985 149.27164823294152,159.78680817375425 148.708389533218,159.67484066271572 148.18397626106162,159.5852666136343 147.5430267060874,159.45090547262225 146.97976800636388,159.36133133375552 146.3970865928568,159.27175715903286 145.93094146205112,159.18218294839608 145.63960075529758,159.1150022669026 145.3676827623276,159.0702151345904 145.07634205557406,159.00303441946744 144.7850013487041,158.91346010116104 144.45481521438342,158.84627933890442 143.87213380087633,158.66713054086722 143.27002967346925,158.5103752248251 142.70677097362932,158.37601343785354 142.00755327753723,158.17447060593986 141.38602643634658,158.0177149444935 140.8033450228395,157.8609591731365 140.104127326631,157.68180958558514 139.5797140544746,157.54744730070524 138.95818721328396,157.3906911996164 138.414351227344,157.27872248871427 137.81224710005336,157.25632873977884 137.2101429727627,157.23393498871883 136.58861613157205,157.1891474796139 136.0447801456321,157.1667537217436 135.48152144579217,157.14435996157408 134.8211491771508,157.12196619916358 134.19962233607657,157.0995724345994 133.63636363623664,157.07717866775056 133.01483679527882,157.03239112731535 132.49042352300603,157.00999735374353 131.83005125436466,157.00999735374353 131.26679255452473,156.98760357788706 130.6452657134505,156.96520979977504 130.10142972739413,156.94281601956754 129.40221203130204,156.92042223697354 128.81953061767854,156.89802845219674 128.1980037766043,156.80845329054864 127.63474507688079,156.5845152294496 127.05206366325729,156.36057694407646 126.43053682229947,156.09185070550302 125.90612355002668,155.86791192668898 125.32344213640317,155.64397292349895 124.70191529532894,155.39763976096583 124.17750202305615,155.17370028677396 123.65308875101618,154.97215456822596 123.1869436200941,154.70342666088254 122.70137577550486,154.30033419416577 122.2934987860499,153.94202916925133 121.76908551389351,153.65090591364424 121.18640410027001,153.53893532972143 120.58429997297935,153.4045705551107 120.02104127325583,153.29259984781675 119.49662800098304,153.18062908449792 118.85567844612524,153.0462640945334 118.33126517385244,152.934293207858 117.80685190169606,152.79992806978407 117.1464796330547,152.68795705967932 116.60264364711475,152.68795705967932 116.00053951982409,152.68795705967932 115.45670353376772,152.6207744267158 114.95171297539491,152.5311975513614 114.36903156188782,152.19528394917143 114.01942271378357,151.8369755504973 114.09711356880143,151.25472317778622 114.38845427567139,150.69486369706283 114.6409495548578,150.0006359937397 114.8351766926935,149.44077337239287 115.00998111674562,148.8809093489108 115.20420825469773,148.25385997800913 115.39843539253343,147.71638768885168 115.6120852441527,147.0445455100853 115.76746695430484,146.52946513901406 115.94227137847338,145.94719894263835 116.13649851619266,145.40972110744042 116.33072565414477,144.80505699824425 116.5637982195476,144.17799619449943 116.77744807116687,143.61811899046006 116.97167520900257,143.08063555526314 117.18532506062184,142.49836037548084 117.55435662262607,141.87129310093587 117.80685190169606,141.3785961511894 118.07876989478245,140.90829350429703 118.46722417045385,140.3484081107017 118.75856487720739,139.83331230995827 119.14701915287878,139.27342422370566 119.47720528719947,138.8255127449811 119.82681413542014,138.31041343486868 120.21526841109153,137.8177086361393 120.54545454541221,137.4145857202966 120.89506339363288,136.92187894690142 121.24467224173713,136.4963585867954 121.78850822767708,136.5635460659396 122.3517669274006,136.72031677211635 122.89560291334055,136.92187894690142 123.45886161306407,137.10104517199215 124.00269759900402,137.2578155011288 124.54653358506039,137.4369814569509 125.10979228478391,137.61614726908738 125.6342055570567,137.79531293769833 126.17804154299665,137.97447846262367 126.70245481515303,138.10885251211585 127.01321823569015,138.1760395065794 127.3045589425601,138.31041343486868 127.65416779066436,138.44478728232207 127.9455084974179,138.5791610490851 128.2756946317386,138.71353473504132 128.5864580522757,138.7807215477951 128.89722147281282,138.91509511254844 129.20798489334993,138.95988628285704 129.40221203130204,138.60155666906212 129.51874831388704,138.22083082501194 129.6158618829213,137.840104332412 129.69355273793917,137.57135582956835 129.79066630697343,137.235419746532 129.46048017265275,137.03385785446153 129.13029403833207,136.83229578055034 128.80010790389497,136.6083377074683" stroke="#4DD2FF" stroke-linecap="round" stroke-linejoin="round" stroke-width="0.5"><title>2025-10-29 10.1km</title><desc>9223370275112361807</desc></polyline><polyline fill="none" points="27.53273203386925,211.74005547727575 26.422461449052207,210.5564393275563 25.794006401090883,210.3390398111951 25.270293861045502,210.16995116292674 24.5999418097781,210.09748456306988 24.034332266659476,210.50812834085082 23.594413732993416,210.9912377721339 23.196392202517018,211.4743462352344 22.77742217062041,211.98160907946294 22.31655513541773,212.51302615246095 21.897585103404708,212.94782106806815 21.436718068202026,213.28599434926582 21.143439045874402,213.72078787079954 20.640675007365644,214.2280459881149 20.368344486574642,214.83192330757447 20.033168460940942,215.33917908693547 19.61419842892792,215.82227883697487 19.258073901757598,216.42615216303966 18.881000872934237,216.8367851608491 18.608670352143236,217.4648107457615 18.210648821783252,217.92375148473366 17.896421297686175,218.55177423817804 17.60314227535855,219.03486755056656 17.33081175456755,219.51795989506354 17.05848123366013,220.02520581496356 16.786150712985545,220.5324506676261 16.576665696920827,221.08800332942337 16.430026185815223,221.61940032971324 16.304335176129825,222.2232591357315 16.094850160065107,222.8512706895708 15.864416642463766,223.3585095965973 15.717777131358162,223.93820989786764 15.571137620136142,224.51790880538465 15.466395112103783,225.02514420612715 15.29880709934514,225.62899448240933 15.047425080090761,226.13622754566313 14.85888856567908,226.69176729538594 14.691300552920438,227.36807482833683 14.502764038508758,227.8753042331955 14.167588012991473,228.5274547572044 14.10474250803236,229.1071426311537 14.293279022560455,229.51775403197098 14.712249054573476,229.95251828244363 15.277858597692102,230.14574658665515 15.885365144116804,230.26651419809787 16.45097468723543,230.45974225064856 16.974687227397226,230.53220273039187 17.56124527216889,230.7254305700626 18.084957812097855,230.82204443175578 18.67151585686952,231.0635789168009 19.299970905063674,231.1601926430012 19.8655804481823,231.25680633060983 20.473086994607,231.42588019066898 21.080593541031703,231.54664716096886 21.709048588993028,231.69156744545035 22.31655513541773,231.86064100073418 22.903113180189393,232.12632777648105 23.594413732993416,232.46447415875446 24.034332266659476,232.85092658632493 24.5999418097781,233.23737839455134 25.060808844980784,233.45475726450968 25.563572883373126,233.7445954529685 26.087285423418507,233.98612701054662 26.652894966537133,234.20350520552893 27.30229851626791,234.3725769994926 27.805062554660253,234.58995484610205 28.307826593052596,234.83148555691878 28.8524876346346,235.04886298984638 29.397148676216602,235.19378116959706 30.004655222641304,235.29039324106998 30.675007273908705,235.33869926226907 31.32441082340665,235.36285226923064 31.890020366758108,235.29039324106998 32.539423916256055,235.36285226923064 33.167878964333795,235.36285226923064 33.79633401229512,235.41115827593603 34.38289205706678,235.45946427294984 34.948501600301825,235.50777026028663 35.576956648379564,235.53192325030977 36.184463194804266,235.60438220595825 36.72912423638627,235.65268816427852 37.336630782694556,235.65268816427852 38.06982833868824,235.6285351862316 38.55164387554396,235.65268816427852 39.180098923505284,235.67684113977884 39.703811463550664,235.79760598108987 40.227524003596045,235.79760598108987 40.98167006112635,235.990829601491 41.50538260128815,236.11159428556857 42.133837649133056,236.28066474168736 42.762292697210796,236.47388797502208 43.26505673560314,236.61880529831978 43.80971777718514,236.73956966791593 44.37532732042018,236.90863968375197 44.96188536519185,237.02940390826552 45.506546406890266,237.19847372091317 46.05120744847227,237.29508498920768 46.78440500434954,237.41584902012255 47.245272039668635,237.5849185618281 47.852778586093336,237.7056824475876 48.35554262448568,237.85059903073125 48.94210066925734,237.9713627834717 49.486761710839346,238.16458466206677 50.07331975561101,238.26119554330944 50.76462030853145,238.3578063858149 51.30928135011345,238.45441718965594 51.83299389015883,238.55102795477433 52.39860343327746,238.62348600318364 52.98516147816554,238.72009670060652 53.65551352931652,238.79255469828786 54.09543206298258,238.91331797928433 54.66104160610121,239.03408119975938 55.14285714284051,239.13069173273107 55.750363689265214,239.22730222693644 56.357870235689916,239.2756074595236 56.67209775978699,239.32391268237552 56.96537678223103,239.4205230991647 57.237707303022034,239.46882829305832 57.5519348270027,239.5412860657234 57.90805935417302,239.56543865181447 58.18038987508044,239.66204897178977 58.47366889740806,239.7828118174366 58.7041024150094,239.97603224456543 58.93453593261074,240.16925251696375 59.164969450212084,240.43493013863917 59.353505964623764,240.67645499538048 59.70963049179409,241.03874182682193 60.37998254306149,241.401028113949 60.94559208618011,241.59424724460405 61.53215013106819,241.71500912262127 62.034914169460535,241.8599232964625 62.6214722142322,241.88407565026137 63.1661332558142,241.95653269730974 63.75269130070228,242.07729439389368 64.36019784701057,242.17390370766225 64.92580739024561,242.22220835005282 65.49141693348065,242.34296991360316 66.05702647659928,242.41542682272848 66.64358452148736,242.53618828952312 67.20919406460598,242.6327974195301 67.79575210961048,242.72940651069803 68.38231015426572,242.85016782027378 68.9060226943111,242.946776824494 69.49258073908277,243.01923355212784 69.99534477747511,243.1158424886089 70.56095432071015,243.23660360468784 71.16846086713485,243.33321245398838 71.7969159152126,243.42982126462448 72.36252545833122,243.50227784727758 72.94908350310288,243.55058222349908 73.45184754161164,243.71964746432786 73.99650858319364,243.86456043360522 74.54116962477565,244.03362545429263 75.00203665997833,244.1785382349044 75.54669770156033,244.34760303550866 76.11230724479537,244.44421143975342 76.71981379110366,244.51666771761666 77.24352633114904,244.61327605418046 77.8300843759207,244.63742813223507 78.45853942399845,244.75818848643394 79.00320046558045,244.8789487801696 79.63165551354177,244.9755569716217 80.13441955205053,245.09631715642172 80.63718359044287,245.2412292984809 81.32848414313048,245.36198935037828 81.81029968010262,245.45859734831902 82.37590922322124,245.53105332134874 82.96246726810932,245.57935729125165 83.50712830957491,245.555205307508 84.11463485599961,245.4827493417397 84.30317137041129,245.86918090778636 84.38696537690703,246.40052330016624 84.30317137041129,246.93186452190275 84.30317137041129,247.48735636568745 84.30317137041129,248.0911503969255 84.13558335765265,248.6707912448328 83.90514984005131,249.20212746495963 83.54902531288099,249.41949194490735 83.21384928724729,249.73346251448675 83.00436427129898,249.75761407987738 83.31859179527964,249.61270465148846 83.71661332563963,249.32288553353283 84.17748036084231,249.61270465148846 84.78498690726701,249.9508265155746 85.28775094565935,249.87837187031982 85.72766947932541,249.46779513607908 85.87430899054743,248.8640045512584 85.83241198724136,248.38097099507286 85.89525749208406,247.75302592568914 85.89525749208406,247.22168651304673 85.91620599362068,246.6903459298337 85.95810299681034,246.15900417606463 85.97905149846338,245.62766125159396 85.83241198724136,245.555205307508 85.53913296491373,245.65181322806166 85.16205993609037,245.555205307508 85.1201629327843,245.2412292984809 85.05731742805801,245.12046918617852 84.78498690726701,245.2412292984809 84.47075938328635,245.28953332653327 83.86325283674523,245.31368533686327 83.27669479197357,245.41029335412895 82.6901367472019,245.43444535242452 82.0826302007772,245.36198935037828 81.49607215600554,245.2412292984809 80.88856560958084,245.09631715642172 80.32295606646221,244.9755569716217 79.73639802157413,244.8789487801696 79.14983997680247,244.70988435205072 78.64707593841013,244.66158020796138 78.03956939198542,244.56497189073707 77.47395984875038,244.46836353481922 76.92929880716838,244.39590724249138 76.3217922608601,244.34760303550866 75.81902822235133,244.2992988188489 75.19057317439001,244.27514670687378 74.64591213280801,244.2509945924976 74.08030258957297,244.08192972418328 73.53564154799096,243.9853211747395 72.92813500156626,243.86456043360522 72.32062845514156,243.84040827811987 71.71312190871686,243.74379963193496 71.16846086713485,243.67134312195412 70.62379982543644,243.5747344080446 70.10008728550747,243.47812565536879 69.5135292407358,243.42982126462448 68.88507419277448,243.38151686414494 68.3613616527291,243.23660360468784 67.77480360784102,243.16414694226114 67.27203956944868,243.06753802516323 66.68548152467702,242.97092906944454 66.11987198144197,242.85016782027378 65.63805644470267,242.77771104179556 65.07244690146763,242.6327974195301 64.506837358349,242.56034057568468 63.98312481818721,242.46373141676304 63.333721268572845,242.34296991360316 62.78906022699084,242.2463606675592 62.07681117253378,242.12559905562375 61.553098632604815,242.0289897225157 61.00843759102281,241.95653269730974 60.46377654944081,241.78746622047038 59.89816700608935,241.57009486178868 59.39540296769701,241.23196124765673 59.060226942179725,240.82136979320785 58.766947919735685,240.3624726345297 58.243235379690304,240.00018478713173 57.6985743381083,239.85526949574705 57.132964794989675,239.71035411729827 56.54640675021801,239.61374381666246 56.04364271170925,239.51713347728946 55.47803316859063,239.44467569734843 54.95432062854525,239.32391268237552 54.346814082120545,239.22730222693644 53.86499854538124,239.15484435988765 53.27844050060958,239.08238647111284 52.75472796044778,238.98577591884532 52.231015420518816,238.9616232747794 51.60256037255749,238.91331797928433 51.05789933097549,238.79255469828786 50.49228978762403,238.57518063999305 49.926680244505405,238.52687526708178 49.361070701270364,238.38195909041679 48.837358161224984,238.26119554330944 48.29269711964298,238.21289010746113 47.74803607806098,238.09212647577806 47.20337503636256,237.94721003776067 46.67966249643359,237.82644627294212 46.09310445166193,237.60907134384615 45.569391911732964,237.51246020135295 45.087576374877244,237.36754341500637 44.48006982845254,237.2467793599062 43.95635728840716,237.0777095810481 43.32790224032942,236.90863968375197 42.74134419555776,236.7637225346407 42.28047716047149,236.47388797502208 41.86150712845847,236.20820598932914 41.54727960436139,235.74930005188799 40.98167006112635,235.48361726780422 40.416060518007725,235.36285226923064 39.787605469929986,235.29039324106998 39.22199592681136,235.266240226847 38.635437882039696,235.24208721016475 38.02793133549858,235.2179341910669 37.483270293916576,235.19378116959706 36.917660750681534,235.12132209063566 36.22636019787751,235.12132209063566 35.68169915641192,235.07301602588268 35.053244108334184,235.02470995142357 34.44573756190948,235.00055691055604 33.838231015601195,234.97640386731655 33.251672970713116,234.95225082166144 32.686063427478075,234.92809777354705 32.12045388435945,234.90394472298794 31.554844341124408,234.8556386147393 30.96828629623633,234.80733249674086 30.402676753001288,234.7348733015824 29.795170206693,234.75902636907995 29.208612161921337,234.6624140847416 28.622054117033258,234.49334249399544 28.056444573798217,234.27596456029278 27.511783532216214,234.01028015298652 26.96712249063421,233.84120810499007 26.359615944325924,233.64798276220972 25.856851905817166,233.40645086587756 25.312190864235163,233.1890719523799 24.74658132100012,232.85092658632493 24.24381728260778,232.6093938916165 23.80389874894172,232.1987877555075 23.322083212202415,231.9572544075636 22.798370672157034,231.73987418762408 22.484143148176372,231.49834038002882 21.96043060813099,231.37757338560186 21.394821065012366,231.23265291232383 20.933954029809684,231.0635789168009 20.389292988111265,230.9669651518052 19.8027349433396,230.7978909699741 19.237125400220975,230.60466318838007 18.67151585686952,230.45974225064856 18.105906313750893,230.31482122575107 17.56124527216889,230.19405363842088 16.932790224207565,230.049132453918 16.388129182509147,229.9283647335833 15.82251963939052,229.7592898235016 15.235961594502442,229.638521957997 14.62845504807774,229.49360043952765 14.020948501653038,229.37283244090213 14.18853651441168,228.72068420334836 14.398021530592814,228.09268793709634 14.62845504807774,227.5371514152066 14.816991562605835,226.8608443564881 14.984579575364478,226.28115108207567 15.194064591312781,225.74976435606368 15.361652604071423,225.1942224358936 15.508292115293443,224.63867923567886 15.738725632894784,224.05898061853077 15.948210648959503,223.52758899512992 16.073901658528484,223.04450468474533 16.283386674476787,222.41649363419856 16.409077684162185,221.90925274537585 16.597614198573865,221.37785638388596 16.828047716175206,220.87061330983124 17.14227524015587,220.33921465912135 17.41460576094687,219.78366027188895 17.64503927854821,219.32472307347052 17.917369799339212,218.74501167934795 18.210648821783252,218.28607250365894 18.482979342574254,217.77882292473805 18.776258365018293,217.31988190981792 19.069537387345918,216.86094002124446 19.362816409789957,216.40199725907587 19.677043933654204,215.89474371590768 19.99127145775128,215.45995411516924 20.305498981731944,215.00100868595473 20.640675007365644,214.5903725613316 20.975851032999344,214.1072703427053 21.331975560169667,213.72078787079954 21.855688100215048,213.72078787079954 22.44224614498671,213.9140291841759 22.986907186568715,214.1314254766039 23.615362234646454,214.32466646083049 24.09717777138576,214.49375219499052 24.641838812967762,214.614527646816 25.22839685785584,214.7594581091398 25.71021239471156,214.95269858994288 26.212976433103904,215.1217838836019 26.799534477875568,215.26671404094668 27.32324701792095,215.45995411516924 27.700320046627894,215.532419103125 28.286878091399558,215.749813936156 28.915333139477298,215.96720857317268 29.33430317149032,216.18460301414598 29.774221705039963,216.30537761884625 30.151294733863324,216.40199725907587 30.591213267412968,216.5227717548696 31.15682281064801,216.78847543268057 31.743380855419673,216.90924973487563 32.24614489392843,217.07833365630358 32.30899039877113,216.98171428720525 31.910968868178315,216.8367851608491 31.53389583947137,216.6918559473561 31.19871981383767,216.59523642327986 30.884492289973423,216.4986168605683 30.528367762686685,216.37784235260915 30.27698574354872,216.08798328676494 30.339831248275004,215.749813936156 30.423625254654326,215.45995411516924 30.528367762686685,215.14593891592813 30.612161769066006,214.8077682438161 30.48647075938061,214.3729766827746 30.172243235516362,214.20389086390787 29.816118708229624,214.01064978273644" stroke="#4DD2FF" stroke-linecap="round" stroke-linejoin="round" stroke-width="0.5"><title>2025-10-22 10.2km</title><desc>9223370275716227807</desc></polyline><polyline fill="none" points="114.48998109635431,230.49750986557046 114.29943289223593,229.61306771212548 114.0,229.42354373150738 114.09527410200099,228.85497038759058 114.46275992441224,228.57068292707845 114.85746691870736,228.7602079591452 116.55879017012194,228.72862047005037 116.74933837429853,228.20742596233322 117.26654064276954,228.09686932445038 117.86540642718319,228.31798252071894 121.00945179583505,228.33377630831092 122.00302457466023,228.58647668866615 125.71871455578366,228.82338291792257 132.3062381852651,230.76600022679486 135.64083175803535,231.33456650256994 138.19962192815728,231.01869660896773 139.08431001892313,230.71861960891692 139.76483931951225,230.86076141879312 147.31871455576038,230.71861960891692 153.2257088847109,230.1974318481516 154.46427221171325,230.2606062163104 154.68204158789013,230.54489055165322 161.17429111531237,231.17663163690304 164.93081285443623,231.77678326322348 167.6257088847342,231.90313067554962 169.40869565214962,231.77678326322348 171.80415879021166,231.23980560261407 177.04423440457322,229.202432125443 179.48052930057747,228.64965171882068 183.15538752358407,228.7444142154127 185.89111531194067,229.34457533725072 186.0,229.17084472715214 185.78223062388133,228.98132020131743 183.57731568999588,228.33377630831092 181.34517958411016,228.19163216176094 179.14026465028292,228.34957009424397 176.8809073723969,228.8391766535933 171.4638941399171,231.05028362752637 166.80907372402726,231.65043574714218 156.9005671077175,230.22901903548336 153.44347826082958,230.21322544265422 146.10737240070011,230.7028260663501 140.56786389410263,230.62385832928703 135.2733459357405,231.33456650256994 133.64007561432663,231.14504464429046 132.6328922495013,230.67123897641432 125.85482041584328,228.9181453074416 122.09829867671942,228.47592032338434 121.51304347824771,228.85497038759058 117.63402646500617,228.80758918069478 117.2529300567112,229.0918762031215 116.98071833647555,231.14504464429046 114.09527410200099,231.17663163690304 114.02722117200028,231.00290309725096 114.28582230623579,231.00290309725096 114.40831758029526,230.56068411044544 114.58525519852992,230.56068411044544" stroke="#4DD2FF" stroke-linecap="round" stroke-linejoin="round" stroke-width="0.5"><title>2024-11-02 10.7km</title><desc>1730492811000</desc></polyline></svg>