<?xml version="1.0" encoding="utf-8" ?>
<svg baseProfile="full" height="200mm" version="1.1" viewBox="0,0,200,200" width="200mm" xmlns="http://www.w3.org/2000/svg" xmlns:ev="http://www.w3.org/2001/xml-events" xmlns:xlink="http://www.w3.org/1999/xlink"><defs /><rect fill="#1a1a1a" height="200" width="200" x="0" y="0" /><rect fill="#1a1a1a" height="200" width="180" x="10" y="0" /><text alignment-baseline="middle" fill="#e1ed5e" style="dominant-baseline: central; font-size:9.0px; font-family:Arial;" text-anchor="middle" x="100.0" y="100.0">2025</text><line stroke="#e1ed5e" stroke-width="0.3" x1="100.0" x2="100.0" y1="15.0" y2="10.0" /><path d="M 100.0 14.0 a86.0,86.0 0 0,1 42.46469731375804,11.215312516191453" fill="none" id="id49" stroke="none" /><text fill="#e1ed5e" style="font-size:6.75px; font-family:Arial;" text-anchor="middle"><textPath startOffset="22.20632615414155" xlink:href="#id49">January</textPath></text><line stroke="#e1ed5e" stroke-width="0.3" x1="143.23703022742887" x2="145.7803849466894" y1="26.81831364943548" y2="22.513508569990506" /><path d="M 143.74570117128098 25.957352633546492 a86.0,86.0 0 0,1 28.547481713284135,27.462654790039103" fill="none" id="id50" stroke="none" /><text fill="#e1ed5e" style="font-size:6.75px; font-family:Arial;" text-anchor="middle"><textPath startOffset="19.985693538727396" xlink:href="#id50">February</textPath></text><path d="M 114.16331599549186 84.49514656593476 l 21.570544423411107 -23.613688339964764 a52.98272445773405,52.98272445773405 0 0,0 0.6680670348322822,0.6208955003009204 l -21.973819342038237 23.238888253589202" fill="red" stroke="none" /><line stroke="#e1ed5e" stroke-width="0.3" x1="172.23445277983987" x2="176.4835382374775" y1="55.19839476539836" y2="52.563006222186495" /><path d="M 173.08426987136738 54.67131705675599 a86.0,86.0 0 0,1 12.851231095245387,41.99856678651699" fill="none" id="id51" stroke="none" /><text fill="#e1ed5e" style="font-size:6.75px; font-family:Arial;" text-anchor="middle"><textPath startOffset="22.20632615414155" xlink:href="#id51">March</textPath></text><path d="M 118.21658344932153 89.55222093294921 l 14.129870064388154 -8.10392141257204 a37.288854173871044,37.288854173871044 0 0,0 0.31454455151723915,0.5595396593249311 l -14.267272257197826 7.8594982433123155" fill="red" stroke="none" /><line stroke="#e1ed5e" stroke-width="0.3" x1="184.98032266829074" x2="189.97916517819016" y1="98.17113171792111" y2="98.06355123074" /><path d="M 185.9800911702706 98.14961562048488 a86.0,86.0 0 0,1 -9.607161424134198,41.387399972396054" fill="none" id="id52" stroke="none" /><text fill="#e1ed5e" style="font-size:6.75px; font-family:Arial;" text-anchor="middle"><textPath startOffset="21.466115282336823" xlink:href="#id52">April</textPath></text><line stroke="#e1ed5e" stroke-width="0.3" x1="174.80103733775053" x2="179.2010983576182" y1="140.37084112569926" y2="142.7455964860345" /><path d="M 175.68104954172406 140.8457921977663 a86.0,86.0 0 0,1 -30.038265399797805,32.042727171017184" fill="none" id="id53" stroke="none" /><text fill="#e1ed5e" style="font-size:6.75px; font-family:Arial;" text-anchor="middle"><textPath startOffset="22.206326154141568" xlink:href="#id53">May</textPath></text><path d="M 115.07121518719521 114.62390073753431 l 8.112239061084614 7.871467384344861 a32.30346943937975,32.30346943937975 0 0,0 -0.3906556622553566,0.3957321233659776 l -7.975542773773721 -8.009940001691502" fill="red" stroke="none" /><line stroke="#e1ed5e" stroke-width="0.3" x1="143.8653032363475" x2="146.44561519142675" y1="172.8068346515853" y2="177.08958963109032" /><path d="M 144.38136562736335 173.6633856474863 a86.0,86.0 0 0,1 -40.68145358897372,12.25698825130547" fill="none" id="id54" stroke="none" /><text fill="#e1ed5e" style="font-size:6.75px; font-family:Arial;" text-anchor="middle"><textPath startOffset="21.466115282336833" xlink:href="#id54">June</textPath></text><path d="M 105.18746579009965 120.34920634021253 l 5.735215175806379 22.497898153032498 a44.217409726690505,44.217409726690505 0 0,0 -0.7391607829389661,0.18166773675389666 l -5.347101108124202 -22.593287148100423" fill="red" stroke="none" /><path d="M 104.83641907484287 120.43548508189849 l 7.791807457499948 32.92298756470746 a54.832460354526894,54.832460354526894 0 0,0 -0.9203494016278787,0.209468527410108 l -7.223937906479207 -33.052232825695256" fill="red" stroke="none" /><line stroke="#e1ed5e" stroke-width="0.3" x1="102.19456741930631" x2="102.32365962044197" y1="184.97166512339345" y2="189.96999836594603" /><path d="M 102.22038585953345 185.97133177190398 a86.0,86.0 0 0,1 -42.740103519485714,-10.115201625700543" fill="none" id="id55" stroke="none" /><text fill="#e1ed5e" style="font-size:6.75px; font-family:Arial;" text-anchor="middle"><textPath startOffset="22.20632615414155" xlink:href="#id55">July</textPath></text><line stroke="#e1ed5e" stroke-width="0.3" x1="58.666819895761336" x2="56.23545636021788" y1="174.27360380694188" y2="178.64263932499728" /><path d="M 58.180547188652646 175.14741091055294 a86.0,86.0 0 0,1 -31.652253787137756,-30.449443065178592" fill="none" id="id56" stroke="none" /><text fill="#e1ed5e" style="font-size:6.75px; font-family:Arial;" text-anchor="middle"><textPath startOffset="22.20632615414155" xlink:href="#id56">August</textPath></text><path d="M 83.06392112726016 112.41649034213515 l -25.736500013317627 18.86841731530168 a52.91213883336362,52.91213883336362 0 0,0 -0.5321958547730355,-0.7391734951148907 l 26.05747566046627 -18.422610214735652" fill="red" stroke="none" /><path d="M 82.85270091963577 112.12312394758628 l -27.67467504674812 19.5659686244753 a54.89269489369435,54.89269489369435 0 0,0 -0.5388347775624723,-0.7762316852754712 l 28.007370731472726 -19.086695677012816" fill="red" stroke="none" /><line stroke="#e1ed5e" stroke-width="0.3" x1="26.63291911575756" x2="22.317208475507996" y1="142.92168965132927" y2="145.44649492493687" /><path d="M 25.769776987707644 143.4266507060508 a86.0,86.0 0 0,1 -11.730757126820373,-40.83630448921669" fill="none" id="id57" stroke="none" /><text fill="#e1ed5e" style="font-size:6.75px; font-family:Arial;" text-anchor="middle"><textPath startOffset="21.46611528233685" xlink:href="#id57">September</textPath></text><path d="M 81.69416730710424 110.29060199501025 l -26.196335172915514 14.72623854455855 a51.051789932763946,51.051789932763946 0 0,0 -0.42403030971426703,-0.7697381800606814 l 26.445941892081297 -14.273129846100044" fill="red" stroke="none" /><path d="M 81.51974371655577 109.97397251340807 l -24.164034905964566 13.041562642236554 a48.45874977285117,48.45874977285117 0 0,0 -0.38985639184195603,-0.7374613721477061 l 24.38494380603141 -12.623686255002722" fill="red" stroke="none" /><path d="M 81.35079622478065 109.6543875284942 l -26.81987982502016 13.884212774941497 a51.200617844811916,51.200617844811916 0 0,0 -0.398441575045913,-0.7861630277276168 l 27.054900069852337 -13.420495535511195" fill="red" stroke="none" /><path d="M 81.18737489456691 109.33194174019688 l -33.690427115035995 16.71202723053612 a58.60766854443031,58.60766854443031 0 0,0 -0.440525219863919,-0.9076124321797486 l 33.97310559151463 -16.129625842391086" fill="red" stroke="none" /><path d="M 80.20201598880116 107.00284435728193 l -36.38864424518819 12.87121011297984 a59.597946574595674,59.597946574595674 0 0,0 -0.3337745225775267,-0.9701049990010733 l 36.60480959870894 -12.24293241088947" fill="red" stroke="none" /><path d="M 79.86692584326677 105.97154293290107 l -34.16732319638953 10.13415218069474 a56.63856078502635,56.63856078502635 0 0,0 -0.2691878763104567,-0.9370783115683784 l 34.33670370958609 -9.544516393621764" fill="red" stroke="none" /><path d="M 79.76711848015287 105.62410040840567 l -43.133209076882885 11.989666353118507 a65.76858077412321,65.76858077412321 0 0,0 -0.293803670413898,-1.0933527552582545 l 43.333200823638556 -11.245422664684714" fill="red" stroke="none" /><path d="M 79.67330655649465 105.27499134158121 l -44.98984665489644 11.675339731139225 a67.4801017626749,67.4801017626749 0 0,0 -0.2820947354752826,-1.1268282420381464 l 45.18415270466678 -10.899183649703685" fill="red" stroke="none" /><path d="M 79.58551787078972 104.9243191809786 l -9.348445387172434 2.2550035137317965 a30.61657277848446,30.61657277848446 0 0,0 -0.11917053962187096,-0.5133835657082298 l 9.385876492724861 -2.093751290674992" fill="red" stroke="none" /><path d="M 79.50377843672027 104.57218783832718 l -45.622063952137644 10.177126809316663 a67.74341268399056,67.74341268399056 0 0,0 -0.2440890686105266,-1.1403028671132585 l 45.79048705947261 -9.390310122787241" fill="red" stroke="none" /><path d="M 79.29508885075956 103.50808413554451 l -46.91056373046152 7.948172451747945 a68.57913865164456,68.57913865164456 0 0,0 -0.18718266261552677,-1.1655866187867086 l 47.04042814743834 -7.139506603268023" fill="red" stroke="none" /><path d="M 79.23777060512086 103.15116336523772 l -31.420651717345724 4.768833092077005 a52.780483372705795,52.780483372705795 0 0,0 -0.128598262836529,-0.8994159507612356 l 31.49808403119885 -4.2272716693353685" fill="red" stroke="none" /><path d="M 79.10278846688536 102.07522291339032 l -47.477264617983984 4.714787293233219 a68.71079411230238,68.71079411230238 0 0,0 -0.10674844752555333,-1.1779602232398314 l 47.55138766178661 -3.896845681444822" fill="red" stroke="none" /><path d="M 79.07016306316243 101.71520430193888 l -52.394954323437105 4.293776933220065 a73.57059785571506,73.57059785571506 0 0,0 -0.09257087507001252,-1.263056042427576 l 52.46110175717145 -3.3912477542957284" fill="red" stroke="none" /><path d="M 79.04373962182676 101.35467743843564 l -48.19977968499702 3.115782725473361 a69.30038161003088,69.30038161003088 0 0,0 -0.0667054093916819,-1.1910698948479832 l 48.24627144527623 -2.28564111428994" fill="red" stroke="none" /><line stroke="#e1ed5e" stroke-width="0.3" x1="15.007084014347285" x2="10.007500721073583" y1="101.09737516637583" y2="101.16192664675087" /><path d="M 14.007167355692545 101.11028546245083 a86.0,86.0 0 0,1 10.666146001902534,-42.60595125391555" fill="none" id="id58" stroke="none" /><text fill="#e1ed5e" style="font-size:6.75px; font-family:Arial;" text-anchor="middle"><textPath startOffset="22.20632615414155" xlink:href="#id58">October</textPath></text><path d="M 79.00019446554 99.90962569577889 l -31.21922752633422 -0.13435438539578134 a52.219516627294205,52.219516627294205 0 0,0 0.011605148210281737,-0.8988315182083412 l 31.21228937100622 0.6717221616645945" fill="red" stroke="none" /><path d="M 79.01574976396665 99.18683210126434 l -32.014041951048156 -1.2405871513420283 a53.03807014355806,53.03807014355806 0 0,0 0.04320428601975592,-0.9119741930946953 l 31.987944056794905 1.7914724510597326" fill="red" stroke="none" /><path d="M 79.03285615573316 98.82574320788736 l -37.54882838183715 -2.1029076297056357 a58.60766854443031,58.60766854443031 0 0,0 0.06508077109835042,-1.006770723460339 l 37.507067019734386 2.7489374174189867" fill="red" stroke="none" /><path d="M 79.05617556472873 98.46500227214037 l -35.4062145595727 -2.5949634494417895 a56.501181173905145,56.501181173905145 0 0,0 0.07943935899846016,-0.969361392299043 l 35.356300716754745 3.204038758948611" fill="red" stroke="none" /><path d="M 79.08570108090925 98.10471618934814 l -41.621469128188714 -3.7717973200715584 a62.79202253316373,62.79202253316373 0 0,0 0.10681483471956538,-1.0756108086541798 l 41.55037716778692 4.487683659430169" fill="red" stroke="none" /><path d="M 79.12142395522702 97.74499172005258 l -41.22029610002474 -4.452032974284716 a62.46002180628748,62.46002180628748 0 0,0 0.12465130787093558,-1.0679362825672951 l 41.137554439150215 5.160912995176872" fill="red" stroke="none" /><path d="M 79.16333360222342 97.38593545837743 l -34.242484566289754 -4.29589181940099 a55.51090314373978,55.51090314373978 0 0,0 0.1271041104316227,-0.9470732577060571 l 34.1634644568003 4.884683419171706" fill="red" stroke="none" /><path d="M 79.21141760316559 97.0276538004421 l -46.14815965105019 -6.598252075922105 a67.61748137379611,67.61748137379611 0 0,0 0.1746595173812473,-1.1507879933717102 l 46.02774424022964 7.391639181685907" fill="red" stroke="none" /><path d="M 79.3925641242962 95.95851677861259 l -46.706568046468405 -9.159985367754766 a68.59631110303471,68.59631110303471 0 0,0 0.23721487666364074,-1.1567439837606321 l 46.54197387388977 9.9626050076788" fill="red" stroke="none" /><path d="M 79.46518482838121 95.60439243477599 l -15.958047806910377 -3.4159214524224013 a37.319552971106674,37.319552971106674 0 0,0 0.13986944254289907,-0.6270072852782436 l 15.896883977365441 3.690106907250604" fill="red" stroke="none" /><path d="M 79.71946130924805 94.55025226153421 l -41.67037088430535 -11.197582714670663 a64.14864619298564,64.14864619298564 0 0,0 0.295735123892327,-1.0639165890473514 l 41.47144898984666 11.913210607136957" fill="red" stroke="none" /><path d="M 80.02781315780177 93.51064311812611 l -28.5265107359037 -9.268825202894565 a50.99454842813011,50.99454842813011 0 0,0 0.2784368059836099,-0.8324906097853914 l 28.362736636148316 9.758488915602278" fill="red" stroke="none" /><path d="M 80.14247586403 93.16781622104843 l -28.28695833215861 -9.732416616972806 a50.91441032164274,50.91441032164274 0 0,0 0.2922654907932984,-0.826273899366919 l 28.1152397605555 10.217888142766338" fill="red" stroke="none" /><path d="M 80.2630227832202 92.82701384747504 l -55.04152659591338 -20.00367653820176 a79.5637833908777,79.5637833908777 0 0,0 0.4788808162884455,-1.2831625030904499 l 54.68904119112331 20.94816217832155" fill="red" stroke="none" /><path d="M 80.65960295795068 91.81776055985345 l -28.472874184292678 -12.045868221760351 a51.91613665273487,51.91613665273487 0 0,0 0.3552776736226149,-0.8200298541652935 l 28.261305800827383 12.534197220512244" fill="red" stroke="none" /><path d="M 80.95270993114464 91.15688171328213 l -18.150824844826005 -8.426914827466568 a41.0116300199891,41.0116300199891 0 0,0 0.3027865329425216,-0.6377456585700891 l 18.003080118041733 8.73810290167719" fill="red" stroke="none" /><path d="M 81.10775173730289 90.83032412892265 l -30.69689948044816 -14.899265273712164 a55.12166091222969,55.12166091222969 0 0,0 0.42165442356795,-0.8500295882112939 l 30.435885043926795 15.42545445042242" fill="red" stroke="none" /><path d="M 81.26839172434947 90.50648371742162 l -51.64552545199119 -26.174882027515977 a78.8997819371252,78.8997819371252 0 0,0 0.6243999754130587,-1.2061420099775455 l 51.18731604341802 27.05999675975386" fill="red" stroke="none" /><line stroke="#e1ed5e" stroke-width="0.3" x1="26.266209847984243" x2="21.928928074336255" y1="57.711370442889674" y2="55.22380399835377" /><path d="M 25.398753493254645 57.213857153982495 a86.0,86.0 0 0,1 29.58750427330803,-30.492523968695096" fill="none" id="id59" stroke="none" /><text fill="#e1ed5e" style="font-size:6.75px; font-family:Arial;" text-anchor="middle"><textPath startOffset="21.46611528233685" xlink:href="#id59">November</textPath></text><path d="M 81.96595687620814 89.24020034530311 l -24.735772760018357 -14.758307794594252 a49.803925131746325,49.803925131746325 0 0,0 0.4455890816948179,-0.7324312905459698 l 24.478067880037322 15.181906858347297" fill="red" stroke="none" /><path d="M 83.6137871275137 86.86637796730984 l -26.81258473747099 -21.49040515961449 a55.362075231691804,55.362075231691804 0 0,0 0.6023960796296084,-0.738466365511675 l 26.43869016576499 21.94875569473425" fill="red" stroke="none" /><path d="M 84.07557802195018 86.31012108654704 l -24.96745644677699 -21.463978787074712 a53.925313465382516,53.925313465382516 0 0,0 0.611174445898872,-0.6986780438481212 l 24.594290137300273 21.890572387125776" fill="red" stroke="none" /><path d="M 84.80347519578584 85.50635884689758 l -16.109199971903198 -15.364102428970185 a43.261221152098855,43.261221152098855 0 0,0 0.5185902552298016,-0.5344528433847034 l 15.842345452970276 15.639119467905012" fill="red" stroke="none" /><path d="M 85.05521093208273 85.24692304244772 l -27.114078512463397 -26.766258467054705 a59.0999454842813,59.0999454842813 0 0,0 0.72091858310173,-0.71782272959872 l 26.649324129194355 27.229017047303536" fill="red" stroke="none" /><path d="M 87.22198572758235 83.33499621200491 l -15.450646369010917 -20.150633328242655 a46.39233145556969,46.39233145556969 0 0,0 0.6379030544719705,-0.4804553555110537 l 15.101497160780555 20.413605273259563" fill="red" stroke="none" /><path d="M 87.51073957382395 83.11751280151077 l -19.493050663351998 -26.349933226935136 a53.776485553334545,53.776485553334545 0 0,0 0.7489135747669468,-0.544117561868711 l 19.03659177223127 26.681570023620516" fill="red" stroke="none" /><path d="M 87.80319425747018 82.90503203632743 l -15.479282446997694 -21.695667137613885 a47.65164455751408,47.65164455751408 0 0,0 0.6718175286241749,-0.4706511118311192 l 15.103533778789858 21.95890309220895" fill="red" stroke="none" /><path d="M 88.09926311788651 82.69761687909137 l -18.619906333817394 -27.071328124845223 a53.85662365982191,53.85662365982191 0 0,0 0.7683424582664924,-0.5187882576283726 l 18.15115918114436 27.387828294772262" fill="red" stroke="none" /><path d="M 88.70189139769569 82.29822771554957 l -26.814273559948298 -42.0123563367372 a70.84017808468109,70.84017808468109 0 0,0 1.033527324175519,-0.6471947155827339 l 26.08712708340054 42.46769539364286" fill="red" stroke="none" /><line stroke="#e1ed5e" stroke-width="0.3" x1="56.762969772571076" x2="54.21961505331055" y1="26.818313649435495" y2="22.513508569990535" /><path d="M 56.25429882871897 25.957352633546506 a86.0,86.0 0 0,1 42.265352541879196,-11.944610805530505" fill="none" id="id60" stroke="none" /><text fill="#e1ed5e" style="font-size:6.75px; font-family:Arial;" text-anchor="middle"><textPath startOffset="22.20632615414155" xlink:href="#id60">December</textPath></text><path d="M 89.63071344664047 81.73862282372117 l -20.209085641428477 -35.59027261777039 a61.927675813192806,61.927675813192806 0 0,0 0.9314981432925394,-0.5183777082306605 l 19.593463409063894 35.932865723561235" fill="red" stroke="none" /><path d="M 89.94658935756843 81.56283822128135 l -23.07370096563888 -42.315346768165824 a69.19734690169,69.19734690169 0 0,0 1.05066270603348,-0.5612276308093362 l 22.341893213077096 42.706253125476906" fill="red" stroke="none" /><path d="M 90.58718382345135 81.22770947309562 l -15.556034293589244 -31.023913537512627 a55.70552425949482,55.70552425949482 0 0,0 0.8608592004025635,-0.4224198709670769 l 15.019703826176254 31.287088568614532" fill="red" stroke="none" /><path d="M 90.91171255644093 81.06846463323043 l -21.87183986167081 -45.56056489729468 a71.53852444121388,71.53852444121388 0 0,0 1.1147125680305088,-0.5233724973540065 l 21.084349082340694 45.9303023772887" fill="red" stroke="none" /><path d="M 91.23893434514133 80.91482961587045 l -12.809655507721768 -27.9046485391071 a51.70434308558968,51.70434308558968 0 0,0 0.8120484239312509,-0.36434245717455016 l 12.327424965323742 28.12101132679818" fill="red" stroke="none" /><path d="M 91.56875222667455 80.76684994638697 l -22.58649003713679 -51.52373216252284 a77.25695075413411,77.25695075413411 0 0,0 1.222559026628241,-0.5234359724501897 l 21.69624725271824 51.90488766293582" fill="red" stroke="none" /><path d="M 91.90106846888425 80.62456947434976 l -20.605695142131875 -49.29591182802635 a74.42922042522261,74.42922042522261 0 0,0 1.186317173823047,-0.48392856185271943 l 19.75409409872045 49.643301276062644" fill="red" stroke="none" /><path d="M 97.47563105711357 79.15227682838746 l -3.5821910003634567 -29.583839768693863 a50.79992731237507,50.79992731237507 0 0,0 0.8690012071376766,-0.09764241093937723 l 3.0724230897160623 29.641118133103838" fill="red" stroke="none" /><path d="M 97.83486435360386 79.11191278185805 l -5.256050717827747 -50.707606241533384 a71.97928402689442,71.97928402689442 0 0,0 1.2335016995864005,-0.11713584941934664 l 4.3824238911511095 50.79056763546791" fill="red" stroke="none" /><path d="M 98.55514903715128 79.0497635885617 l -4.334552888546145 -62.8507092343149 a84.0,84.0 0 0,0 1.4433518046415081,-0.08706692247877434 l 3.2520390350650135 62.91600942617398" fill="red" stroke="none" /><path d="M 98.91598698831166 79.02799685794201 l -1.497781743480334 -28.97703541534399 a50.01571869889152,50.01571869889152 0 0,0 0.8601731110829228,-0.03704086358543919 l 0.9987678000080871 28.99852400545362" fill="red" stroke="none" /><path d="M 99.27714615592234 79.0124445844662 l -1.4523411824540555 -42.16770969504805 a63.19271306560058,63.19271306560058 0 0,0 1.0874363500800293,-0.02808527267283218 l 0.7262781971791474 42.18646175986325" fill="red" stroke="none" /></svg>