<?xml version="1.0" encoding="utf-8" ?>
<svg baseProfile="full" height="200mm" version="1.1" viewBox="0,0,200,200" width="200mm" xmlns="http://www.w3.org/2000/svg" xmlns:ev="http://www.w3.org/2001/xml-events" xmlns:xlink="http://www.w3.org/1999/xlink"><defs /><rect fill="#1a1a1a" height="200" width="200" x="0" y="0" /><rect fill="#1a1a1a" height="200" width="180" x="10" y="0" /><text alignment-baseline="middle" fill="#e1ed5e" style="dominant-baseline: central; font-size:9.0px; font-family:Arial;" text-anchor="middle" x="100.0" y="100.0">2024</text><line stroke="#e1ed5e" stroke-width="0.3" x1="100.0" x2="100.0" y1="15.0" y2="10.0" /><path d="M 100.0 14.0 a86.0,86.0 0 0,1 42.35913384403234,11.155469271406648" fill="none" id="id37" stroke="none" /><text fill="#e1ed5e" style="font-size:6.75px; font-family:Arial;" text-anchor="middle"><textPath startOffset="22.145653131862478" xlink:href="#id37">January</textPath></text><line stroke="#e1ed5e" stroke-width="0.3" x1="143.13028292997686" x2="145.6673583964461" y1="26.7553504044142" y2="22.446841604673864" /><path d="M 143.63769802327073 25.89364864446614 a86.0,86.0 0 0,1 29.32050498858742,28.57503671076993" fill="none" id="id38" stroke="none" /><text fill="#e1ed5e" style="font-size:6.75px; font-family:Arial;" text-anchor="middle"><textPath startOffset="20.669276256404974" xlink:href="#id38">February</textPath></text><line stroke="#e1ed5e" stroke-width="0.3" x1="172.87174338648825" x2="177.1583165268699" y1="56.24261187166439" y2="53.66864786411523" /><path d="M 173.72905801456457 55.72781907015455 a86.0,86.0 0 0,1 12.242430191666344,42.057860355516425" fill="none" id="id39" stroke="none" /><text fill="#e1ed5e" style="font-size:6.75px; font-family:Arial;" text-anchor="middle"><textPath startOffset="22.145653131862474" xlink:href="#id39">March</textPath></text><line stroke="#e1ed5e" stroke-width="0.3" x1="184.99686870605535" x2="189.99668451229388" y1="99.2704041080226" y2="99.22748670261217" /><path d="M 185.99683186730306 99.26182062694052 a86.0,86.0 0 0,1 -10.086455211305974,41.156179273409016" fill="none" id="id40" stroke="none" /><text fill="#e1ed5e" style="font-size:6.75px; font-family:Arial;" text-anchor="middle"><textPath startOffset="21.40746469413373" xlink:href="#id40">April</textPath></text><line stroke="#e1ed5e" stroke-width="0.3" x1="174.33088141563837" x2="178.70328620479359" y1="141.23008692659167" y2="143.65538615756765" /><path d="M 175.20536237346943 141.71514677278685 a86.0,86.0 0 0,1 -30.301960400862466,31.631185727798858" fill="none" id="id41" stroke="none" /><text fill="#e1ed5e" style="font-size:6.75px; font-family:Arial;" text-anchor="middle"><textPath startOffset="22.145653131862474" xlink:href="#id41">May</textPath></text><line stroke="#e1ed5e" stroke-width="0.3" x1="143.1302829299769" x2="145.66735839644613" y1="173.24464959558577" y2="177.55315839532614" /><path d="M 143.63769802327073 174.10635135553383 a86.0,86.0 0 0,1 -40.68552437913181,11.842963189579606" fill="none" id="id42" stroke="none" /><text fill="#e1ed5e" style="font-size:6.75px; font-family:Arial;" text-anchor="middle"><textPath startOffset="21.407464694133747" xlink:href="#id42">June</textPath></text><line stroke="#e1ed5e" stroke-width="0.3" x1="101.45913802915013" x2="101.54496967792366" y1="184.9874750549273" y2="189.98673829345242" /><path d="M 101.47630435890484 185.9873277026323 a86.0,86.0 0 0,1 -42.54439059252881,-10.42667462771756" fill="none" id="id43" stroke="none" /><text fill="#e1ed5e" style="font-size:6.75px; font-family:Arial;" text-anchor="middle"><textPath startOffset="22.145653131862474" xlink:href="#id43">July</textPath></text><line stroke="#e1ed5e" stroke-width="0.3" x1="58.13341422392154" x2="55.67067388415222" y1="173.97424548756322" y2="178.32567169271397" /><path d="M 57.64086615596768 174.84453072859336 a86.0,86.0 0 0,1 -31.369924170532247,-30.572349798747897" fill="none" id="id44" stroke="none" /><text fill="#e1ed5e" style="font-size:6.75px; font-family:Arial;" text-anchor="middle"><textPath startOffset="22.145653131862474" xlink:href="#id44">August</textPath></text><line stroke="#e1ed5e" stroke-width="0.3" x1="26.387840678322732" x2="22.057713659400548" y1="142.50000000000003" y2="145.00000000000006" /><path d="M 25.521815274538298 143.00000000000003 a86.0,86.0 0 0,1 -11.493303480769221,-40.785679425670985" fill="none" id="id45" stroke="none" /><text fill="#e1ed5e" style="font-size:6.75px; font-family:Arial;" text-anchor="middle"><textPath startOffset="21.40746469413373" xlink:href="#id45">September</textPath></text><line stroke="#e1ed5e" stroke-width="0.3" x1="15.003131293944662" x2="10.003315487706104" y1="100.72959589197737" y2="100.7725132973878" /><path d="M 14.003168132696942 100.73817937305945 a86.0,86.0 0 0,1 10.791469493833604,-42.45332614584628" fill="none" id="id46" stroke="none" /><text fill="#e1ed5e" style="font-size:6.75px; font-family:Arial;" text-anchor="middle"><textPath startOffset="22.145653131862435" xlink:href="#id46">October</textPath></text><path d="M 80.28708602549916 92.7611449362534 l -45.08535357281234 -16.55596632915468 a69.02904462799157,69.02904462799157 0 0,0 0.4180179239183081,-1.1088422067102628 l 44.79450496507959 17.327476816059086" fill="red" stroke="none" /><path d="M 80.5471966667186 92.08871423366112 l -46.61854330543868 -18.959355717578017 a71.32639217296149,71.32639217296149 0 0,0 0.4710060569926363,-1.1302430730478417 l 46.28621140390956 19.75683130006712" fill="red" stroke="none" /><path d="M 81.1358732173502 90.77261029715801 l -28.07147491350984 -13.731165059744303 a52.24984156308244,52.24984156308244 0 0,0 0.4010301903719169,-0.8023290202182992 l 27.831624809926176 14.211025936126372" fill="red" stroke="none" /><path d="M 81.46374523516351 90.13048839642627 l -44.70281141797937 -23.801729184207577 a71.64448302460778,71.64448302460778 0 0,0 0.5873300441471572,-1.0806211288692467 l 44.28763602421686 24.565605146551444" fill="red" stroke="none" /><path d="M 81.63589988554816 89.8137432299009 l -25.1904861270942 -13.97273801901511 a49.80621459108009,49.80621459108009 0 0,0 0.42113913933150876,-0.7441125064258353 l 24.946913622741324 14.40310729554005" fill="red" stroke="none" /><line stroke="#e1ed5e" stroke-width="0.3" x1="26.387840678322718" x2="22.05771365940052" y1="57.49999999999999" y2="54.99999999999999" /><path d="M 25.521815274538284 56.99999999999999 a86.0,86.0 0 0,1 29.574782752854787,-30.34633250058573" fill="none" id="id47" stroke="none" /><text fill="#e1ed5e" style="font-size:6.75px; font-family:Arial;" text-anchor="middle"><textPath startOffset="21.40746469413373" xlink:href="#id47">November</textPath></text><path d="M 81.81346652052679 89.5 l -43.732442443146326 -25.248937416870355 a71.4978748337407,71.4978748337407 0 0,0 0.6228019512829335,-1.0576538707901861 l 43.29256678173361 25.99594245595411" fill="red" stroke="none" /><path d="M 81.99639281039701 89.18935116829357 l -54.01082156880897 -32.43194649511929 a84.0,84.0 0 0,0 0.752928142178428,-1.2298515355018278 l 53.44612546217515 33.35433514674566" fill="red" stroke="none" /><path d="M 82.37810715431573 88.57770195909679 l -46.13482078601598 -29.90403344840386 a75.97884052470613,75.97884052470613 0 0,0 0.7188161319713544,-1.088379240490437 l 45.61468021512389 30.69159256723336" fill="red" stroke="none" /><path d="M 82.576782715395 88.27688183743585 l -47.523096250615524 -31.975660045813726 a78.27903205022511,78.27903205022511 0 0,0 0.7597176249523286,-1.108450719241735 l 46.967188888847886 32.7867455001255" fill="red" stroke="none" /><path d="M 82.78059297857968 87.97951657250589 l -41.58427042075925 -29.029050350883693 a71.71427127250251,71.71427127250251 0 0,0 0.7133346899405488,-1.003394574752022 l 41.07982063228874 29.738622152345236" fill="red" stroke="none" /><path d="M 83.2033758604659 87.39550010848427 l -24.366144179777194 -18.284808847260255 a51.46380174519485,51.46380174519485 0 0,0 0.5363214880840891,-0.7020620440531241 l 24.048670714338797 18.700391804554265" fill="red" stroke="none" /><path d="M 84.10781606972428 86.27271002978789 l -38.10269047435985 -32.912196528907295 a71.34905859837193,71.34905859837193 0 0,0 0.8085850734944081,-0.9200213837219621 l 37.53209433690685 33.561430190440554" fill="red" stroke="none" /><path d="M 84.34580500576568 86.00192230759919 l -40.66176439959286 -36.36000045899767 a75.54749047817239,75.54749047817239 0 0,0 0.8727616612205652,-0.959317951021153 l 40.031605037530426 37.05265598557648" fill="red" stroke="none" /><path d="M 84.58840730492382 85.73525988315684 l -9.702819387021576 -8.980784769944641 a34.22116481786803,34.22116481786803 0 0,0 0.4027410117850299,-0.4276969979569477 l 9.547222541500274 9.1460232278461" fill="red" stroke="none" /><path d="M 84.83555147118756 85.47280134310135 l -39.838028112621174 -38.16392975923686 a76.16841504493273,76.16841504493273 0 0,0 0.9126180267013746,-0.9364264926556438 l 39.177023284769 38.84217894396023" fill="red" stroke="none" /><path d="M 86.13680546590413 84.22622945171909 l -29.948656703302827 -34.076073729275045 a66.36629629069662,66.36629629069662 0 0,0 0.8621946419162279,-0.7447431965470556 l 29.35928258162375 34.58516105828681" fill="red" stroke="none" /><path d="M 86.40962598614128 83.9905735841838 l -34.683102042076385 -40.85660699614639 a74.59272247701773,74.59272247701773 0 0,0 0.9832942888750652,-0.820299067852836 l 33.97663341903941 41.44596824791111" fill="red" stroke="none" /><path d="M 86.68645165197937 83.75963576809568 l -10.00662068233598 -12.206450178686158 a36.783848815954286,36.783848815954286 0 0,0 0.4917636770689657,-0.39613000812255833 l 9.79560623491177 12.376428480602115" fill="red" stroke="none" /><path d="M 87.83215693770416 82.88440491214696 l -32.00953106379503 -45.025414104625874 a76.24398604569643,76.24398604569643 0 0,0 1.0732426925517522,-0.749206751629097 l 31.23189328006951 45.5682656720601" fill="red" stroke="none" /><path d="M 88.12776184653039 82.6780497279521 l -31.056617578604694 -45.31253318544513 a75.93395269872508,75.93395269872508 0 0,0 1.081529862459824,-0.7277015586071643 l 30.27419142804788 45.838984418109405" fill="red" stroke="none" /><path d="M 89.03521579738668 82.08984904055464 l -29.046676900046076 -47.445563773710106 a76.63084540738944,76.63084540738944 0 0,0 1.1278135310826312,-0.6772196207003579 l 28.22793061240601 47.93719739494639" fill="red" stroke="none" /><line stroke="#e1ed5e" stroke-width="0.3" x1="56.869717070023135" x2="54.33264160355391" y1="26.7553504044142" y2="22.446841604673864" /><path d="M 56.362301976729285 25.89364864446614 a86.0,86.0 0 0,1 42.16139366436587,-11.88097634709845" fill="none" id="id48" stroke="none" /><text fill="#e1ed5e" style="font-size:6.75px; font-family:Arial;" text-anchor="middle"><textPath startOffset="22.145653131862474" xlink:href="#id48">December</textPath></text><path d="M 89.34428304082924 81.90426304109057 l -23.248232649821297 -39.48058158851803 a66.81699077752538,66.81699077752538 0 0,0 0.9933698950307442,-0.5735223763008674 l 22.567070286930154 39.87385086209507" fill="red" stroke="none" /></svg>